{
    "asset":  {
                  "generator":  "Khronos glTF Blender I/O v3.6.27",
                  "version":  "2.0"
              },
    "scene":  0,
    "scenes":  [
                   {
                       "name":  "Scene",
                       "nodes":  [
                                     0,
                                     1,
                                     2,
                                     3,
                                     4,
                                     5,
                                     6,
                                     7,
                                     8,
                                     9
                                 ]
                   }
               ],
    "nodes":  [
                  {
                      "mesh":  0,
                      "name":  "fire_hydrant",
                      "translation":  [
                                          -0.30000001192092896,
                                          0,
                                          0
                                      ]
                  },
                  {
                      "mesh":  1,
                      "name":  "fire_hydrant_cap_01",
                      "translation":  [
                                          -0.30000001192092896,
                                          0,
                                          0
                                      ]
                  },
                  {
                      "mesh":  2,
                      "name":  "fire_hydrant_cap_02",
                      "translation":  [
                                          -0.30000001192092896,
                                          0,
                                          0
                                      ]
                  },
                  {
                      "mesh":  3,
                      "name":  "fire_hydrant_cap_03",
                      "translation":  [
                                          -0.30000001192092896,
                                          0,
                                          0
                                      ]
                  },
                  {
                      "mesh":  4,
                      "name":  "fire_hydrant_chain",
                      "translation":  [
                                          -0.30000001192092896,
                                          0,
                                          0
                                      ]
                  },
                  {
                      "mesh":  5,
                      "name":  "fire_hydrant_aged",
                      "translation":  [
                                          0.30000001192092896,
                                          0,
                                          0
                                      ]
                  },
                  {
                      "mesh":  6,
                      "name":  "fire_hydrant_cap_01_aged",
                      "translation":  [
                                          0.30000001192092896,
                                          0,
                                          0
                                      ]
                  },
                  {
                      "mesh":  7,
                      "name":  "fire_hydrant_cap_02_aged",
                      "translation":  [
                                          0.30000001192092896,
                                          0,
                                          0
                                      ]
                  },
                  {
                      "mesh":  8,
                      "name":  "fire_hydrant_cap_03_aged",
                      "translation":  [
                                          0.30000001192092896,
                                          0,
                                          0
                                      ]
                  },
                  {
                      "mesh":  9,
                      "name":  "fire_hydrant_chain_aged",
                      "translation":  [
                                          0.30000001192092896,
                                          0,
                                          0
                                      ]
                  }
              ],
    "materials":  [
                      {
                          "doubleSided":  true,
                          "name":  "fire_hydrant",
                          "normalTexture":  {
                                                "index":  0
                                            },
                          "pbrMetallicRoughness":  {
                                                       "baseColorTexture":  {
                                                                                "index":  1
                                                                            },
                                                       "metallicRoughnessTexture":  {
                                                                                        "index":  2
                                                                                    }
                                                   }
                      },
                      {
                          "doubleSided":  true,
                          "name":  "fire_hydrant_aged",
                          "normalTexture":  {
                                                "index":  3
                                            },
                          "pbrMetallicRoughness":  {
                                                       "baseColorTexture":  {
                                                                                "index":  4
                                                                            },
                                                       "metallicRoughnessTexture":  {
                                                                                        "index":  5
                                                                                    }
                                                   }
                      }
                  ],
    "meshes":  [
                   {
                       "name":  "Cylinder.001",
                       "primitives":  [
                                          {
                                              "attributes":  {
                                                                 "POSITION":  0,
                                                                 "NORMAL":  1,
                                                                 "TEXCOORD_0":  2
                                                             },
                                              "indices":  3,
                                              "material":  0
                                          }
                                      ]
                   },
                   {
                       "name":  "Cylinder.024",
                       "primitives":  [
                                          {
                                              "attributes":  {
                                                                 "POSITION":  4,
                                                                 "NORMAL":  5,
                                                                 "TEXCOORD_0":  6
                                                             },
                                              "indices":  7,
                                              "material":  0
                                          }
                                      ]
                   },
                   {
                       "name":  "Cylinder.026",
                       "primitives":  [
                                          {
                                              "attributes":  {
                                                                 "POSITION":  8,
                                                                 "NORMAL":  9,
                                                                 "TEXCOORD_0":  10
                                                             },
                                              "indices":  11,
                                              "material":  0
                                          },
                                          {
                                              "attributes":  {
                                                                 "POSITION":  12,
                                                                 "NORMAL":  13,
                                                                 "TEXCOORD_0":  14
                                                             },
                                              "indices":  15,
                                              "material":  0
                                          }
                                      ]
                   },
                   {
                       "name":  "Cylinder.025",
                       "primitives":  [
                                          {
                                              "attributes":  {
                                                                 "POSITION":  16,
                                                                 "NORMAL":  17,
                                                                 "TEXCOORD_0":  18
                                                             },
                                              "indices":  19,
                                              "material":  0
                                          },
                                          {
                                              "attributes":  {
                                                                 "POSITION":  20,
                                                                 "NORMAL":  21,
                                                                 "TEXCOORD_0":  22
                                                             },
                                              "indices":  23,
                                              "material":  0
                                          }
                                      ]
                   },
                   {
                       "name":  "BezierCurve.040",
                       "primitives":  [
                                          {
                                              "attributes":  {
                                                                 "POSITION":  24,
                                                                 "NORMAL":  25,
                                                                 "TEXCOORD_0":  26
                                                             },
                                              "indices":  27,
                                              "material":  0
                                          }
                                      ]
                   },
                   {
                       "name":  "Cylinder.006",
                       "primitives":  [
                                          {
                                              "attributes":  {
                                                                 "POSITION":  28,
                                                                 "NORMAL":  29,
                                                                 "TEXCOORD_0":  30
                                                             },
                                              "indices":  3,
                                              "material":  1
                                          }
                                      ]
                   },
                   {
                       "name":  "Cylinder.007",
                       "primitives":  [
                                          {
                                              "attributes":  {
                                                                 "POSITION":  31,
                                                                 "NORMAL":  32,
                                                                 "TEXCOORD_0":  33
                                                             },
                                              "indices":  7,
                                              "material":  1
                                          }
                                      ]
                   },
                   {
                       "name":  "Cylinder.009",
                       "primitives":  [
                                          {
                                              "attributes":  {
                                                                 "POSITION":  34,
                                                                 "NORMAL":  35,
                                                                 "TEXCOORD_0":  36
                                                             },
                                              "indices":  11,
                                              "material":  1
                                          },
                                          {
                                              "attributes":  {
                                                                 "POSITION":  37,
                                                                 "NORMAL":  38,
                                                                 "TEXCOORD_0":  39
                                                             },
                                              "indices":  15,
                                              "material":  1
                                          }
                                      ]
                   },
                   {
                       "name":  "Cylinder.008",
                       "primitives":  [
                                          {
                                              "attributes":  {
                                                                 "POSITION":  40,
                                                                 "NORMAL":  41,
                                                                 "TEXCOORD_0":  42
                                                             },
                                              "indices":  19,
                                              "material":  1
                                          },
                                          {
                                              "attributes":  {
                                                                 "POSITION":  43,
                                                                 "NORMAL":  44,
                                                                 "TEXCOORD_0":  45
                                                             },
                                              "indices":  23,
                                              "material":  1
                                          }
                                      ]
                   },
                   {
                       "name":  "BezierCurve.002",
                       "primitives":  [
                                          {
                                              "attributes":  {
                                                                 "POSITION":  46,
                                                                 "NORMAL":  47,
                                                                 "TEXCOORD_0":  48
                                                             },
                                              "indices":  27,
                                              "material":  1
                                          }
                                      ]
                   }
               ],
    "textures":  [
                     {
                         "sampler":  0,
                         "source":  0
                     },
                     {
                         "sampler":  0,
                         "source":  1
                     },
                     {
                         "sampler":  0,
                         "source":  2
                     },
                     {
                         "sampler":  0,
                         "source":  3
                     },
                     {
                         "sampler":  0,
                         "source":  4
                     },
                     {
                         "sampler":  0,
                         "source":  5
                     }
                 ],
    "images":  [
                   {
                       "mimeType":  "image/jpeg",
                       "name":  "fire_hydrant_nor_gl",
                       "uri":  "fire_hydrant_nor_gl_1k.jpg"
                   },
                   {
                       "mimeType":  "image/jpeg",
                       "name":  "fire_hydrant_diff",
                       "uri":  "fire_hydrant_diff_1k.jpg"
                   },
                   {
                       "mimeType":  "image/jpeg",
                       "name":  "fire_hydrant_metal-fire_hydrant_rough",
                       "uri":  "fire_hydrant_arm_1k.jpg"
                   },
                   {
                       "mimeType":  "image/jpeg",
                       "name":  "fire_hydrant_aged_nor_gl",
                       "uri":  "fire_hydrant_aged_nor_gl_1k.jpg"
                   },
                   {
                       "mimeType":  "image/jpeg",
                       "name":  "fire_hydrant_aged_diff",
                       "uri":  "fire_hydrant_aged_diff_1k.jpg"
                   },
                   {
                       "mimeType":  "image/jpeg",
                       "name":  "fire_hydrant_aged_metal-fire_hydrant_aged_rough",
                       "uri":  "fire_hydrant_aged_arm_1k.jpg"
                   }
               ],
    "accessors":  [
                      {
                          "bufferView":  0,
                          "componentType":  5126,
                          "count":  13990,
                          "max":  [
                                      0.12630069255828857,
                                      0.7993673086166382,
                                      0.15721319615840912
                                  ],
                          "min":  [
                                      -0.12785103917121887,
                                      -0.0000887151836650446,
                                      -0.12653666734695435
                                  ],
                          "type":  "VEC3"
                      },
                      {
                          "bufferView":  1,
                          "componentType":  5126,
                          "count":  13990,
                          "type":  "VEC3"
                      },
                      {
                          "bufferView":  2,
                          "componentType":  5126,
                          "count":  13990,
                          "type":  "VEC2"
                      },
                      {
                          "bufferView":  3,
                          "componentType":  5123,
                          "count":  68664,
                          "type":  "SCALAR"
                      },
                      {
                          "bufferView":  4,
                          "componentType":  5126,
                          "count":  1228,
                          "max":  [
                                      0.12565623223781586,
                                      0.5548654198646545,
                                      0.1912069022655487
                                  ],
                          "min":  [
                                      -0.12573182582855225,
                                      0.30560681223869324,
                                      0.106272853910923
                                  ],
                          "type":  "VEC3"
                      },
                      {
                          "bufferView":  5,
                          "componentType":  5126,
                          "count":  1228,
                          "type":  "VEC3"
                      },
                      {
                          "bufferView":  6,
                          "componentType":  5126,
                          "count":  1228,
                          "type":  "VEC2"
                      },
                      {
                          "bufferView":  7,
                          "componentType":  5123,
                          "count":  6612,
                          "type":  "SCALAR"
                      },
                      {
                          "bufferView":  8,
                          "componentType":  5126,
                          "count":  998,
                          "max":  [
                                      0.1289990246295929,
                                      0.5974385738372803,
                                      0.09460797160863876
                                  ],
                          "min":  [
                                      0.07580488920211792,
                                      0.5226336717605591,
                                      0.022913480177521706
                                  ],
                          "type":  "VEC3"
                      },
                      {
                          "bufferView":  9,
                          "componentType":  5126,
                          "count":  998,
                          "type":  "VEC3"
                      },
                      {
                          "bufferView":  10,
                          "componentType":  5126,
                          "count":  998,
                          "type":  "VEC2"
                      },
                      {
                          "bufferView":  11,
                          "componentType":  5123,
                          "count":  5250,
                          "type":  "SCALAR"
                      },
                      {
                          "bufferView":  12,
                          "componentType":  5126,
                          "count":  57,
                          "max":  [
                                      0.1328546702861786,
                                      0.5746701955795288,
                                      0.08414196223020554
                                  ],
                          "min":  [
                                      0.1077723354101181,
                                      0.5433560609817505,
                                      0.05172242224216461
                                  ],
                          "type":  "VEC3"
                      },
                      {
                          "bufferView":  13,
                          "componentType":  5126,
                          "count":  57,
                          "type":  "VEC3"
                      },
                      {
                          "bufferView":  14,
                          "componentType":  5126,
                          "count":  57,
                          "type":  "VEC2"
                      },
                      {
                          "bufferView":  15,
                          "componentType":  5123,
                          "count":  210,
                          "type":  "SCALAR"
                      },
                      {
                          "bufferView":  16,
                          "componentType":  5126,
                          "count":  992,
                          "max":  [
                                      -0.07492709159851074,
                                      0.6084429621696472,
                                      0.11020832508802414
                                  ],
                          "min":  [
                                      -0.14176887273788452,
                                      0.5081241726875305,
                                      0.015759196132421494
                                  ],
                          "type":  "VEC3"
                      },
                      {
                          "bufferView":  17,
                          "componentType":  5126,
                          "count":  992,
                          "type":  "VEC3"
                      },
                      {
                          "bufferView":  18,
                          "componentType":  5126,
                          "count":  992,
                          "type":  "VEC2"
                      },
                      {
                          "bufferView":  19,
                          "componentType":  5123,
                          "count":  5220,
                          "type":  "SCALAR"
                      },
                      {
                          "bufferView":  20,
                          "componentType":  5126,
                          "count":  65,
                          "max":  [
                                      -0.11145898699760437,
                                      0.5758379697799683,
                                      0.08988629281520844
                                  ],
                          "min":  [
                                      -0.14002074301242828,
                                      0.5399725437164307,
                                      0.05295499786734581
                                  ],
                          "type":  "VEC3"
                      },
                      {
                          "bufferView":  21,
                          "componentType":  5126,
                          "count":  65,
                          "type":  "VEC3"
                      },
                      {
                          "bufferView":  22,
                          "componentType":  5126,
                          "count":  65,
                          "type":  "VEC2"
                      },
                      {
                          "bufferView":  23,
                          "componentType":  5123,
                          "count":  240,
                          "type":  "SCALAR"
                      },
                      {
                          "bufferView":  24,
                          "componentType":  5126,
                          "count":  8761,
                          "max":  [
                                      0.12316282838582993,
                                      0.5796802639961243,
                                      0.1688200682401657
                                  ],
                          "min":  [
                                      -0.13079358637332916,
                                      0.195121169090271,
                                      0.04612365737557411
                                  ],
                          "type":  "VEC3"
                      },
                      {
                          "bufferView":  25,
                          "componentType":  5126,
                          "count":  8761,
                          "type":  "VEC3"
                      },
                      {
                          "bufferView":  26,
                          "componentType":  5126,
                          "count":  8761,
                          "type":  "VEC2"
                      },
                      {
                          "bufferView":  27,
                          "componentType":  5123,
                          "count":  43278,
                          "type":  "SCALAR"
                      },
                      {
                          "bufferView":  28,
                          "componentType":  5126,
                          "count":  13990,
                          "max":  [
                                      0.12630069255828857,
                                      0.7993673086166382,
                                      0.15721319615840912
                                  ],
                          "min":  [
                                      -0.12785103917121887,
                                      -0.0000887151836650446,
                                      -0.12653666734695435
                                  ],
                          "type":  "VEC3"
                      },
                      {
                          "bufferView":  29,
                          "componentType":  5126,
                          "count":  13990,
                          "type":  "VEC3"
                      },
                      {
                          "bufferView":  30,
                          "componentType":  5126,
                          "count":  13990,
                          "type":  "VEC2"
                      },
                      {
                          "bufferView":  31,
                          "componentType":  5126,
                          "count":  1228,
                          "max":  [
                                      0.12565623223781586,
                                      0.5548654198646545,
                                      0.1912069022655487
                                  ],
                          "min":  [
                                      -0.12573182582855225,
                                      0.30560681223869324,
                                      0.106272853910923
                                  ],
                          "type":  "VEC3"
                      },
                      {
                          "bufferView":  32,
                          "componentType":  5126,
                          "count":  1228,
                          "type":  "VEC3"
                      },
                      {
                          "bufferView":  33,
                          "componentType":  5126,
                          "count":  1228,
                          "type":  "VEC2"
                      },
                      {
                          "bufferView":  34,
                          "componentType":  5126,
                          "count":  998,
                          "max":  [
                                      0.1289990246295929,
                                      0.5974385738372803,
                                      0.09460797160863876
                                  ],
                          "min":  [
                                      0.07580488920211792,
                                      0.5226336717605591,
                                      0.022913480177521706
                                  ],
                          "type":  "VEC3"
                      },
                      {
                          "bufferView":  35,
                          "componentType":  5126,
                          "count":  998,
                          "type":  "VEC3"
                      },
                      {
                          "bufferView":  36,
                          "componentType":  5126,
                          "count":  998,
                          "type":  "VEC2"
                      },
                      {
                          "bufferView":  37,
                          "componentType":  5126,
                          "count":  57,
                          "max":  [
                                      0.1328546702861786,
                                      0.5746701955795288,
                                      0.08414196223020554
                                  ],
                          "min":  [
                                      0.1077723354101181,
                                      0.5433560609817505,
                                      0.05172242224216461
                                  ],
                          "type":  "VEC3"
                      },
                      {
                          "bufferView":  38,
                          "componentType":  5126,
                          "count":  57,
                          "type":  "VEC3"
                      },
                      {
                          "bufferView":  39,
                          "componentType":  5126,
                          "count":  57,
                          "type":  "VEC2"
                      },
                      {
                          "bufferView":  40,
                          "componentType":  5126,
                          "count":  992,
                          "max":  [
                                      -0.07492709159851074,
                                      0.6084429621696472,
                                      0.11020832508802414
                                  ],
                          "min":  [
                                      -0.14176887273788452,
                                      0.5081241726875305,
                                      0.015759196132421494
                                  ],
                          "type":  "VEC3"
                      },
                      {
                          "bufferView":  41,
                          "componentType":  5126,
                          "count":  992,
                          "type":  "VEC3"
                      },
                      {
                          "bufferView":  42,
                          "componentType":  5126,
                          "count":  992,
                          "type":  "VEC2"
                      },
                      {
                          "bufferView":  43,
                          "componentType":  5126,
                          "count":  65,
                          "max":  [
                                      -0.11145898699760437,
                                      0.5758379697799683,
                                      0.08988629281520844
                                  ],
                          "min":  [
                                      -0.14002074301242828,
                                      0.5399725437164307,
                                      0.05295499786734581
                                  ],
                          "type":  "VEC3"
                      },
                      {
                          "bufferView":  44,
                          "componentType":  5126,
                          "count":  65,
                          "type":  "VEC3"
                      },
                      {
                          "bufferView":  45,
                          "componentType":  5126,
                          "count":  65,
                          "type":  "VEC2"
                      },
                      {
                          "bufferView":  46,
                          "componentType":  5126,
                          "count":  8761,
                          "max":  [
                                      0.12316282838582993,
                                      0.5796802639961243,
                                      0.1688200682401657
                                  ],
                          "min":  [
                                      -0.13079358637332916,
                                      0.195121169090271,
                                      0.04612365737557411
                                  ],
                          "type":  "VEC3"
                      },
                      {
                          "bufferView":  47,
                          "componentType":  5126,
                          "count":  8761,
                          "type":  "VEC3"
                      },
                      {
                          "bufferView":  48,
                          "componentType":  5126,
                          "count":  8761,
                          "type":  "VEC2"
                      }
                  ],
    "bufferViews":  [
                        {
                            "buffer":  0,
                            "byteLength":  167880,
                            "byteOffset":  0,
                            "target":  34962
                        },
                        {
                            "buffer":  0,
                            "byteLength":  167880,
                            "byteOffset":  167880,
                            "target":  34962
                        },
                        {
                            "buffer":  0,
                            "byteLength":  111920,
                            "byteOffset":  335760,
                            "target":  34962
                        },
                        {
                            "buffer":  0,
                            "byteLength":  137328,
                            "byteOffset":  447680,
                            "target":  34963
                        },
                        {
                            "buffer":  0,
                            "byteLength":  14736,
                            "byteOffset":  585008,
                            "target":  34962
                        },
                        {
                            "buffer":  0,
                            "byteLength":  14736,
                            "byteOffset":  599744,
                            "target":  34962
                        },
                        {
                            "buffer":  0,
                            "byteLength":  9824,
                            "byteOffset":  614480,
                            "target":  34962
                        },
                        {
                            "buffer":  0,
                            "byteLength":  13224,
                            "byteOffset":  624304,
                            "target":  34963
                        },
                        {
                            "buffer":  0,
                            "byteLength":  11976,
                            "byteOffset":  637528,
                            "target":  34962
                        },
                        {
                            "buffer":  0,
                            "byteLength":  11976,
                            "byteOffset":  649504,
                            "target":  34962
                        },
                        {
                            "buffer":  0,
                            "byteLength":  7984,
                            "byteOffset":  661480,
                            "target":  34962
                        },
                        {
                            "buffer":  0,
                            "byteLength":  10500,
                            "byteOffset":  669464,
                            "target":  34963
                        },
                        {
                            "buffer":  0,
                            "byteLength":  684,
                            "byteOffset":  679964,
                            "target":  34962
                        },
                        {
                            "buffer":  0,
                            "byteLength":  684,
                            "byteOffset":  680648,
                            "target":  34962
                        },
                        {
                            "buffer":  0,
                            "byteLength":  456,
                            "byteOffset":  681332,
                            "target":  34962
                        },
                        {
                            "buffer":  0,
                            "byteLength":  420,
                            "byteOffset":  681788,
                            "target":  34963
                        },
                        {
                            "buffer":  0,
                            "byteLength":  11904,
                            "byteOffset":  682208,
                            "target":  34962
                        },
                        {
                            "buffer":  0,
                            "byteLength":  11904,
                            "byteOffset":  694112,
                            "target":  34962
                        },
                        {
                            "buffer":  0,
                            "byteLength":  7936,
                            "byteOffset":  706016,
                            "target":  34962
                        },
                        {
                            "buffer":  0,
                            "byteLength":  10440,
                            "byteOffset":  713952,
                            "target":  34963
                        },
                        {
                            "buffer":  0,
                            "byteLength":  780,
                            "byteOffset":  724392,
                            "target":  34962
                        },
                        {
                            "buffer":  0,
                            "byteLength":  780,
                            "byteOffset":  725172,
                            "target":  34962
                        },
                        {
                            "buffer":  0,
                            "byteLength":  520,
                            "byteOffset":  725952,
                            "target":  34962
                        },
                        {
                            "buffer":  0,
                            "byteLength":  480,
                            "byteOffset":  726472,
                            "target":  34963
                        },
                        {
                            "buffer":  0,
                            "byteLength":  105132,
                            "byteOffset":  726952,
                            "target":  34962
                        },
                        {
                            "buffer":  0,
                            "byteLength":  105132,
                            "byteOffset":  832084,
                            "target":  34962
                        },
                        {
                            "buffer":  0,
                            "byteLength":  70088,
                            "byteOffset":  937216,
                            "target":  34962
                        },
                        {
                            "buffer":  0,
                            "byteLength":  86556,
                            "byteOffset":  1007304,
                            "target":  34963
                        },
                        {
                            "buffer":  0,
                            "byteLength":  167880,
                            "byteOffset":  1093860,
                            "target":  34962
                        },
                        {
                            "buffer":  0,
                            "byteLength":  167880,
                            "byteOffset":  1261740,
                            "target":  34962
                        },
                        {
                            "buffer":  0,
                            "byteLength":  111920,
                            "byteOffset":  1429620,
                            "target":  34962
                        },
                        {
                            "buffer":  0,
                            "byteLength":  14736,
                            "byteOffset":  1541540,
                            "target":  34962
                        },
                        {
                            "buffer":  0,
                            "byteLength":  14736,
                            "byteOffset":  1556276,
                            "target":  34962
                        },
                        {
                            "buffer":  0,
                            "byteLength":  9824,
                            "byteOffset":  1571012,
                            "target":  34962
                        },
                        {
                            "buffer":  0,
                            "byteLength":  11976,
                            "byteOffset":  1580836,
                            "target":  34962
                        },
                        {
                            "buffer":  0,
                            "byteLength":  11976,
                            "byteOffset":  1592812,
                            "target":  34962
                        },
                        {
                            "buffer":  0,
                            "byteLength":  7984,
                            "byteOffset":  1604788,
                            "target":  34962
                        },
                        {
                            "buffer":  0,
                            "byteLength":  684,
                            "byteOffset":  1612772,
                            "target":  34962
                        },
                        {
                            "buffer":  0,
                            "byteLength":  684,
                            "byteOffset":  1613456,
                            "target":  34962
                        },
                        {
                            "buffer":  0,
                            "byteLength":  456,
                            "byteOffset":  1614140,
                            "target":  34962
                        },
                        {
                            "buffer":  0,
                            "byteLength":  11904,
                            "byteOffset":  1614596,
                            "target":  34962
                        },
                        {
                            "buffer":  0,
                            "byteLength":  11904,
                            "byteOffset":  1626500,
                            "target":  34962
                        },
                        {
                            "buffer":  0,
                            "byteLength":  7936,
                            "byteOffset":  1638404,
                            "target":  34962
                        },
                        {
                            "buffer":  0,
                            "byteLength":  780,
                            "byteOffset":  1646340,
                            "target":  34962
                        },
                        {
                            "buffer":  0,
                            "byteLength":  780,
                            "byteOffset":  1647120,
                            "target":  34962
                        },
                        {
                            "buffer":  0,
                            "byteLength":  520,
                            "byteOffset":  1647900,
                            "target":  34962
                        },
                        {
                            "buffer":  0,
                            "byteLength":  105132,
                            "byteOffset":  1648420,
                            "target":  34962
                        },
                        {
                            "buffer":  0,
                            "byteLength":  105132,
                            "byteOffset":  1753552,
                            "target":  34962
                        },
                        {
                            "buffer":  0,
                            "byteLength":  70088,
                            "byteOffset":  1858684,
                            "target":  34962
                        }
                    ],
    "samplers":  [
                     {
                         "magFilter":  9729,
                         "minFilter":  9987
                     }
                 ],
    "buffers":  [
                    {
                        "byteLength":  1928772,
                        "uri":  "fire_hydrant.bin"
                    }
                ]
}