# Created by Kenney (www.kenney.nl)

mtllib banner.mtl

g banner

v 0.04 0.78 -0.5 1 1 1
v -0.04 0.78 -0.5 1 1 1
v 0.04 0.7403893 -0.5 1 1 1
v -0.04 0.7403893 -0.5 1 1 1
v 0.12 0.7403893 -0.5 1 1 1
v -0.12 0.7403893 -0.5 1 1 1
v -0.12 0.3840638 -0.5 1 1 1
v 0.12 0.3840638 -0.5 1 1 1
v 3.29254E-10 0.3060638 -0.5 1 1 1
v -0.04 0.78 -0.45 1 1 1
v 0.04 0.78 -0.45 1 1 1
v -0.04 0.7403893 -0.45 1 1 1
v 0.04 0.7403893 -0.45 1 1 1
v -0.12 0.7403893 -0.45 1 1 1
v 0.12 0.7403893 -0.45 1 1 1
v -0.12 0.3840638 -0.45 1 1 1
v 0.12 0.3840638 -0.45 1 1 1
v 3.292591E-10 0.3060638 -0.45 1 1 1
v -0.12 0.7403894 -0.45 1 1 1
v -0.12 0.78 -0.45 1 1 1
v -0.12 0.7403894 -0.5 1 1 1
v -0.12 0.78 -0.5 1 1 1
v 0.12 0.7403894 -0.45 1 1 1
v 0.12 0.7403894 -0.5 1 1 1
v 0.12 0.78 -0.45 1 1 1
v 0.12 0.78 -0.5 1 1 1
v 0.2 0.78 -0.5 1 1 1
v 0.2 0.78 -0.45 1 1 1
v -0.2 0.3764295 -0.45 1 1 1
v -0.2 0.3764295 -0.5 1 1 1
v -0.2 0.78 -0.45 1 1 1
v -0.2 0.78 -0.5 1 1 1
v 0.2 0.3764295 -0.45 1 1 1
v 0.2 0.3764295 -0.5 1 1 1
v 0.02752352 0.2285392 -0.5 1 1 1
v 0.02752353 0.2285392 -0.45 1 1 1
v 0.17 0.3211489 -0.5 1 1 1
v 0.17 0.3211489 -0.45 1 1 1
v -0.17 0.3211489 -0.5 1 1 1
v -0.17 0.3211489 -0.45 1 1 1
v -0.02752353 0.2285392 -0.5 1 1 1
v -0.02752352 0.2285392 -0.45 1 1 1
v 8.508053E-10 0.3060638 -0.45 1 1 1
v -1.922836E-10 0.3060638 -0.5 1 1 1
v -0.2 0.8 -0.52 1 1 1
v -0.12 0.8 -0.52 1 1 1
v -0.2 0.85 -0.52 1 1 1
v -0.12 0.85 -0.52 1 1 1
v -0.12 0.87 -0.5 1 1 1
v -0.12 0.87 -0.45 1 1 1
v -0.2 0.87 -0.5 1 1 1
v -0.2 0.87 -0.45 1 1 1
v -0.12 0.78 -0.45 1 1 1
v -0.12 0.78 -0.5 1 1 1
v -0.2 0.78 -0.45 1 1 1
v -0.2 0.78 -0.5 1 1 1
v -0.2 0.8 -0.43 1 1 1
v -0.2 0.85 -0.43 1 1 1
v -0.12 0.8 -0.43 1 1 1
v -0.12 0.85 -0.43 1 1 1
v 0.12 0.8 -0.52 1 1 1
v 0.2 0.8 -0.52 1 1 1
v 0.12 0.85 -0.52 1 1 1
v 0.2 0.85 -0.52 1 1 1
v 0.2 0.87 -0.5 1 1 1
v 0.2 0.87 -0.45 1 1 1
v 0.12 0.87 -0.5 1 1 1
v 0.12 0.87 -0.45 1 1 1
v 0.2 0.78 -0.45 1 1 1
v 0.2 0.78 -0.5 1 1 1
v 0.12 0.78 -0.45 1 1 1
v 0.12 0.78 -0.5 1 1 1
v 0.12 0.8 -0.43 1 1 1
v 0.12 0.85 -0.43 1 1 1
v 0.2 0.8 -0.43 1 1 1
v 0.2 0.85 -0.43 1 1 1
v -0.04 0.8 -0.52 1 1 1
v 0.04 0.8 -0.52 1 1 1
v -0.04 0.85 -0.52 1 1 1
v 0.04 0.85 -0.52 1 1 1
v 0.04 0.87 -0.5 1 1 1
v 0.04 0.87 -0.45 1 1 1
v -0.04 0.87 -0.5 1 1 1
v -0.04 0.87 -0.45 1 1 1
v 0.04 0.78 -0.45 1 1 1
v 0.04 0.78 -0.5 1 1 1
v -0.04 0.78 -0.45 1 1 1
v -0.04 0.78 -0.5 1 1 1
v -0.04 0.8 -0.43 1 1 1
v -0.04 0.85 -0.43 1 1 1
v 0.04 0.8 -0.43 1 1 1
v 0.04 0.85 -0.43 1 1 1
v -0.3 0.85 -0.5 1 1 1
v -0.3 0.85 -0.45 1 1 1
v -0.3 0.8 -0.5 1 1 1
v -0.3 0.8 -0.45 1 1 1
v -0.2 0.85 -0.5000001 1 1 1
v -0.25 0.875 -0.525 1 1 1
v -0.2 0.8 -0.5 1 1 1
v -0.25 0.775 -0.525 1 1 1
v -0.25 0.8749999 -0.425 1 1 1
v -0.2 0.8 -0.45 1 1 1
v -0.25 0.775 -0.425 1 1 1
v -0.2 0.85 -0.45 1 1 1
v 0.2 0.8 -0.45 1 1 1
v 0.2 0.8 -0.5 1 1 1
v 0.2 0.85 -0.5000001 1 1 1
v 0.2 0.85 -0.45 1 1 1
v 0.25 0.775 -0.425 1 1 1
v 0.25 0.875 -0.425 1 1 1
v 0.3 0.8 -0.5000001 1 1 1
v 0.3 0.8 -0.45 1 1 1
v 0.3 0.85 -0.5000001 1 1 1
v 0.3 0.85 -0.45 1 1 1
v 0.25 0.875 -0.525 1 1 1
v 0.25 0.775 -0.525 1 1 1

vn 0 0 -1
vn 0 0 1
vn 1 0 0
vn 0 1 0
vn -1 0 0
vn 1 0 -4.021783E-14
vn -1 0 4.021783E-14
vn -0.9692565 -0.2460523 3.898139E-14
vn 0.9692565 -0.2460523 -3.898139E-14
vn 0.2842151 -0.9587606 -1.143051E-14
vn 0.7345346 -0.6785712 -2.954139E-14
vn -0.7345346 -0.6785712 2.954139E-14
vn -0.2842151 -0.9587606 1.143051E-14
vn 4.021783E-14 0 1
vn -4.021783E-14 0 -1
vn 0 -0.3826834 -0.9238795
vn 0 0.3826834 -0.9238795
vn 0 0.9238795 -0.3826834
vn 0 0.9238795 0.3826834
vn 0 -0.9238795 0.3826834
vn 0 -0.9238795 -0.3826835
vn 0 -0.3826834 0.9238795
vn 0 0.3826834 0.9238795
vn 0 -0.3826834 0.9238795
vn 0.4472136 0 -0.8944272
vn -0.4472136 0 -0.8944272
vn -0.4472135 0.8944273 0
vn 0.4472136 -0.8944272 0
vn 0 -1 0
vn 0.4472135 0.8944273 0
vn -0.4472135 0 0.8944272
vn -0.4472135 -0.8944272 0
vn 0.4472136 0 0.8944272
vn 0.4472136 0 0.8944272
vn 0.4472135 0 -0.8944272
vn 0.4472135 -0.8944272 0
vn -0.4472136 -0.8944272 0

vt 0.96875 0.355
vt 0.96875 0.3483137
vt 0.96875 0.2881663
vt 0.96875 0.275
vt 0.96875 0.4610857
vt 0.96875 0.475
vt 0.96875 0.3332349
vt 0.96875 0.2812845
vt 0.96875 0.3138161
vt 0.96875 0.3359167
vt 0.96875 0.3085171
vt 0.96875 0.325
vt 0.96875 0.3964286
vt 0.96875 0.425
vt 0.09375 0.425
vt 0.09375 0.325
vt 0.09375 0.475
vt 0.09375 0.275
vt 0.09375 0.475
vt 0.09375 0.325

usemtl colormap

f 3/2/1 2/1/1 1/1/1
f 2/1/1 3/2/1 4/2/1
f 5/2/1 4/2/1 3/2/1
f 5/2/1 6/2/1 4/2/1
f 5/2/1 7/3/1 6/2/1
f 8/3/1 7/3/1 5/2/1
f 7/3/1 8/3/1 9/4/1
f 12/2/2 11/1/2 10/1/2
f 11/1/2 12/2/2 13/2/2
f 14/2/2 13/2/2 12/2/2
f 14/2/2 15/2/2 13/2/2
f 16/3/2 15/2/2 14/2/2
f 16/3/2 17/3/2 15/2/2
f 17/3/2 16/3/2 18/4/2
f 1/1/3 13/2/3 3/2/3
f 13/2/3 1/1/3 11/1/3
f 5/2/4 13/2/4 15/2/4
f 13/2/4 5/2/4 3/2/4
f 4/2/4 14/2/4 12/2/4
f 14/2/4 4/2/4 6/2/4
f 12/2/5 2/1/5 4/2/5
f 2/1/5 12/2/5 10/1/5
f 1/1/4 10/1/4 11/1/4
f 10/1/4 1/1/4 2/1/4
f 21/5/6 20/6/6 19/5/6
f 20/6/6 21/5/6 22/6/6
f 25/6/7 24/5/7 23/5/7
f 24/5/7 25/6/7 26/6/7
f 25/6/4 27/6/4 26/6/4
f 27/6/4 25/6/4 28/6/4
f 31/6/7 30/7/8 29/7/8
f 30/7/8 31/6/7 32/6/7
f 31/6/4 22/6/4 32/6/4
f 22/6/4 31/6/4 20/6/4
f 34/7/9 28/6/6 33/7/9
f 28/6/6 34/7/9 27/6/6
f 37/9/11 36/8/10 35/8/10
f 36/8/10 37/9/11 38/9/11
f 41/8/13 40/9/12 39/9/12
f 40/9/12 41/8/13 42/8/13
f 30/7/8 40/9/12 29/7/8
f 40/9/12 30/7/8 39/9/12
f 35/8/10 42/8/13 41/8/13
f 42/8/13 35/8/10 36/8/10
f 37/9/11 33/7/9 38/9/11
f 33/7/9 37/9/11 34/7/9
f 23/5/14 28/6/14 25/6/14
f 17/10/14 28/6/14 23/5/14
f 17/10/14 33/7/14 28/6/14
f 17/10/14 38/9/14 33/7/14
f 43/11/14 38/9/14 17/10/14
f 38/9/14 43/11/14 36/8/14
f 40/9/14 36/8/14 43/11/14
f 36/8/14 40/9/14 42/8/14
f 40/9/14 43/11/14 16/10/14
f 40/9/14 16/10/14 29/7/14
f 29/7/14 16/10/14 31/6/14
f 31/6/14 16/10/14 19/5/14
f 31/6/14 19/5/14 20/6/14
f 39/9/15 35/8/15 41/8/15
f 35/8/15 39/9/15 44/11/15
f 44/11/15 37/9/15 35/8/15
f 44/11/15 39/9/15 7/10/15
f 7/10/15 39/9/15 30/7/15
f 7/10/15 30/7/15 32/6/15
f 7/10/15 32/6/15 21/5/15
f 21/5/15 32/6/15 22/6/15
f 37/9/15 44/11/15 8/10/15
f 37/9/15 8/10/15 34/7/15
f 34/7/15 8/10/15 27/6/15
f 27/6/15 8/10/15 24/5/15
f 27/6/15 24/5/15 26/6/15
f 47/13/17 46/12/16 45/12/16
f 46/12/16 47/13/17 48/13/17
f 51/14/18 50/14/19 49/14/18
f 50/14/19 51/14/18 52/14/19
f 55/12/20 54/12/21 53/12/20
f 54/12/21 55/12/20 56/12/21
f 59/12/24 58/13/23 57/12/22
f 58/13/23 59/12/24 60/13/23
f 49/14/3 46/12/3 48/13/3
f 46/12/3 49/14/3 54/12/3
f 54/12/3 49/14/3 50/14/3
f 54/12/3 50/14/3 53/12/3
f 53/12/3 50/14/3 59/12/3
f 59/12/3 50/14/3 60/13/3
f 56/12/5 47/13/5 45/12/5
f 47/13/5 56/12/5 51/14/5
f 51/14/5 56/12/5 55/12/5
f 51/14/5 55/12/5 52/14/5
f 52/14/5 55/12/5 57/12/5
f 52/14/5 57/12/5 58/13/5
f 47/13/17 49/14/18 48/13/17
f 49/14/18 47/13/17 51/14/18
f 60/13/23 52/14/19 58/13/23
f 52/14/19 60/13/23 50/14/19
f 45/12/16 54/12/21 56/12/21
f 54/12/21 45/12/16 46/12/16
f 53/12/20 57/12/22 55/12/20
f 57/12/22 53/12/20 59/12/24
f 63/13/17 62/12/16 61/12/16
f 62/12/16 63/13/17 64/13/17
f 67/14/18 66/14/19 65/14/18
f 66/14/19 67/14/18 68/14/19
f 71/12/20 70/12/21 69/12/20
f 70/12/21 71/12/20 72/12/21
f 75/12/24 74/13/23 73/12/22
f 74/13/23 75/12/24 76/13/23
f 65/14/3 62/12/3 64/13/3
f 62/12/3 65/14/3 70/12/3
f 70/12/3 65/14/3 66/14/3
f 70/12/3 66/14/3 69/12/3
f 69/12/3 66/14/3 75/12/3
f 75/12/3 66/14/3 76/13/3
f 72/12/5 63/13/5 61/12/5
f 63/13/5 72/12/5 67/14/5
f 67/14/5 72/12/5 71/12/5
f 67/14/5 71/12/5 68/14/5
f 68/14/5 71/12/5 73/12/5
f 68/14/5 73/12/5 74/13/5
f 63/13/17 65/14/18 64/13/17
f 65/14/18 63/13/17 67/14/18
f 76/13/23 68/14/19 74/13/23
f 68/14/19 76/13/23 66/14/19
f 61/12/16 70/12/21 72/12/21
f 70/12/21 61/12/16 62/12/16
f 69/12/20 73/12/22 71/12/20
f 73/12/22 69/12/20 75/12/24
f 79/13/17 78/12/16 77/12/16
f 78/12/16 79/13/17 80/13/17
f 83/14/18 82/14/19 81/14/18
f 82/14/19 83/14/18 84/14/19
f 87/12/20 86/12/21 85/12/20
f 86/12/21 87/12/20 88/12/21
f 91/12/24 90/13/23 89/12/22
f 90/13/23 91/12/24 92/13/23
f 81/14/3 78/12/3 80/13/3
f 78/12/3 81/14/3 86/12/3
f 86/12/3 81/14/3 82/14/3
f 86/12/3 82/14/3 85/12/3
f 85/12/3 82/14/3 91/12/3
f 91/12/3 82/14/3 92/13/3
f 88/12/5 79/13/5 77/12/5
f 79/13/5 88/12/5 83/14/5
f 83/14/5 88/12/5 87/12/5
f 83/14/5 87/12/5 84/14/5
f 84/14/5 87/12/5 89/12/5
f 84/14/5 89/12/5 90/13/5
f 79/13/17 81/14/18 80/13/17
f 81/14/18 79/13/17 83/14/18
f 92/13/23 84/14/19 90/13/23
f 84/14/19 92/13/23 82/14/19
f 77/12/16 86/12/21 88/12/21
f 86/12/21 77/12/16 78/12/16
f 85/12/20 89/12/22 87/12/20
f 89/12/22 85/12/20 91/12/24
f 95/16/5 94/15/5 93/15/5
f 94/15/5 95/16/5 96/16/5
f 99/16/25 98/17/1 97/15/25
f 98/17/1 99/16/25 100/18/1
f 95/16/26 98/17/1 100/18/1
f 98/17/1 95/16/26 93/15/26
f 93/15/27 101/19/4 98/17/4
f 101/19/4 93/15/27 94/15/27
f 103/18/29 99/16/28 102/16/28
f 99/16/28 103/18/29 100/18/29
f 98/17/4 104/15/30 97/15/30
f 104/15/30 98/17/4 101/19/4
f 101/19/2 96/16/31 103/18/2
f 96/16/31 101/19/2 94/15/31
f 96/16/32 100/18/29 103/18/29
f 100/18/29 96/16/32 95/16/32
f 102/16/33 101/19/2 103/18/2
f 101/19/2 102/16/33 104/15/33
f 102/16/29 106/16/29 105/20/29
f 106/16/29 102/16/29 99/16/29
f 97/15/1 106/16/1 99/16/1
f 106/16/1 97/15/1 107/15/1
f 105/20/2 104/15/2 102/16/2
f 104/15/2 105/20/2 108/15/2
f 97/15/4 108/15/4 107/15/4
f 108/15/4 97/15/4 104/15/4
f 110/17/2 105/20/31 109/18/2
f 105/20/31 110/17/2 108/15/31
f 113/15/3 112/16/3 111/16/3
f 112/16/3 113/15/3 114/15/3
f 112/16/34 110/17/2 109/18/2
f 110/17/2 112/16/34 114/15/34
f 111/16/35 115/17/1 113/15/35
f 115/17/1 111/16/35 116/18/1
f 106/16/26 115/17/1 116/18/1
f 115/17/1 106/16/26 107/15/26
f 107/15/27 110/17/4 115/17/4
f 110/17/4 107/15/27 108/15/27
f 115/17/4 114/15/30 113/15/30
f 114/15/30 115/17/4 110/17/4
f 112/16/36 116/18/29 111/16/36
f 116/18/29 112/16/36 109/18/29
f 109/18/29 106/16/37 116/18/29
f 106/16/37 109/18/29 105/20/37

g banner




usemtl colormap

f 3/2/1 2/1/1 1/1/1
f 2/1/1 3/2/1 4/2/1
f 5/2/1 4/2/1 3/2/1
f 5/2/1 6/2/1 4/2/1
f 5/2/1 7/3/1 6/2/1
f 8/3/1 7/3/1 5/2/1
f 7/3/1 8/3/1 9/4/1
f 12/2/2 11/1/2 10/1/2
f 11/1/2 12/2/2 13/2/2
f 14/2/2 13/2/2 12/2/2
f 14/2/2 15/2/2 13/2/2
f 16/3/2 15/2/2 14/2/2
f 16/3/2 17/3/2 15/2/2
f 17/3/2 16/3/2 18/4/2
f 1/1/3 13/2/3 3/2/3
f 13/2/3 1/1/3 11/1/3
f 5/2/4 13/2/4 15/2/4
f 13/2/4 5/2/4 3/2/4
f 4/2/4 14/2/4 12/2/4
f 14/2/4 4/2/4 6/2/4
f 12/2/5 2/1/5 4/2/5
f 2/1/5 12/2/5 10/1/5
f 1/1/4 10/1/4 11/1/4
f 10/1/4 1/1/4 2/1/4
f 21/5/6 20/6/6 19/5/6
f 20/6/6 21/5/6 22/6/6
f 25/6/7 24/5/7 23/5/7
f 24/5/7 25/6/7 26/6/7
f 25/6/4 27/6/4 26/6/4
f 27/6/4 25/6/4 28/6/4
f 31/6/7 30/7/8 29/7/8
f 30/7/8 31/6/7 32/6/7
f 31/6/4 22/6/4 32/6/4
f 22/6/4 31/6/4 20/6/4
f 34/7/9 28/6/6 33/7/9
f 28/6/6 34/7/9 27/6/6
f 37/9/11 36/8/10 35/8/10
f 36/8/10 37/9/11 38/9/11
f 41/8/13 40/9/12 39/9/12
f 40/9/12 41/8/13 42/8/13
f 30/7/8 40/9/12 29/7/8
f 40/9/12 30/7/8 39/9/12
f 35/8/10 42/8/13 41/8/13
f 42/8/13 35/8/10 36/8/10
f 37/9/11 33/7/9 38/9/11
f 33/7/9 37/9/11 34/7/9
f 23/5/14 28/6/14 25/6/14
f 17/10/14 28/6/14 23/5/14
f 17/10/14 33/7/14 28/6/14
f 17/10/14 38/9/14 33/7/14
f 43/11/14 38/9/14 17/10/14
f 38/9/14 43/11/14 36/8/14
f 40/9/14 36/8/14 43/11/14
f 36/8/14 40/9/14 42/8/14
f 40/9/14 43/11/14 16/10/14
f 40/9/14 16/10/14 29/7/14
f 29/7/14 16/10/14 31/6/14
f 31/6/14 16/10/14 19/5/14
f 31/6/14 19/5/14 20/6/14
f 39/9/15 35/8/15 41/8/15
f 35/8/15 39/9/15 44/11/15
f 44/11/15 37/9/15 35/8/15
f 44/11/15 39/9/15 7/10/15
f 7/10/15 39/9/15 30/7/15
f 7/10/15 30/7/15 32/6/15
f 7/10/15 32/6/15 21/5/15
f 21/5/15 32/6/15 22/6/15
f 37/9/15 44/11/15 8/10/15
f 37/9/15 8/10/15 34/7/15
f 34/7/15 8/10/15 27/6/15
f 27/6/15 8/10/15 24/5/15
f 27/6/15 24/5/15 26/6/15
f 47/13/17 46/12/16 45/12/16
f 46/12/16 47/13/17 48/13/17
f 51/14/18 50/14/19 49/14/18
f 50/14/19 51/14/18 52/14/19
f 55/12/20 54/12/21 53/12/20
f 54/12/21 55/12/20 56/12/21
f 59/12/24 58/13/23 57/12/22
f 58/13/23 59/12/24 60/13/23
f 49/14/3 46/12/3 48/13/3
f 46/12/3 49/14/3 54/12/3
f 54/12/3 49/14/3 50/14/3
f 54/12/3 50/14/3 53/12/3
f 53/12/3 50/14/3 59/12/3
f 59/12/3 50/14/3 60/13/3
f 56/12/5 47/13/5 45/12/5
f 47/13/5 56/12/5 51/14/5
f 51/14/5 56/12/5 55/12/5
f 51/14/5 55/12/5 52/14/5
f 52/14/5 55/12/5 57/12/5
f 52/14/5 57/12/5 58/13/5
f 47/13/17 49/14/18 48/13/17
f 49/14/18 47/13/17 51/14/18
f 60/13/23 52/14/19 58/13/23
f 52/14/19 60/13/23 50/14/19
f 45/12/16 54/12/21 56/12/21
f 54/12/21 45/12/16 46/12/16
f 53/12/20 57/12/22 55/12/20
f 57/12/22 53/12/20 59/12/24
f 63/13/17 62/12/16 61/12/16
f 62/12/16 63/13/17 64/13/17
f 67/14/18 66/14/19 65/14/18
f 66/14/19 67/14/18 68/14/19
f 71/12/20 70/12/21 69/12/20
f 70/12/21 71/12/20 72/12/21
f 75/12/24 74/13/23 73/12/22
f 74/13/23 75/12/24 76/13/23
f 65/14/3 62/12/3 64/13/3
f 62/12/3 65/14/3 70/12/3
f 70/12/3 65/14/3 66/14/3
f 70/12/3 66/14/3 69/12/3
f 69/12/3 66/14/3 75/12/3
f 75/12/3 66/14/3 76/13/3
f 72/12/5 63/13/5 61/12/5
f 63/13/5 72/12/5 67/14/5
f 67/14/5 72/12/5 71/12/5
f 67/14/5 71/12/5 68/14/5
f 68/14/5 71/12/5 73/12/5
f 68/14/5 73/12/5 74/13/5
f 63/13/17 65/14/18 64/13/17
f 65/14/18 63/13/17 67/14/18
f 76/13/23 68/14/19 74/13/23
f 68/14/19 76/13/23 66/14/19
f 61/12/16 70/12/21 72/12/21
f 70/12/21 61/12/16 62/12/16
f 69/12/20 73/12/22 71/12/20
f 73/12/22 69/12/20 75/12/24
f 79/13/17 78/12/16 77/12/16
f 78/12/16 79/13/17 80/13/17
f 83/14/18 82/14/19 81/14/18
f 82/14/19 83/14/18 84/14/19
f 87/12/20 86/12/21 85/12/20
f 86/12/21 87/12/20 88/12/21
f 91/12/24 90/13/23 89/12/22
f 90/13/23 91/12/24 92/13/23
f 81/14/3 78/12/3 80/13/3
f 78/12/3 81/14/3 86/12/3
f 86/12/3 81/14/3 82/14/3
f 86/12/3 82/14/3 85/12/3
f 85/12/3 82/14/3 91/12/3
f 91/12/3 82/14/3 92/13/3
f 88/12/5 79/13/5 77/12/5
f 79/13/5 88/12/5 83/14/5
f 83/14/5 88/12/5 87/12/5
f 83/14/5 87/12/5 84/14/5
f 84/14/5 87/12/5 89/12/5
f 84/14/5 89/12/5 90/13/5
f 79/13/17 81/14/18 80/13/17
f 81/14/18 79/13/17 83/14/18
f 92/13/23 84/14/19 90/13/23
f 84/14/19 92/13/23 82/14/19
f 77/12/16 86/12/21 88/12/21
f 86/12/21 77/12/16 78/12/16
f 85/12/20 89/12/22 87/12/20
f 89/12/22 85/12/20 91/12/24
f 95/16/5 94/15/5 93/15/5
f 94/15/5 95/16/5 96/16/5
f 99/16/25 98/17/1 97/15/25
f 98/17/1 99/16/25 100/18/1
f 95/16/26 98/17/1 100/18/1
f 98/17/1 95/16/26 93/15/26
f 93/15/27 101/19/4 98/17/4
f 101/19/4 93/15/27 94/15/27
f 103/18/29 99/16/28 102/16/28
f 99/16/28 103/18/29 100/18/29
f 98/17/4 104/15/30 97/15/30
f 104/15/30 98/17/4 101/19/4
f 101/19/2 96/16/31 103/18/2
f 96/16/31 101/19/2 94/15/31
f 96/16/32 100/18/29 103/18/29
f 100/18/29 96/16/32 95/16/32
f 102/16/33 101/19/2 103/18/2
f 101/19/2 102/16/33 104/15/33
f 102/16/29 106/16/29 105/20/29
f 106/16/29 102/16/29 99/16/29
f 97/15/1 106/16/1 99/16/1
f 106/16/1 97/15/1 107/15/1
f 105/20/2 104/15/2 102/16/2
f 104/15/2 105/20/2 108/15/2
f 97/15/4 108/15/4 107/15/4
f 108/15/4 97/15/4 104/15/4
f 110/17/2 105/20/31 109/18/2
f 105/20/31 110/17/2 108/15/31
f 113/15/3 112/16/3 111/16/3
f 112/16/3 113/15/3 114/15/3
f 112/16/34 110/17/2 109/18/2
f 110/17/2 112/16/34 114/15/34
f 111/16/35 115/17/1 113/15/35
f 115/17/1 111/16/35 116/18/1
f 106/16/26 115/17/1 116/18/1
f 115/17/1 106/16/26 107/15/26
f 107/15/27 110/17/4 115/17/4
f 110/17/4 107/15/27 108/15/27
f 115/17/4 114/15/30 113/15/30
f 114/15/30 115/17/4 110/17/4
f 112/16/36 116/18/29 111/16/36
f 116/18/29 112/16/36 109/18/29
f 109/18/29 106/16/37 116/18/29
f 106/16/37 109/18/29 105/20/37

