# Created by Kenney (www.kenney.nl)

mtllib chest.mtl

g chest

v -0.2 0.2 -0.15 1 1 1
v -0.15 0.2 -0.2 1 1 1
v -0.2 0.2 0.15 1 1 1
v -0.15 0.2 0.2 1 1 1
v -0.125 0.2 -0.125 1 1 1
v -0.125 0.2 0.125 1 1 1
v 0.125 0.2 -0.125 1 1 1
v 0.125 0.2 0.125 1 1 1
v 0.15 0.2 -0.2 1 1 1
v 0.15 0.2 0.2 1 1 1
v 0.2 0.2 -0.15 1 1 1
v 0.2 0.2 0.15 1 1 1
v 0.125 0.1 -0.125 1 1 1
v -0.125 0.1 -0.125 1 1 1
v -0.125 0.1 0.125 1 1 1
v 0.125 0.1 0.125 1 1 1
v 0.25 0 0.25 1 1 1
v 0.25 0 0.15 1 1 1
v 0.15 0 0.25 1 1 1
v 0.2 0 0.15 1 1 1
v 0.2 0 -0.15 1 1 1
v 0.15 0 0.2 1 1 1
v 0.15 0 -0.25 1 1 1
v 0.25 0 -0.25 1 1 1
v 0.25 0 -0.15 1 1 1
v 0.15 0 -0.2 1 1 1
v -0.15 0 0.2 1 1 1
v -0.15 0 -0.2 1 1 1
v -0.2 0 0.15 1 1 1
v -0.15 0 -0.25 1 1 1
v -0.25 0 0.25 1 1 1
v -0.15 0 0.25 1 1 1
v -0.25 0 0.15 1 1 1
v -0.2 0 -0.15 1 1 1
v -0.25 0 -0.25 1 1 1
v -0.25 0 -0.15 1 1 1
v -0.25 0.2 0.15 1 1 1
v -0.25 0.2 0.25 1 1 1
v 0.25 0.2 0.15 1 1 1
v 0.25 0.2 0.25 1 1 1
v -0.15 0.2 -0.25 1 1 1
v -0.15 0.2 0.25 1 1 1
v 0.15 0.2 -0.25 1 1 1
v 0.25 0.2 -0.25 1 1 1
v -0.25 0.2 -0.25 1 1 1
v 0.25 0.2 -0.15 1 1 1
v -0.25 0.2 -0.15 1 1 1
v 0.15 0.2 0.25 1 1 1
v 0.15 0.2 0.215 1 1 1
v -0.15 0.2 0.215 1 1 1
v 0.15 0.2 0.2 1 1 1
v -0.15 0.2 0.2 1 1 1
v 0.15 0.1 0.215 1 1 1
v 0.15 0.1 0.2 1 1 1
v -0.15 0.1 0.215 1 1 1
v -0.15 0.1 0.2 1 1 1
v 0.15 0.11 0.225 1 1 1
v -0.15 0.11 0.225 1 1 1
v 0.15 0.19 0.225 1 1 1
v -0.15 0.19 0.225 1 1 1
v 0.15 0.1970711 0.2220711 1 1 1
v -0.15 0.1970711 0.2220711 1 1 1
v 0.15 0.1029289 0.2220711 1 1 1
v -0.15 0.1029289 0.2220711 1 1 1
v 0.215 0.2 -0.15 1 1 1
v 0.2150001 0.2 0.1500001 1 1 1
v 0.2 0.2 -0.15 1 1 1
v 0.2000001 0.2 0.1500001 1 1 1
v 0.215 0.1 -0.15 1 1 1
v 0.2 0.1 -0.15 1 1 1
v 0.2150001 0.1 0.1500001 1 1 1
v 0.2000001 0.1 0.1500001 1 1 1
v 0.2250001 0.11 -0.15 1 1 1
v 0.2250001 0.11 0.1500001 1 1 1
v 0.2250001 0.19 -0.15 1 1 1
v 0.2250001 0.19 0.1500001 1 1 1
v 0.2220711 0.1970711 -0.15 1 1 1
v 0.2220712 0.1970711 0.1500001 1 1 1
v 0.2220711 0.1029289 -0.15 1 1 1
v 0.2220712 0.1029289 0.1500001 1 1 1
v -0.15 0.2 -0.215 1 1 1
v 0.15 0.2 -0.215 1 1 1
v -0.15 0.2 -0.2 1 1 1
v 0.15 0.2 -0.2 1 1 1
v -0.15 0.1 -0.215 1 1 1
v -0.15 0.1 -0.2 1 1 1
v 0.15 0.1 -0.215 1 1 1
v 0.15 0.1 -0.2 1 1 1
v -0.15 0.11 -0.2250001 1 1 1
v 0.15 0.11 -0.2250001 1 1 1
v -0.15 0.19 -0.2250001 1 1 1
v 0.15 0.19 -0.2250001 1 1 1
v -0.15 0.1970711 -0.2220711 1 1 1
v 0.15 0.1970711 -0.2220711 1 1 1
v -0.15 0.1029289 -0.2220711 1 1 1
v 0.15 0.1029289 -0.2220711 1 1 1
v -0.215 0.2 0.15 1 1 1
v -0.215 0.2 -0.1500001 1 1 1
v -0.2 0.2 0.15 1 1 1
v -0.2 0.2 -0.1500001 1 1 1
v -0.215 0.1 0.15 1 1 1
v -0.2 0.1 0.15 1 1 1
v -0.215 0.1 -0.1500001 1 1 1
v -0.2 0.1 -0.1500001 1 1 1
v -0.2250001 0.11 0.15 1 1 1
v -0.225 0.11 -0.1500001 1 1 1
v -0.2250001 0.19 0.15 1 1 1
v -0.225 0.19 -0.1500001 1 1 1
v -0.2220711 0.1970711 0.15 1 1 1
v -0.2220711 0.1970711 -0.1500001 1 1 1
v -0.2220711 0.1029289 0.15 1 1 1
v -0.2220711 0.1029289 -0.1500001 1 1 1

vn 0 1 0
vn 0 0 1
vn 1 0 0
vn -1 0 0
vn 0 0 -1
vn 0 -1 0
vn 0 0.9807853 0.1950903
vn 0 -0.9807853 0.1950903
vn 0 -0.1950903 0.9807853
vn 0 0.1950903 0.9807853
vn 0 0.7071068 0.7071068
vn 0 -0.7071068 0.7071068
vn 0.1950904 0.9807853 -2.325658E-08
vn 0.1950903 -0.9807853 -2.325658E-08
vn 0.9807854 -0.1950903 -1.169187E-07
vn 0.9807854 0.1950903 -1.169187E-07
vn 0.7071068 0.7071068 -8.42937E-08
vn 0.7071068 -0.7071068 -8.42937E-08
vn 2.907586E-09 0.9807853 -0.1950903
vn 2.907585E-09 -0.9807853 -0.1950903
vn 1.461742E-08 -0.1950903 -0.9807853
vn 1.461742E-08 0.1950903 -0.9807853
vn 1.053857E-08 0.7071068 -0.7071068
vn 1.053857E-08 -0.7071068 -0.7071068
vn -0.1950904 0.9807853 -2.325658E-08
vn -0.1950903 -0.9807853 -2.325658E-08
vn -0.9807854 -0.1950903 -1.169187E-07
vn -0.9807854 0.1950903 -1.169187E-07
vn -0.7071068 0.7071068 -8.42937E-08
vn -0.7071068 -0.7071068 -8.42937E-08

vt 0.09375 0.325
vt 0.46875 0.125
vt 0.46875 0.175
vt 0.09375 0.075
vt 0.09375 0.175
vt 0.09375 0.105
vt 0.09375 0.025
vt 0.09375 0.033
vt 0.09375 0.097
vt 0.09375 0.1026569
vt 0.09375 0.02734315
vt 0.21875 0.075
vt 0.21875 0.175

usemtl colormap

f 3/1/1 2/1/1 1/1/1
f 4/1/1 2/1/1 3/1/1
f 5/1/1 2/1/1 4/1/1
f 4/1/1 6/1/1 5/1/1
f 7/1/1 2/1/1 5/1/1
f 4/1/1 8/1/1 6/1/1
f 7/1/1 9/1/1 2/1/1
f 9/1/1 7/1/1 8/1/1
f 10/1/1 8/1/1 4/1/1
f 10/1/1 9/1/1 8/1/1
f 10/1/1 11/1/1 9/1/1
f 11/1/1 10/1/1 12/1/1
f 7/3/2 14/2/2 13/2/2
f 14/2/2 7/3/2 5/3/2
f 6/3/3 14/2/3 5/3/3
f 14/2/3 6/3/3 15/2/3
f 13/2/1 15/2/1 16/2/1
f 15/2/1 13/2/1 14/2/1
f 16/2/4 7/3/4 13/2/4
f 7/3/4 16/2/4 8/3/4
f 6/3/5 16/2/5 15/2/5
f 16/2/5 6/3/5 8/3/5
f 19/4/6 18/4/6 17/4/6
f 18/4/6 19/4/6 20/4/6
f 20/4/6 19/4/6 21/4/6
f 22/4/6 21/4/6 19/4/6
f 23/4/6 21/4/6 22/4/6
f 24/4/6 21/4/6 23/4/6
f 21/4/6 24/4/6 25/4/6
f 23/4/6 22/4/6 26/4/6
f 27/4/6 26/4/6 22/4/6
f 26/4/6 27/4/6 28/4/6
f 27/4/6 29/4/6 28/4/6
f 28/4/6 29/4/6 30/4/6
f 27/4/6 31/4/6 29/4/6
f 31/4/6 27/4/6 32/4/6
f 29/4/6 31/4/6 33/4/6
f 34/4/6 30/4/6 29/4/6
f 30/4/6 34/4/6 35/4/6
f 35/4/6 34/4/6 36/4/6
f 31/4/4 37/5/4 33/4/4
f 37/5/4 31/4/4 38/5/4
f 40/5/3 18/4/3 39/5/3
f 18/4/3 40/5/3 17/4/3
f 12/5/5 18/4/5 20/4/5
f 18/4/5 12/5/5 39/5/5
f 37/5/5 29/4/5 33/4/5
f 29/4/5 37/5/5 3/5/5
f 2/5/3 30/4/3 41/5/3
f 30/4/3 2/5/3 28/4/3
f 42/5/3 27/4/3 4/5/3
f 27/4/3 42/5/3 32/4/3
f 43/5/5 24/4/5 23/4/5
f 24/4/5 43/5/5 44/5/5
f 42/5/2 31/4/2 32/4/2
f 31/4/2 42/5/2 38/5/2
f 45/5/5 30/4/5 35/4/5
f 30/4/5 45/5/5 41/5/5
f 46/5/3 24/4/3 44/5/3
f 24/4/3 46/5/3 25/4/3
f 46/5/2 21/4/2 25/4/2
f 21/4/2 46/5/2 11/5/2
f 36/4/4 45/5/4 35/4/4
f 45/5/4 36/4/4 47/5/4
f 1/5/2 36/4/2 34/4/2
f 36/4/2 1/5/2 47/5/2
f 19/4/4 10/5/4 22/4/4
f 10/5/4 19/4/4 48/5/4
f 26/4/4 43/5/4 23/4/4
f 43/5/4 26/4/4 9/5/4
f 40/5/2 19/4/2 17/4/2
f 19/4/2 40/5/2 48/5/2
f 4/5/1 38/5/1 42/5/1
f 38/5/1 4/5/1 3/5/1
f 38/5/1 3/5/1 37/5/1
f 39/5/1 48/5/1 40/5/1
f 48/5/1 39/5/1 12/5/1
f 48/5/1 12/5/1 10/5/1
f 41/5/1 1/5/1 2/5/1
f 1/5/1 41/5/1 45/5/1
f 1/5/1 45/5/1 47/5/1
f 44/5/1 11/5/1 46/5/1
f 11/5/1 44/5/1 43/5/1
f 11/5/1 43/5/1 9/5/1
f 51/6/1 50/6/7 49/6/7
f 50/6/7 51/6/1 52/6/1
f 55/7/8 54/7/6 53/7/8
f 54/7/6 55/7/8 56/7/6
f 59/9/10 58/8/9 57/8/9
f 58/8/9 59/9/10 60/9/10
f 61/10/11 60/9/10 59/9/10
f 60/9/10 61/10/11 62/10/11
f 49/6/7 62/10/11 61/10/11
f 62/10/11 49/6/7 50/6/7
f 57/8/9 64/11/12 63/11/12
f 64/11/12 57/8/9 58/8/9
f 64/11/12 53/7/8 63/11/12
f 53/7/8 64/11/12 55/7/8
f 67/6/1 66/6/13 65/6/13
f 66/6/13 67/6/1 68/6/1
f 71/7/14 70/7/6 69/7/14
f 70/7/6 71/7/14 72/7/6
f 75/9/16 74/8/15 73/8/15
f 74/8/15 75/9/16 76/9/16
f 77/10/17 76/9/16 75/9/16
f 76/9/16 77/10/17 78/10/17
f 65/6/13 78/10/17 77/10/17
f 78/10/17 65/6/13 66/6/13
f 73/8/15 80/11/18 79/11/18
f 80/11/18 73/8/15 74/8/15
f 80/11/18 69/7/14 79/11/18
f 69/7/14 80/11/18 71/7/14
f 83/6/1 82/6/19 81/6/19
f 82/6/19 83/6/1 84/6/1
f 87/7/20 86/7/6 85/7/20
f 86/7/6 87/7/20 88/7/6
f 91/9/22 90/8/21 89/8/21
f 90/8/21 91/9/22 92/9/22
f 93/10/23 92/9/22 91/9/22
f 92/9/22 93/10/23 94/10/23
f 81/6/19 94/10/23 93/10/23
f 94/10/23 81/6/19 82/6/19
f 89/8/21 96/11/24 95/11/24
f 96/11/24 89/8/21 90/8/21
f 96/11/24 85/7/20 95/11/24
f 85/7/20 96/11/24 87/7/20
f 99/6/1 98/6/25 97/6/25
f 98/6/25 99/6/1 100/6/1
f 103/7/26 102/7/6 101/7/26
f 102/7/6 103/7/26 104/7/6
f 107/9/28 106/8/27 105/8/27
f 106/8/27 107/9/28 108/9/28
f 109/10/29 108/9/28 107/9/28
f 108/9/28 109/10/29 110/10/29
f 97/6/25 110/10/29 109/10/29
f 110/10/29 97/6/25 98/6/25
f 105/8/27 112/11/30 111/11/30
f 112/11/30 105/8/27 106/8/27
f 112/11/30 101/7/26 111/11/30
f 101/7/26 112/11/30 103/7/26
f 10/13/2 27/12/2 22/12/2
f 27/12/2 10/13/2 4/13/2
f 29/12/4 1/13/4 34/12/4
f 1/13/4 29/12/4 3/13/4
f 12/13/3 21/12/3 11/13/3
f 21/12/3 12/13/3 20/12/3
f 2/13/5 26/12/5 28/12/5
f 26/12/5 2/13/5 9/13/5

g chest




usemtl colormap

f 3/1/1 2/1/1 1/1/1
f 4/1/1 2/1/1 3/1/1
f 5/1/1 2/1/1 4/1/1
f 4/1/1 6/1/1 5/1/1
f 7/1/1 2/1/1 5/1/1
f 4/1/1 8/1/1 6/1/1
f 7/1/1 9/1/1 2/1/1
f 9/1/1 7/1/1 8/1/1
f 10/1/1 8/1/1 4/1/1
f 10/1/1 9/1/1 8/1/1
f 10/1/1 11/1/1 9/1/1
f 11/1/1 10/1/1 12/1/1
f 7/3/2 14/2/2 13/2/2
f 14/2/2 7/3/2 5/3/2
f 6/3/3 14/2/3 5/3/3
f 14/2/3 6/3/3 15/2/3
f 13/2/1 15/2/1 16/2/1
f 15/2/1 13/2/1 14/2/1
f 16/2/4 7/3/4 13/2/4
f 7/3/4 16/2/4 8/3/4
f 6/3/5 16/2/5 15/2/5
f 16/2/5 6/3/5 8/3/5
f 19/4/6 18/4/6 17/4/6
f 18/4/6 19/4/6 20/4/6
f 20/4/6 19/4/6 21/4/6
f 22/4/6 21/4/6 19/4/6
f 23/4/6 21/4/6 22/4/6
f 24/4/6 21/4/6 23/4/6
f 21/4/6 24/4/6 25/4/6
f 23/4/6 22/4/6 26/4/6
f 27/4/6 26/4/6 22/4/6
f 26/4/6 27/4/6 28/4/6
f 27/4/6 29/4/6 28/4/6
f 28/4/6 29/4/6 30/4/6
f 27/4/6 31/4/6 29/4/6
f 31/4/6 27/4/6 32/4/6
f 29/4/6 31/4/6 33/4/6
f 34/4/6 30/4/6 29/4/6
f 30/4/6 34/4/6 35/4/6
f 35/4/6 34/4/6 36/4/6
f 31/4/4 37/5/4 33/4/4
f 37/5/4 31/4/4 38/5/4
f 40/5/3 18/4/3 39/5/3
f 18/4/3 40/5/3 17/4/3
f 12/5/5 18/4/5 20/4/5
f 18/4/5 12/5/5 39/5/5
f 37/5/5 29/4/5 33/4/5
f 29/4/5 37/5/5 3/5/5
f 2/5/3 30/4/3 41/5/3
f 30/4/3 2/5/3 28/4/3
f 42/5/3 27/4/3 4/5/3
f 27/4/3 42/5/3 32/4/3
f 43/5/5 24/4/5 23/4/5
f 24/4/5 43/5/5 44/5/5
f 42/5/2 31/4/2 32/4/2
f 31/4/2 42/5/2 38/5/2
f 45/5/5 30/4/5 35/4/5
f 30/4/5 45/5/5 41/5/5
f 46/5/3 24/4/3 44/5/3
f 24/4/3 46/5/3 25/4/3
f 46/5/2 21/4/2 25/4/2
f 21/4/2 46/5/2 11/5/2
f 36/4/4 45/5/4 35/4/4
f 45/5/4 36/4/4 47/5/4
f 1/5/2 36/4/2 34/4/2
f 36/4/2 1/5/2 47/5/2
f 19/4/4 10/5/4 22/4/4
f 10/5/4 19/4/4 48/5/4
f 26/4/4 43/5/4 23/4/4
f 43/5/4 26/4/4 9/5/4
f 40/5/2 19/4/2 17/4/2
f 19/4/2 40/5/2 48/5/2
f 4/5/1 38/5/1 42/5/1
f 38/5/1 4/5/1 3/5/1
f 38/5/1 3/5/1 37/5/1
f 39/5/1 48/5/1 40/5/1
f 48/5/1 39/5/1 12/5/1
f 48/5/1 12/5/1 10/5/1
f 41/5/1 1/5/1 2/5/1
f 1/5/1 41/5/1 45/5/1
f 1/5/1 45/5/1 47/5/1
f 44/5/1 11/5/1 46/5/1
f 11/5/1 44/5/1 43/5/1
f 11/5/1 43/5/1 9/5/1
f 51/6/1 50/6/7 49/6/7
f 50/6/7 51/6/1 52/6/1
f 55/7/8 54/7/6 53/7/8
f 54/7/6 55/7/8 56/7/6
f 59/9/10 58/8/9 57/8/9
f 58/8/9 59/9/10 60/9/10
f 61/10/11 60/9/10 59/9/10
f 60/9/10 61/10/11 62/10/11
f 49/6/7 62/10/11 61/10/11
f 62/10/11 49/6/7 50/6/7
f 57/8/9 64/11/12 63/11/12
f 64/11/12 57/8/9 58/8/9
f 64/11/12 53/7/8 63/11/12
f 53/7/8 64/11/12 55/7/8
f 67/6/1 66/6/13 65/6/13
f 66/6/13 67/6/1 68/6/1
f 71/7/14 70/7/6 69/7/14
f 70/7/6 71/7/14 72/7/6
f 75/9/16 74/8/15 73/8/15
f 74/8/15 75/9/16 76/9/16
f 77/10/17 76/9/16 75/9/16
f 76/9/16 77/10/17 78/10/17
f 65/6/13 78/10/17 77/10/17
f 78/10/17 65/6/13 66/6/13
f 73/8/15 80/11/18 79/11/18
f 80/11/18 73/8/15 74/8/15
f 80/11/18 69/7/14 79/11/18
f 69/7/14 80/11/18 71/7/14
f 83/6/1 82/6/19 81/6/19
f 82/6/19 83/6/1 84/6/1
f 87/7/20 86/7/6 85/7/20
f 86/7/6 87/7/20 88/7/6
f 91/9/22 90/8/21 89/8/21
f 90/8/21 91/9/22 92/9/22
f 93/10/23 92/9/22 91/9/22
f 92/9/22 93/10/23 94/10/23
f 81/6/19 94/10/23 93/10/23
f 94/10/23 81/6/19 82/6/19
f 89/8/21 96/11/24 95/11/24
f 96/11/24 89/8/21 90/8/21
f 96/11/24 85/7/20 95/11/24
f 85/7/20 96/11/24 87/7/20
f 99/6/1 98/6/25 97/6/25
f 98/6/25 99/6/1 100/6/1
f 103/7/26 102/7/6 101/7/26
f 102/7/6 103/7/26 104/7/6
f 107/9/28 106/8/27 105/8/27
f 106/8/27 107/9/28 108/9/28
f 109/10/29 108/9/28 107/9/28
f 108/9/28 109/10/29 110/10/29
f 97/6/25 110/10/29 109/10/29
f 110/10/29 97/6/25 98/6/25
f 105/8/27 112/11/30 111/11/30
f 112/11/30 105/8/27 106/8/27
f 112/11/30 101/7/26 111/11/30
f 101/7/26 112/11/30 103/7/26
f 10/13/2 27/12/2 22/12/2
f 27/12/2 10/13/2 4/13/2
f 29/12/4 1/13/4 34/12/4
f 1/13/4 29/12/4 3/13/4
f 12/13/3 21/12/3 11/13/3
f 21/12/3 12/13/3 20/12/3
f 2/13/5 26/12/5 28/12/5
f 26/12/5 2/13/5 9/13/5

g lid

v -0.25 0.325 -0.2165063 1 1 1
v -0.25 0.4165064 -0.125 1 1 1
v -0.25 0.306066 -0.106066 1 1 1
v -0.25 0.45 0 1 1 1
v -0.25 0.35 0 1 1 1
v -0.25 0.306066 0.106066 1 1 1
v -0.25 0.4165064 0.125 1 1 1
v -0.25 0.2 0.15 1 1 1
v -0.25 0.325 0.2165063 1 1 1
v -0.25 0.2 0.25 1 1 1
v 0.25 0.2 0.25 1 1 1
v 0.15 0.2 0.25 1 1 1
v 0.25 0.325 0.2165063 1 1 1
v 0.15 0.325 0.2165063 1 1 1
v -0.15 0.45 0 1 1 1
v -0.15 0.4165064 0.125 1 1 1
v -0.15 0.2 0.25 1 1 1
v -0.15 0.325 0.2165063 1 1 1
v 0.05 0.25 0.1866025 1 1 1
v 0.05 0.2 0.2 1 1 1
v 0.05 0.25 0.25 1 1 1
v 0.05 0.15 0.2 1 1 1
v 0.05 0.15 0.25 1 1 1
v -0.05 0.15 0.2 1 1 1
v -0.05 0.2 0.2 1 1 1
v -0.05 0.15 0.25 1 1 1
v -0.05 0.25 0.25 1 1 1
v -0.05 0.25 0.1866025 1 1 1
v 0.25 0.45 0 1 1 1
v 0.25 0.4165064 0.125 1 1 1
v 0.15 0.45 0 1 1 1
v 0.15 0.4165064 0.125 1 1 1
v 0.15 0.325 -0.2165063 1 1 1
v 0.25 0.325 -0.2165063 1 1 1
v -0.2 0.2 0.15 1 1 1
v -0.2 0.306066 0.106066 1 1 1
v -0.15 0.4165064 -0.125 1 1 1
v -0.2 0.306066 -0.106066 1 1 1
v -0.2 0.35 0 1 1 1
v 0.25 0.4165064 -0.125 1 1 1
v 0.15 0.4165064 -0.125 1 1 1
v -0.15 0.325 -0.2165063 1 1 1
v 0.25 0.35 0 1 1 1
v 0.2 0.35 0 1 1 1
v 0.25 0.306066 0.106066 1 1 1
v 0.2 0.306066 0.106066 1 1 1
v 0.25 0.306066 -0.106066 1 1 1
v 0.2 0.306066 -0.106066 1 1 1
v -0.15 0.3 -0.1732051 1 1 1
v -0.15 0.3732051 -0.1 1 1 1
v -0.15 0.4 0 1 1 1
v -0.15 0.3732051 0.1 1 1 1
v -0.15 0.3 0.1732051 1 1 1
v 0.2 0.2 0.15 1 1 1
v 0.25 0.2 0.15 1 1 1
v 0.15 0.3 -0.1732051 1 1 1
v 0.15 0.3732051 -0.1 1 1 1
v 0.15 0.4 0 1 1 1
v 0.15 0.3732051 0.1 1 1 1
v 0.15 0.3 0.1732051 1 1 1
v 0.2 0.2 -0.15 1 1 1
v 0.15 0.2 -0.2 1 1 1
v 0.15 0.2 0.2 1 1 1
v -0.15 0.2 -0.2 1 1 1
v 0.05 0.2 0.2 1 1 1
v -0.05 0.2 0.2 1 1 1
v -0.15 0.2 0.2 1 1 1
v -0.2 0.2 -0.15 1 1 1

vn 0 0.258819 0.9659258
vn 0 0.5 0.8660254
vn 0 0.8660254 0.5
vn 0.6401844 0.7682213 0
vn 0.7071068 0.7071068 0
vn 0.7071068 -0.7071068 0
vn -0.7071068 -0.7071068 0
vn -0.7071068 0.7071068 0
vn -0.6401844 0.7682213 0
vn 0 0.258819 -0.9659258
vn 0 0.5 -0.8660254
vn 0 -0.3826834 -0.9238795
vn 0 -0.7071068 -0.7071068
vn 0 0.8660254 -0.5
vn 0 -0.3826834 0.9238795

vt 0.09375 0.145
vt 0.09375 0.185
vt 0.09375 0.214282
vt 0.09375 0.1789411
vt 0.09375 0.225
vt 0.09375 0.193
vt 0.09375 0.161
vt 0.09375 0.177
vt 0.09375 0.2004256
vt 0.09375 0.209
vt 0.21875 0.145
vt 0.21875 0.177
vt 0.21875 0.161
vt 0.21875 0.2004256
vt 0.21875 0.209
vt 0.21875 0.1789411
vt 0.21875 0.193
vt 0.09375 0.275

usemtl colormap

f 47/14/4 113/15/4 45/14/4
f 113/15/4 47/14/4 114/16/4
f 114/16/4 47/14/4 115/17/4
f 114/16/4 115/17/4 116/18/4
f 116/18/4 115/17/4 117/19/4
f 116/18/4 117/19/4 118/17/4
f 116/18/4 118/17/4 119/16/4
f 119/16/4 118/17/4 120/14/4
f 119/16/4 120/14/4 121/15/4
f 121/15/4 120/14/4 122/14/4
f 125/15/32 124/14/31 123/14/31
f 124/14/31 125/15/32 126/15/32
f 116/18/1 128/16/33 127/18/1
f 128/16/33 116/18/1 119/16/33
f 130/15/32 122/14/31 129/14/31
f 122/14/31 130/15/32 121/15/32
f 133/20/35 132/14/3 131/20/34
f 132/14/3 133/20/35 134/14/36
f 134/14/36 133/20/35 135/14/36
f 138/14/37 137/14/4 136/14/37
f 139/20/38 137/14/4 138/14/37
f 137/14/4 139/20/38 140/20/39
f 143/18/1 142/16/33 141/18/1
f 142/16/33 143/18/1 144/16/33
f 142/16/33 126/15/32 125/15/32
f 126/15/32 142/16/33 144/16/33
f 145/15/41 44/14/40 43/14/40
f 44/14/40 145/15/41 146/15/41
f 118/17/43 147/14/42 120/14/42
f 147/14/42 118/17/43 148/17/43
f 133/20/2 138/14/2 135/14/2
f 138/14/2 133/20/2 139/20/2
f 137/14/5 134/14/5 136/14/5
f 134/14/5 137/14/5 132/14/5
f 114/16/44 127/18/1 149/16/44
f 127/18/1 114/16/44 116/18/1
f 140/20/39 133/20/35 131/20/34
f 133/20/35 140/20/39 139/20/38
f 151/19/6 115/17/12 150/17/12
f 115/17/12 151/19/6 117/19/6
f 153/16/44 141/18/1 152/16/44
f 141/18/1 153/16/44 143/18/1
f 114/16/44 154/15/41 113/15/41
f 154/15/41 114/16/44 149/16/44
f 157/17/43 156/19/6 155/19/6
f 156/19/6 157/17/43 158/17/43
f 159/17/12 11/14/45 46/14/45
f 11/14/45 159/17/12 160/17/12
f 155/19/6 160/17/12 159/17/12
f 160/17/12 155/19/6 156/19/6
f 135/14/36 136/14/37 134/14/36
f 136/14/37 135/14/36 138/14/37
f 154/15/3 2/14/3 41/14/3
f 2/14/3 154/15/3 161/21/3
f 161/21/3 154/15/3 149/16/3
f 161/21/3 149/16/3 162/22/3
f 162/22/3 149/16/3 127/18/3
f 162/22/3 127/18/3 163/23/3
f 163/23/3 127/18/3 128/16/3
f 163/23/3 128/16/3 164/22/3
f 164/22/3 128/16/3 165/21/3
f 165/21/3 128/16/3 130/15/3
f 165/21/3 130/15/3 4/14/3
f 4/14/3 130/15/3 129/14/3
f 128/16/33 121/15/32 130/15/32
f 121/15/32 128/16/33 119/16/33
f 113/15/41 41/14/40 45/14/40
f 41/14/40 113/15/41 154/15/41
f 158/17/43 167/14/42 166/14/42
f 167/14/42 158/17/43 157/17/43
f 9/14/4 145/15/4 43/14/4
f 145/15/4 9/14/4 168/21/4
f 145/15/4 168/21/4 153/16/4
f 153/16/4 168/21/4 169/22/4
f 153/16/4 169/22/4 143/18/4
f 143/18/4 169/22/4 170/23/4
f 143/18/4 170/23/4 171/22/4
f 143/18/4 171/22/4 144/16/4
f 144/16/4 171/22/4 172/21/4
f 144/16/4 172/21/4 126/15/4
f 126/15/4 172/21/4 10/14/4
f 126/15/4 10/14/4 124/14/4
f 146/15/3 46/14/3 44/14/3
f 46/14/3 146/15/3 152/16/3
f 46/14/3 152/16/3 159/17/3
f 159/17/3 152/16/3 141/18/3
f 159/17/3 141/18/3 155/19/3
f 155/19/3 141/18/3 157/17/3
f 157/17/3 141/18/3 142/16/3
f 157/17/3 142/16/3 167/14/3
f 167/14/3 142/16/3 125/15/3
f 167/14/3 125/15/3 123/14/3
f 148/17/43 117/19/6 151/19/6
f 117/19/6 148/17/43 118/17/43
f 150/17/12 47/14/45 1/14/45
f 47/14/45 150/17/12 115/17/12
f 153/16/44 146/15/41 145/15/41
f 146/15/41 153/16/44 152/16/44
f 129/14/6 147/14/6 4/14/6
f 147/14/6 129/14/6 122/14/6
f 147/14/6 122/14/6 120/14/6
f 2/14/6 45/14/6 41/14/6
f 45/14/6 2/14/6 1/14/6
f 45/14/6 1/14/6 47/14/6
f 46/14/6 43/14/6 44/14/6
f 43/14/6 46/14/6 11/14/6
f 43/14/6 11/14/6 9/14/6
f 123/14/6 166/14/6 167/14/6
f 166/14/6 123/14/6 124/14/6
f 166/14/6 124/14/6 10/14/6
f 2/24/40 168/25/41 9/24/40
f 168/25/41 2/24/40 161/25/41
f 172/25/32 132/24/31 10/24/31
f 132/24/31 172/25/32 131/26/31
f 131/26/31 172/25/32 140/26/31
f 165/25/32 140/26/31 172/25/32
f 4/24/31 140/26/31 165/25/32
f 140/26/31 4/24/31 137/24/31
f 162/27/44 170/28/1 169/27/44
f 170/28/1 162/27/44 163/28/1
f 163/28/1 171/27/33 170/28/1
f 171/27/33 163/28/1 164/27/33
f 171/27/33 165/25/32 172/25/32
f 165/25/32 171/27/33 164/27/33
f 161/25/41 169/27/44 168/25/41
f 169/27/44 161/25/41 162/27/44
f 160/29/3 166/24/3 11/24/3
f 166/24/3 160/29/3 156/30/3
f 166/24/3 156/30/3 158/29/3
f 147/24/4 150/29/4 1/24/4
f 150/29/4 147/24/4 151/30/4
f 151/30/4 147/24/4 148/29/4
f 166/31/6 174/31/6 173/31/6
f 174/31/6 166/31/6 175/31/6
f 174/31/6 175/31/6 176/31/6
f 176/31/6 175/31/6 177/31/6
f 176/31/6 177/31/6 178/31/6
f 176/31/6 178/31/6 179/31/6
f 176/31/6 179/31/6 180/31/6
f 180/31/6 179/31/6 147/31/6

