# Created by Kenney (www.kenney.nl)

mtllib column.mtl

g column

v 0.25 0 6.499351E-16 1 1 1
v 0.2083333 0 -0.2083333 1 1 1
v 0.2083333 0 0.2083333 1 1 1
v -1.546953E-16 0 0.25 1 1 1
v -1.546953E-16 0 -0.25 1 1 1
v -0.2083333 0 0.2083333 1 1 1
v -0.2083333 0 -0.2083333 1 1 1
v -0.25 0 6.499351E-16 1 1 1
v -0.2083333 0.16 -0.2083333 1 1 1
v -1.546953E-16 0.16 -0.25 1 1 1
v 0.2083333 0.16 -0.2083333 1 1 1
v 0.25 0.16 3.383959E-16 1 1 1
v 0.2083333 0.16 0.2083333 1 1 1
v -1.546953E-16 0.16 0.25 1 1 1
v -0.2083333 0.16 0.2083333 1 1 1
v -0.25 0.16 3.609557E-16 1 1 1
v 0.2092078 0.2 3.553157E-16 1 1 1
v 0.1743399 0.2 0.1743399 1 1 1
v 0.1743399 0.2 -0.1743399 1 1 1
v -1.546953E-16 0.2 -0.2092078 1 1 1
v -1.546953E-16 0.2 0.2092078 1 1 1
v -0.1743399 0.2 -0.1743399 1 1 1
v -0.1743399 0.2 0.1743399 1 1 1
v -0.2092078 0.2 5.132339E-16 1 1 1
v 0.25 1.1 1.826264E-17 1 1 1
v 0.2083333 1.1 0.2083333 1 1 1
v 0.2083333 1.1 -0.2083333 1 1 1
v 2.011039E-15 1.1 -0.25 1 1 1
v 2.011039E-15 1.1 0.25 1 1 1
v -0.2083333 1.1 -0.2083333 1 1 1
v -0.2083333 1.1 0.2083333 1 1 1
v -0.25 1.1 1.826264E-17 1 1 1
v 0.25 0.94 -3.045564E-16 1 1 1
v 0.2083333 0.94 0.2083333 1 1 1
v 2.011039E-15 0.94 0.25 1 1 1
v -0.2083333 0.94 0.2083333 1 1 1
v -0.2083333 0.94 -0.2083333 1 1 1
v 2.011039E-15 0.94 -0.25 1 1 1
v 0.2083333 0.94 -0.2083333 1 1 1
v -0.25 0.94 2.255973E-17 1 1 1
v 0.2092078 0.9 -2.876366E-16 1 1 1
v 0.1743399 0.9 -0.1743399 1 1 1
v 0.1743399 0.9 0.1743399 1 1 1
v 2.011039E-15 0.9 0.2092078 1 1 1
v 2.011039E-15 0.9 -0.2092078 1 1 1
v -0.1743399 0.9 0.1743399 1 1 1
v -0.1743399 0.9 -0.1743399 1 1 1
v -0.2092078 0.9 2.255973E-17 1 1 1
v -0.1825 0.9 6.718288E-16 1 1 1
v -0.1520833 0.9 0.1520833 1 1 1
v -0.1606 0.2 7.377032E-16 1 1 1
v -0.1338333 0.2 0.1338333 1 1 1
v 0.1825 0.9 6.718288E-16 1 1 1
v 0.1606 0.2 7.377032E-16 1 1 1
v 0.1520833 0.9 0.1520833 1 1 1
v 0.1338333 0.2 0.1338333 1 1 1
v -0.1338333 0.2 -0.1338333 1 1 1
v 1.288612E-15 0.2 -0.1606 1 1 1
v -0.1520833 0.9 -0.1520833 1 1 1
v -8.193695E-16 0.9 -0.1825 1 1 1
v 0.1520833 0.9 -0.1520833 1 1 1
v 0.1338333 0.2 -0.1338333 1 1 1
v 1.288612E-15 0.2 0.1606 1 1 1
v -8.193695E-16 0.9 0.1825 1 1 1

vn 0 -1 0
vn -0.1961161 0 -0.9805807
vn 0 0 -1
vn -0.6483003 0.3992662 -0.6483003
vn 0 0.3880908 -0.9216211
vn 0.1961161 0 -0.9805807
vn 0.6483003 0.3992662 -0.6483003
vn 0.9805807 0 -0.1961161
vn 0.9216211 0.3880908 0
vn 1 0 0
vn 0.6483003 0.3992662 0.6483003
vn 0.9805807 0 0.1961161
vn 0.1961161 0 0.9805807
vn 0 0 1
vn 0 0.3880908 0.9216211
vn -0.1961161 0 0.9805807
vn -0.6483003 0.3992662 0.6483003
vn -0.9216211 0.3880908 0
vn -1 0 0
vn -0.9805807 0 0.1961161
vn -0.9805807 0 -0.1961161
vn 0.3984803 0.9171768 0
vn 0.3003581 0.9053011 0.3003581
vn 0.3003581 0.9053011 -0.3003581
vn 0 0.9171768 -0.3984803
vn 0 0.9171768 0.3984803
vn -0.3003581 0.9053011 -0.3003581
vn -0.3003581 0.9053011 0.3003581
vn -0.3984803 0.9171768 0
vn 0 1 0
vn 0.9216211 -0.3880908 0
vn 0.6483003 -0.3992662 0.6483003
vn 0 -0.3880908 0.9216211
vn -0.6483003 -0.3992662 0.6483003
vn -0.6483003 -0.3992662 -0.6483003
vn 0 -0.3880908 -0.9216211
vn 0.6483003 -0.3992662 -0.6483003
vn -0.9216211 -0.3880908 0
vn 0.3984803 -0.9171768 0
vn 0.3003581 -0.9053011 -0.3003581
vn 0.3003581 -0.9053011 0.3003581
vn 0 -0.9171768 0.3984803
vn 0 -0.9171768 -0.3984803
vn -0.3003581 -0.9053011 0.3003581
vn -0.3003581 -0.9053011 -0.3003581
vn -0.3984803 -0.9171768 0
vn -0.999511 -0.03127041 0
vn -0.9801195 -0.03066374 0.1960239
vn 0.999511 -0.03127041 0
vn 0.9801195 -0.03066374 0.1960239
vn -0.1960239 -0.03066374 -0.9801195
vn 0 -0.03127041 -0.999511
vn 0.9801195 -0.03066374 -0.1960239
vn 0.1960239 -0.03066374 -0.9801195
vn -0.9801195 -0.03066374 -0.1960239
vn 0 -0.03127041 0.999511
vn -0.1960239 -0.03066374 0.9801195
vn 0.1960239 -0.03066374 0.9801195

vt 0.84375 0.075
vt 0.84375 0.155
vt 0.84375 0.175
vt 0.84375 0.095
vt 0.59375 0.075
vt 0.59375 0.175

usemtl colormap

f 3/1/1 2/1/1 1/1/1
f 2/1/1 3/1/1 4/1/1
f 2/1/1 4/1/1 5/1/1
f 5/1/1 4/1/1 6/1/1
f 5/1/1 6/1/1 7/1/1
f 7/1/1 6/1/1 8/1/1
f 9/2/4 5/1/3 7/1/2
f 5/1/3 9/2/4 10/2/5
f 10/2/5 2/1/6 5/1/3
f 2/1/6 10/2/5 11/2/7
f 12/2/9 2/1/8 11/2/7
f 2/1/8 12/2/9 1/1/10
f 13/2/11 1/1/10 12/2/9
f 1/1/10 13/2/11 3/1/12
f 13/2/11 4/1/14 3/1/13
f 4/1/14 13/2/11 14/2/15
f 14/2/15 6/1/16 4/1/14
f 6/1/16 14/2/15 15/2/17
f 8/1/19 15/2/17 16/2/18
f 15/2/17 8/1/19 6/1/20
f 7/1/21 16/2/18 9/2/4
f 16/2/18 7/1/21 8/1/19
f 19/3/24 18/3/23 17/3/22
f 18/3/23 19/3/24 20/3/25
f 18/3/23 20/3/25 21/3/26
f 21/3/26 20/3/25 22/3/27
f 21/3/26 22/3/27 23/3/28
f 23/3/28 22/3/27 24/3/29
f 19/3/24 12/2/9 11/2/7
f 12/2/9 19/3/24 17/3/22
f 16/2/18 22/3/27 9/2/4
f 22/3/27 16/2/18 24/3/29
f 22/3/27 10/2/5 9/2/4
f 10/2/5 22/3/27 20/3/25
f 21/3/26 15/2/17 14/2/15
f 15/2/17 21/3/26 23/3/28
f 15/2/17 24/3/29 16/2/18
f 24/3/29 15/2/17 23/3/28
f 18/3/23 14/2/15 13/2/11
f 14/2/15 18/3/23 21/3/26
f 20/3/25 11/2/7 10/2/5
f 11/2/7 20/3/25 19/3/24
f 17/3/22 13/2/11 12/2/9
f 13/2/11 17/3/22 18/3/23
f 27/3/30 26/3/30 25/3/30
f 26/3/30 27/3/30 28/3/30
f 26/3/30 28/3/30 29/3/30
f 29/3/30 28/3/30 30/3/30
f 29/3/30 30/3/30 31/3/30
f 31/3/30 30/3/30 32/3/30
f 25/3/10 34/4/32 33/4/31
f 34/4/32 25/3/10 26/3/12
f 26/3/13 35/4/33 34/4/32
f 35/4/33 26/3/13 29/3/14
f 29/3/14 36/4/34 35/4/33
f 36/4/34 29/3/14 31/3/16
f 30/3/2 38/4/36 37/4/35
f 38/4/36 30/3/2 28/3/3
f 28/3/3 39/4/37 38/4/36
f 39/4/37 28/3/3 27/3/6
f 25/3/10 39/4/37 27/3/8
f 39/4/37 25/3/10 33/4/31
f 40/4/38 31/3/20 32/3/19
f 31/3/20 40/4/38 36/4/34
f 43/1/41 42/1/40 41/1/39
f 42/1/40 43/1/41 44/1/42
f 42/1/40 44/1/42 45/1/43
f 45/1/43 44/1/42 46/1/44
f 45/1/43 46/1/44 47/1/45
f 47/1/45 46/1/44 48/1/46
f 40/4/38 30/3/21 37/4/35
f 30/3/21 40/4/38 32/3/19
f 34/4/32 41/1/39 33/4/31
f 41/1/39 34/4/32 43/1/41
f 47/1/45 40/4/38 37/4/35
f 40/4/38 47/1/45 48/1/46
f 46/1/44 40/4/38 48/1/46
f 40/4/38 46/1/44 36/4/34
f 38/4/36 42/1/40 45/1/43
f 42/1/40 38/4/36 39/4/37
f 33/4/31 42/1/40 39/4/37
f 42/1/40 33/4/31 41/1/39
f 34/4/32 44/1/42 43/1/41
f 44/1/42 34/4/32 35/4/33
f 35/4/33 46/1/44 44/1/42
f 46/1/44 35/4/33 36/4/34
f 37/4/35 45/1/43 47/1/45
f 45/1/43 37/4/35 38/4/36
f 51/6/47 50/5/48 49/5/47
f 50/5/48 51/6/47 52/6/48
f 55/5/50 54/6/49 53/5/49
f 54/6/49 55/5/50 56/6/50
f 59/5/51 58/6/52 57/6/51
f 58/6/52 59/5/51 60/5/52
f 53/5/49 62/6/53 61/5/53
f 62/6/53 53/5/49 54/6/49
f 60/5/52 62/6/54 58/6/52
f 62/6/54 60/5/52 61/5/54
f 57/6/55 49/5/47 59/5/55
f 49/5/47 57/6/55 51/6/47
f 64/5/56 52/6/57 63/6/56
f 52/6/57 64/5/56 50/5/57
f 55/5/58 63/6/56 56/6/58
f 63/6/56 55/5/58 64/5/56

g column




usemtl colormap

f 3/1/1 2/1/1 1/1/1
f 2/1/1 3/1/1 4/1/1
f 2/1/1 4/1/1 5/1/1
f 5/1/1 4/1/1 6/1/1
f 5/1/1 6/1/1 7/1/1
f 7/1/1 6/1/1 8/1/1
f 9/2/4 5/1/3 7/1/2
f 5/1/3 9/2/4 10/2/5
f 10/2/5 2/1/6 5/1/3
f 2/1/6 10/2/5 11/2/7
f 12/2/9 2/1/8 11/2/7
f 2/1/8 12/2/9 1/1/10
f 13/2/11 1/1/10 12/2/9
f 1/1/10 13/2/11 3/1/12
f 13/2/11 4/1/14 3/1/13
f 4/1/14 13/2/11 14/2/15
f 14/2/15 6/1/16 4/1/14
f 6/1/16 14/2/15 15/2/17
f 8/1/19 15/2/17 16/2/18
f 15/2/17 8/1/19 6/1/20
f 7/1/21 16/2/18 9/2/4
f 16/2/18 7/1/21 8/1/19
f 19/3/24 18/3/23 17/3/22
f 18/3/23 19/3/24 20/3/25
f 18/3/23 20/3/25 21/3/26
f 21/3/26 20/3/25 22/3/27
f 21/3/26 22/3/27 23/3/28
f 23/3/28 22/3/27 24/3/29
f 19/3/24 12/2/9 11/2/7
f 12/2/9 19/3/24 17/3/22
f 16/2/18 22/3/27 9/2/4
f 22/3/27 16/2/18 24/3/29
f 22/3/27 10/2/5 9/2/4
f 10/2/5 22/3/27 20/3/25
f 21/3/26 15/2/17 14/2/15
f 15/2/17 21/3/26 23/3/28
f 15/2/17 24/3/29 16/2/18
f 24/3/29 15/2/17 23/3/28
f 18/3/23 14/2/15 13/2/11
f 14/2/15 18/3/23 21/3/26
f 20/3/25 11/2/7 10/2/5
f 11/2/7 20/3/25 19/3/24
f 17/3/22 13/2/11 12/2/9
f 13/2/11 17/3/22 18/3/23
f 27/3/30 26/3/30 25/3/30
f 26/3/30 27/3/30 28/3/30
f 26/3/30 28/3/30 29/3/30
f 29/3/30 28/3/30 30/3/30
f 29/3/30 30/3/30 31/3/30
f 31/3/30 30/3/30 32/3/30
f 25/3/10 34/4/32 33/4/31
f 34/4/32 25/3/10 26/3/12
f 26/3/13 35/4/33 34/4/32
f 35/4/33 26/3/13 29/3/14
f 29/3/14 36/4/34 35/4/33
f 36/4/34 29/3/14 31/3/16
f 30/3/2 38/4/36 37/4/35
f 38/4/36 30/3/2 28/3/3
f 28/3/3 39/4/37 38/4/36
f 39/4/37 28/3/3 27/3/6
f 25/3/10 39/4/37 27/3/8
f 39/4/37 25/3/10 33/4/31
f 40/4/38 31/3/20 32/3/19
f 31/3/20 40/4/38 36/4/34
f 43/1/41 42/1/40 41/1/39
f 42/1/40 43/1/41 44/1/42
f 42/1/40 44/1/42 45/1/43
f 45/1/43 44/1/42 46/1/44
f 45/1/43 46/1/44 47/1/45
f 47/1/45 46/1/44 48/1/46
f 40/4/38 30/3/21 37/4/35
f 30/3/21 40/4/38 32/3/19
f 34/4/32 41/1/39 33/4/31
f 41/1/39 34/4/32 43/1/41
f 47/1/45 40/4/38 37/4/35
f 40/4/38 47/1/45 48/1/46
f 46/1/44 40/4/38 48/1/46
f 40/4/38 46/1/44 36/4/34
f 38/4/36 42/1/40 45/1/43
f 42/1/40 38/4/36 39/4/37
f 33/4/31 42/1/40 39/4/37
f 42/1/40 33/4/31 41/1/39
f 34/4/32 44/1/42 43/1/41
f 44/1/42 34/4/32 35/4/33
f 35/4/33 46/1/44 44/1/42
f 46/1/44 35/4/33 36/4/34
f 37/4/35 45/1/43 47/1/45
f 45/1/43 37/4/35 38/4/36
f 51/6/47 50/5/48 49/5/47
f 50/5/48 51/6/47 52/6/48
f 55/5/50 54/6/49 53/5/49
f 54/6/49 55/5/50 56/6/50
f 59/5/51 58/6/52 57/6/51
f 58/6/52 59/5/51 60/5/52
f 53/5/49 62/6/53 61/5/53
f 62/6/53 53/5/49 54/6/49
f 60/5/52 62/6/54 58/6/52
f 62/6/54 60/5/52 61/5/54
f 57/6/55 49/5/47 59/5/55
f 49/5/47 57/6/55 51/6/47
f 64/5/56 52/6/57 63/6/56
f 52/6/57 64/5/56 50/5/57
f 55/5/58 63/6/56 56/6/58
f 63/6/56 55/5/58 64/5/56

