# Created by Kenney (www.kenney.nl)

mtllib key.mtl

g key

v -0.02848001 0.178 -0.059185 1 1 1
v 0.29548 0.178 -0.059185 1 1 1
v -0.02848001 0.2198501 -0.04185012 1 1 1
v 0.29548 0.2198501 -0.04185012 1 1 1
v 0.29548 0.118815 -3.49817E-10 1 1 1
v 0.29548 0.1361499 -0.04185012 1 1 1
v -0.02848001 0.118815 -3.49817E-10 1 1 1
v -0.02848001 0.1361499 -0.04185012 1 1 1
v 0.29548 0.237185 -3.49817E-10 1 1 1
v 0.29548 0.2198501 0.04185012 1 1 1
v 0.29548 0.1361499 0.04185012 1 1 1
v 0.29548 0.178 0.059185 1 1 1
v -0.02848001 0.237185 -3.49817E-10 1 1 1
v -0.02848001 0.1361499 0.04185012 1 1 1
v -0.02848001 0.2198501 0.04185012 1 1 1
v -0.02848001 0.178 0.059185 1 1 1
v 0.25098 0.2567389 0.03261473 1 1 1
v 0.1282899 0.2567389 0.03261473 1 1 1
v 0.25098 0.2567389 -0.03261473 1 1 1
v 0.1282899 0.2567389 -0.03261473 1 1 1
v 0.1589624 0.01026108 0.03261473 1 1 1
v 0.1589624 0.01026108 -0.03261473 1 1 1
v 0.1282899 0.01026108 0.03261473 1 1 1
v 0.1282899 0.01026108 -0.03261473 1 1 1
v 0.1742987 0.03251108 -0.03261473 1 1 1
v 0.1742987 0.03251108 0.03261473 1 1 1
v 0.1282899 0.09926108 0.03261473 1 1 1
v 0.1282899 0.1453853 0.07873893 1 1 1
v 0.25098 0.09926108 0.03261473 1 1 1
v 0.25098 0.1453853 0.07873893 1 1 1
v 0.25098 0.2106147 0.07873893 1 1 1
v 0.1282899 0.2106147 0.07873893 1 1 1
v 0.2049712 0.03251108 -0.03261473 1 1 1
v 0.2049712 0.03251108 0.03261473 1 1 1
v 0.2203075 0.01026108 -0.03261473 1 1 1
v 0.2203075 0.01026108 0.03261473 1 1 1
v 0.1282899 0.1453853 -0.07873893 1 1 1
v 0.25098 0.1453853 -0.07873893 1 1 1
v 0.1282899 0.2106147 -0.07873893 1 1 1
v 0.25098 0.2106147 -0.07873893 1 1 1
v 0.25098 0.09926108 -0.03261473 1 1 1
v 0.25098 0.01026108 0.03261473 1 1 1
v 0.25098 0.01026108 -0.03261473 1 1 1
v 0.1282899 0.09926108 -0.03261473 1 1 1
v -0.03581291 0.178 -0.06675 1 1 1
v -0.03581291 0.178 0.06675 1 1 1
v -0.05973265 0.1202526 -0.06675 1 1 1
v -0.05973265 0.1202526 0.06675 1 1 1
v -0.1991471 0.178 -0.06675 1 1 1
v -0.1752274 0.1202526 -0.06675 1 1 1
v -0.1991471 0.178 0.06675 1 1 1
v -0.1752274 0.1202526 0.06675 1 1 1
v -0.11748 0.0963329 -0.06675 1 1 1
v -0.11748 0.0963329 0.06675 1 1 1
v -0.243345 0.303865 -0.02225 1 1 1
v -0.243345 0.303865 0.02225 1 1 1
v -0.29548 0.178 -0.02225 1 1 1
v -0.29548 0.178 0.02225 1 1 1
v -0.1752274 0.2357474 -0.06675 1 1 1
v -0.1752274 0.2357474 0.06675 1 1 1
v 0.06052 0.178 -0.02225 1 1 1
v 0.008384995 0.05213499 -0.02225 1 1 1
v 0.06052 0.178 0.02225 1 1 1
v 0.008384995 0.05213499 0.02225 1 1 1
v -0.2473136 0.178 0.06675 1 1 1
v -0.2092862 0.2698062 0.06675 1 1 1
v -0.02567382 0.2698062 0.06675 1 1 1
v -0.11748 0.3078335 0.06675 1 1 1
v 0.008384995 0.303865 0.02225 1 1 1
v -0.11748 0.356 0.02225 1 1 1
v -0.11748 2.746681E-10 0.02225 1 1 1
v -0.11748 0 -0.02225 1 1 1
v -0.11748 0.04816645 -0.06675 1 1 1
v -0.243345 0.05213499 -0.02225 1 1 1
v -0.2092862 0.08619381 -0.06675 1 1 1
v -0.02567382 0.08619381 -0.06675 1 1 1
v -0.2473136 0.178 -0.06675 1 1 1
v -0.2092862 0.2698062 -0.06675 1 1 1
v 0.008384995 0.303865 -0.02225 1 1 1
v -0.11748 0.3078335 -0.06675 1 1 1
v -0.11748 0.356 -0.02225 1 1 1
v -0.243345 0.05213499 0.02225 1 1 1
v -0.11748 0.04816645 0.06675 1 1 1
v -0.2092862 0.08619381 0.06675 1 1 1
v -0.02567382 0.08619381 0.06675 1 1 1
v 0.01235355 0.178 0.06675 1 1 1
v -0.05973265 0.2357474 0.06675 1 1 1
v -0.11748 0.2596671 0.06675 1 1 1
v -0.05973265 0.2357474 -0.06675 1 1 1
v -0.11748 0.2596671 -0.06675 1 1 1
v 0.01235355 0.178 -0.06675 1 1 1
v -0.02567382 0.2698062 -0.06675 1 1 1

vn 0 0 -1
vn 0 0.7071068 -0.7071068
vn 0 -1 0
vn 0 -0.7071068 -0.7071068
vn 1 0 0
vn -1 0 0
vn 0 -0.7071068 0.7071068
vn 0 0 1
vn 0 0.7071068 0.7071068
vn 0 1 0
vn 0 0.9238795 0.3826834
vn 0 0.9238795 -0.3826834
vn 0.4650171 -0.8853017 0
vn 0.8233609 -0.5675182 0
vn 0 -0.3826834 0.9238795
vn 0 0.3826834 0.9238795
vn -0.4650171 -0.8853017 0
vn -0.8233609 -0.5675182 0
vn 0 -0.3826834 -0.9238795
vn 0 0.3826834 -0.9238795
vn -0.7071068 0.7071068 0
vn 0.7071068 0.7071068 0
vn -0.6572475 0.6572475 -0.3688517
vn -0.6572475 0.6572475 0.3688517
vn -0.9294882 0 -0.3688517
vn -0.9294882 0 0.3688517
vn 0.7071068 -0.7071068 0
vn 0.9294882 0 -0.3688517
vn 0.6572475 -0.6572475 -0.3688517
vn 0.9294882 0 0.3688517
vn 0.6572475 -0.6572475 0.3688517
vn -0.4377038 0 0.8991193
vn -0.3095033 0.3095033 0.8991193
vn 0.3095033 0.3095033 0.8991193
vn 0 0.4377038 0.8991193
vn 0.6572475 0.6572475 0.3688517
vn 0 0.9294883 0.3688517
vn 0 -0.9294882 0.3688517
vn 0 -0.9294883 -0.3688517
vn 0 -0.4377038 -0.8991193
vn -0.6572475 -0.6572475 -0.3688517
vn -0.3095033 -0.3095033 -0.8991193
vn 0.3095033 -0.3095033 -0.8991193
vn -0.4377038 0 -0.8991193
vn -0.3095033 0.3095033 -0.8991193
vn 0.6572475 0.6572475 -0.3688517
vn 0 0.4377038 -0.8991193
vn 0 0.9294882 -0.3688517
vn -0.6572475 -0.6572475 0.3688517
vn 0 -0.4377038 0.8991193
vn -0.3095033 -0.3095033 0.8991193
vn 0.3095033 -0.3095033 0.8991193
vn 0.4377038 0 0.8991193
vn -0.7071068 -0.7071068 0
vn 0.4377038 0 -0.8991193
vn 0.3095033 0.3095033 -0.8991193

vt 0.71875 0.375
vt 0.71875 0.4457107
vt 0.71875 0.275
vt 0.71875 0.3042893
vt 0.71875 0.3042893
vt 0.71875 0.475
vt 0.71875 0.2930544
vt 0.71875 0.3472174
vt 0.71875 0.3846441
vt 0.71875 0.4375733
vt 0.71875 0.3425577
vt 0.71875 0.3291196
vt 0.71875 0.4074423
vt 0.71875 0.4265765
vt 0.71875 0.4479402
vt 0.71875 0.3020598
vt 0.71875 0.3234235
vt 0.71875 0.4208804

usemtl colormap

f 3/2/2 2/1/1 1/1/1
f 2/1/1 3/2/2 4/2/2
f 7/3/3 6/4/4 5/3/3
f 6/4/4 7/3/3 8/5/4
f 4/2/5 6/4/5 2/1/5
f 6/4/5 4/2/5 9/6/5
f 6/4/5 9/6/5 5/3/5
f 5/3/5 9/6/5 10/2/5
f 5/3/5 10/2/5 11/4/5
f 11/4/5 10/2/5 12/1/5
f 8/5/6 3/2/6 1/1/6
f 3/2/6 8/5/6 7/3/6
f 3/2/6 7/3/6 13/6/6
f 13/6/6 7/3/6 14/5/6
f 13/6/6 14/5/6 15/2/6
f 15/2/6 14/5/6 16/1/6
f 1/1/1 6/4/4 8/5/4
f 6/4/4 1/1/1 2/1/1
f 11/4/7 7/3/3 5/3/3
f 7/3/3 11/4/7 14/5/7
f 11/4/7 16/1/8 14/5/7
f 16/1/8 11/4/7 12/1/8
f 12/1/8 15/2/9 16/1/8
f 15/2/9 12/1/8 10/2/9
f 9/6/10 15/2/9 10/2/9
f 15/2/9 9/6/10 13/6/10
f 3/2/2 9/6/10 4/2/2
f 9/6/10 3/2/2 13/6/10
f 19/6/12 18/6/11 17/6/11
f 18/6/11 19/6/12 20/6/12
f 23/3/3 22/3/3 21/3/3
f 22/3/3 23/3/3 24/3/3
f 26/7/13 22/3/14 25/7/13
f 22/3/14 26/7/13 21/3/14
f 29/8/7 28/9/15 27/8/7
f 28/9/15 29/8/7 30/9/15
f 17/6/11 32/10/16 31/10/16
f 32/10/16 17/6/11 18/6/11
f 35/3/18 34/7/17 33/7/17
f 34/7/17 35/3/18 36/3/18
f 26/7/13 33/7/17 34/7/17
f 33/7/17 26/7/13 25/7/13
f 39/10/20 38/9/19 37/9/19
f 38/9/19 39/10/20 40/10/20
f 40/10/5 41/8/5 38/9/5
f 41/8/5 40/10/5 19/6/5
f 41/8/5 19/6/5 17/6/5
f 41/8/5 17/6/5 42/3/5
f 42/3/5 43/3/5 41/8/5
f 42/3/5 17/6/5 29/8/5
f 29/8/5 17/6/5 31/10/5
f 29/8/5 31/10/5 30/9/5
f 30/9/15 32/10/16 28/9/15
f 32/10/16 30/9/15 31/10/16
f 20/6/12 40/10/20 39/10/20
f 40/10/20 20/6/12 19/6/12
f 36/3/3 43/3/3 42/3/3
f 43/3/3 36/3/3 35/3/3
f 24/3/1 25/7/1 22/3/1
f 25/7/1 24/3/1 44/8/1
f 25/7/1 44/8/1 33/7/1
f 41/8/1 33/7/1 44/8/1
f 43/3/1 33/7/1 41/8/1
f 33/7/1 43/3/1 35/3/1
f 29/8/8 36/3/8 42/3/8
f 36/3/8 29/8/8 34/7/8
f 34/7/8 29/8/8 26/7/8
f 26/7/8 29/8/8 27/8/8
f 23/3/8 26/7/8 27/8/8
f 26/7/8 23/3/8 21/3/8
f 23/3/6 44/8/6 24/3/6
f 18/6/6 44/8/6 23/3/6
f 18/6/6 23/3/6 27/8/6
f 18/6/6 27/8/6 32/10/6
f 32/10/6 27/8/6 28/9/6
f 20/6/6 44/8/6 18/6/6
f 39/10/6 44/8/6 20/6/6
f 44/8/6 39/10/6 37/9/6
f 44/8/4 38/9/19 41/8/4
f 38/9/19 44/8/4 37/9/19
f 47/11/21 46/1/6 45/1/6
f 46/1/6 47/11/21 48/11/21
f 51/1/5 50/11/22 49/1/5
f 50/11/22 51/1/5 52/11/22
f 50/11/22 54/12/10 53/12/10
f 54/12/10 50/11/22 52/11/22
f 53/12/10 48/11/21 47/11/21
f 48/11/21 53/12/10 54/12/10
f 57/1/25 56/2/24 55/2/23
f 56/2/24 57/1/25 58/1/26
f 60/13/27 49/1/5 59/13/27
f 49/1/5 60/13/27 51/1/5
f 63/1/30 62/5/29 61/1/28
f 62/5/29 63/1/30 64/5/31
f 65/1/32 56/2/24 58/1/26
f 56/2/24 65/1/32 66/14/33
f 69/2/36 68/15/35 67/14/34
f 68/15/35 69/2/36 70/6/37
f 71/3/38 62/5/29 64/5/31
f 62/5/29 71/3/38 72/3/39
f 74/5/41 73/16/40 72/3/39
f 73/16/40 74/5/41 75/17/42
f 73/16/40 62/5/29 72/3/39
f 62/5/29 73/16/40 76/17/43
f 57/1/25 78/14/45 77/1/44
f 78/14/45 57/1/25 55/2/23
f 69/2/36 61/1/28 79/2/46
f 61/1/28 69/2/36 63/1/30
f 55/2/23 80/15/47 78/14/45
f 80/15/47 55/2/23 81/6/48
f 74/5/41 58/1/26 57/1/25
f 58/1/26 74/5/41 82/5/49
f 85/17/52 84/17/51 83/16/50
f 84/17/51 85/17/52 54/12/8
f 54/12/8 85/17/52 48/11/8
f 52/11/8 84/17/51 54/12/8
f 48/11/8 85/17/52 86/1/53
f 48/11/8 86/1/53 46/1/8
f 46/1/8 86/1/53 87/13/8
f 84/17/51 52/11/8 65/1/32
f 65/1/32 52/11/8 51/1/8
f 65/1/32 51/1/8 60/13/8
f 87/13/8 86/1/53 67/14/34
f 65/1/32 60/13/8 66/14/33
f 87/13/8 67/14/34 88/18/8
f 66/14/33 60/13/8 88/18/8
f 66/14/33 88/18/8 67/14/34
f 66/14/33 67/14/34 68/15/35
f 45/1/6 87/13/54 89/13/54
f 87/13/54 45/1/6 46/1/6
f 81/6/48 69/2/36 79/2/46
f 69/2/36 81/6/48 70/6/37
f 82/5/49 72/3/39 71/3/38
f 72/3/39 82/5/49 74/5/41
f 60/13/27 90/18/3 88/18/3
f 90/18/3 60/13/27 59/13/27
f 84/17/51 58/1/26 82/5/49
f 58/1/26 84/17/51 65/1/32
f 88/18/3 89/13/54 87/13/54
f 89/13/54 88/18/3 90/18/3
f 63/1/30 85/17/52 64/5/31
f 85/17/52 63/1/30 86/1/53
f 55/2/23 70/6/37 81/6/48
f 70/6/37 55/2/23 56/2/24
f 69/2/36 86/1/53 63/1/30
f 86/1/53 69/2/36 67/14/34
f 68/15/35 56/2/24 66/14/33
f 56/2/24 68/15/35 70/6/37
f 83/16/50 82/5/49 71/3/38
f 82/5/49 83/16/50 84/17/51
f 92/14/56 61/1/28 91/1/55
f 61/1/28 92/14/56 79/2/46
f 57/1/25 75/17/42 74/5/41
f 75/17/42 57/1/25 77/1/44
f 75/17/42 76/17/43 73/16/40
f 76/17/43 75/17/42 53/12/1
f 53/12/1 75/17/42 50/11/1
f 47/11/1 76/17/43 53/12/1
f 50/11/1 75/17/42 77/1/44
f 50/11/1 77/1/44 49/1/1
f 76/17/43 47/11/1 91/1/55
f 91/1/55 47/11/1 45/1/1
f 91/1/55 45/1/1 89/13/1
f 49/1/1 77/1/44 78/14/45
f 91/1/55 89/13/1 92/14/56
f 49/1/1 78/14/45 59/13/1
f 92/14/56 89/13/1 90/18/1
f 59/13/1 78/14/45 90/18/1
f 92/14/56 90/18/1 78/14/45
f 92/14/56 78/14/45 80/15/47
f 76/17/43 61/1/28 62/5/29
f 61/1/28 76/17/43 91/1/55
f 80/15/47 79/2/46 92/14/56
f 79/2/46 80/15/47 81/6/48
f 64/5/31 83/16/50 71/3/38
f 83/16/50 64/5/31 85/17/52

g key




usemtl colormap

f 3/2/2 2/1/1 1/1/1
f 2/1/1 3/2/2 4/2/2
f 7/3/3 6/4/4 5/3/3
f 6/4/4 7/3/3 8/5/4
f 4/2/5 6/4/5 2/1/5
f 6/4/5 4/2/5 9/6/5
f 6/4/5 9/6/5 5/3/5
f 5/3/5 9/6/5 10/2/5
f 5/3/5 10/2/5 11/4/5
f 11/4/5 10/2/5 12/1/5
f 8/5/6 3/2/6 1/1/6
f 3/2/6 8/5/6 7/3/6
f 3/2/6 7/3/6 13/6/6
f 13/6/6 7/3/6 14/5/6
f 13/6/6 14/5/6 15/2/6
f 15/2/6 14/5/6 16/1/6
f 1/1/1 6/4/4 8/5/4
f 6/4/4 1/1/1 2/1/1
f 11/4/7 7/3/3 5/3/3
f 7/3/3 11/4/7 14/5/7
f 11/4/7 16/1/8 14/5/7
f 16/1/8 11/4/7 12/1/8
f 12/1/8 15/2/9 16/1/8
f 15/2/9 12/1/8 10/2/9
f 9/6/10 15/2/9 10/2/9
f 15/2/9 9/6/10 13/6/10
f 3/2/2 9/6/10 4/2/2
f 9/6/10 3/2/2 13/6/10
f 19/6/12 18/6/11 17/6/11
f 18/6/11 19/6/12 20/6/12
f 23/3/3 22/3/3 21/3/3
f 22/3/3 23/3/3 24/3/3
f 26/7/13 22/3/14 25/7/13
f 22/3/14 26/7/13 21/3/14
f 29/8/7 28/9/15 27/8/7
f 28/9/15 29/8/7 30/9/15
f 17/6/11 32/10/16 31/10/16
f 32/10/16 17/6/11 18/6/11
f 35/3/18 34/7/17 33/7/17
f 34/7/17 35/3/18 36/3/18
f 26/7/13 33/7/17 34/7/17
f 33/7/17 26/7/13 25/7/13
f 39/10/20 38/9/19 37/9/19
f 38/9/19 39/10/20 40/10/20
f 40/10/5 41/8/5 38/9/5
f 41/8/5 40/10/5 19/6/5
f 41/8/5 19/6/5 17/6/5
f 41/8/5 17/6/5 42/3/5
f 42/3/5 43/3/5 41/8/5
f 42/3/5 17/6/5 29/8/5
f 29/8/5 17/6/5 31/10/5
f 29/8/5 31/10/5 30/9/5
f 30/9/15 32/10/16 28/9/15
f 32/10/16 30/9/15 31/10/16
f 20/6/12 40/10/20 39/10/20
f 40/10/20 20/6/12 19/6/12
f 36/3/3 43/3/3 42/3/3
f 43/3/3 36/3/3 35/3/3
f 24/3/1 25/7/1 22/3/1
f 25/7/1 24/3/1 44/8/1
f 25/7/1 44/8/1 33/7/1
f 41/8/1 33/7/1 44/8/1
f 43/3/1 33/7/1 41/8/1
f 33/7/1 43/3/1 35/3/1
f 29/8/8 36/3/8 42/3/8
f 36/3/8 29/8/8 34/7/8
f 34/7/8 29/8/8 26/7/8
f 26/7/8 29/8/8 27/8/8
f 23/3/8 26/7/8 27/8/8
f 26/7/8 23/3/8 21/3/8
f 23/3/6 44/8/6 24/3/6
f 18/6/6 44/8/6 23/3/6
f 18/6/6 23/3/6 27/8/6
f 18/6/6 27/8/6 32/10/6
f 32/10/6 27/8/6 28/9/6
f 20/6/6 44/8/6 18/6/6
f 39/10/6 44/8/6 20/6/6
f 44/8/6 39/10/6 37/9/6
f 44/8/4 38/9/19 41/8/4
f 38/9/19 44/8/4 37/9/19
f 47/11/21 46/1/6 45/1/6
f 46/1/6 47/11/21 48/11/21
f 51/1/5 50/11/22 49/1/5
f 50/11/22 51/1/5 52/11/22
f 50/11/22 54/12/10 53/12/10
f 54/12/10 50/11/22 52/11/22
f 53/12/10 48/11/21 47/11/21
f 48/11/21 53/12/10 54/12/10
f 57/1/25 56/2/24 55/2/23
f 56/2/24 57/1/25 58/1/26
f 60/13/27 49/1/5 59/13/27
f 49/1/5 60/13/27 51/1/5
f 63/1/30 62/5/29 61/1/28
f 62/5/29 63/1/30 64/5/31
f 65/1/32 56/2/24 58/1/26
f 56/2/24 65/1/32 66/14/33
f 69/2/36 68/15/35 67/14/34
f 68/15/35 69/2/36 70/6/37
f 71/3/38 62/5/29 64/5/31
f 62/5/29 71/3/38 72/3/39
f 74/5/41 73/16/40 72/3/39
f 73/16/40 74/5/41 75/17/42
f 73/16/40 62/5/29 72/3/39
f 62/5/29 73/16/40 76/17/43
f 57/1/25 78/14/45 77/1/44
f 78/14/45 57/1/25 55/2/23
f 69/2/36 61/1/28 79/2/46
f 61/1/28 69/2/36 63/1/30
f 55/2/23 80/15/47 78/14/45
f 80/15/47 55/2/23 81/6/48
f 74/5/41 58/1/26 57/1/25
f 58/1/26 74/5/41 82/5/49
f 85/17/52 84/17/51 83/16/50
f 84/17/51 85/17/52 54/12/8
f 54/12/8 85/17/52 48/11/8
f 52/11/8 84/17/51 54/12/8
f 48/11/8 85/17/52 86/1/53
f 48/11/8 86/1/53 46/1/8
f 46/1/8 86/1/53 87/13/8
f 84/17/51 52/11/8 65/1/32
f 65/1/32 52/11/8 51/1/8
f 65/1/32 51/1/8 60/13/8
f 87/13/8 86/1/53 67/14/34
f 65/1/32 60/13/8 66/14/33
f 87/13/8 67/14/34 88/18/8
f 66/14/33 60/13/8 88/18/8
f 66/14/33 88/18/8 67/14/34
f 66/14/33 67/14/34 68/15/35
f 45/1/6 87/13/54 89/13/54
f 87/13/54 45/1/6 46/1/6
f 81/6/48 69/2/36 79/2/46
f 69/2/36 81/6/48 70/6/37
f 82/5/49 72/3/39 71/3/38
f 72/3/39 82/5/49 74/5/41
f 60/13/27 90/18/3 88/18/3
f 90/18/3 60/13/27 59/13/27
f 84/17/51 58/1/26 82/5/49
f 58/1/26 84/17/51 65/1/32
f 88/18/3 89/13/54 87/13/54
f 89/13/54 88/18/3 90/18/3
f 63/1/30 85/17/52 64/5/31
f 85/17/52 63/1/30 86/1/53
f 55/2/23 70/6/37 81/6/48
f 70/6/37 55/2/23 56/2/24
f 69/2/36 86/1/53 63/1/30
f 86/1/53 69/2/36 67/14/34
f 68/15/35 56/2/24 66/14/33
f 56/2/24 68/15/35 70/6/37
f 83/16/50 82/5/49 71/3/38
f 82/5/49 83/16/50 84/17/51
f 92/14/56 61/1/28 91/1/55
f 61/1/28 92/14/56 79/2/46
f 57/1/25 75/17/42 74/5/41
f 75/17/42 57/1/25 77/1/44
f 75/17/42 76/17/43 73/16/40
f 76/17/43 75/17/42 53/12/1
f 53/12/1 75/17/42 50/11/1
f 47/11/1 76/17/43 53/12/1
f 50/11/1 75/17/42 77/1/44
f 50/11/1 77/1/44 49/1/1
f 76/17/43 47/11/1 91/1/55
f 91/1/55 47/11/1 45/1/1
f 91/1/55 45/1/1 89/13/1
f 49/1/1 77/1/44 78/14/45
f 91/1/55 89/13/1 92/14/56
f 49/1/1 78/14/45 59/13/1
f 92/14/56 89/13/1 90/18/1
f 59/13/1 78/14/45 90/18/1
f 92/14/56 90/18/1 78/14/45
f 92/14/56 78/14/45 80/15/47
f 76/17/43 61/1/28 62/5/29
f 61/1/28 76/17/43 91/1/55
f 80/15/47 79/2/46 92/14/56
f 79/2/46 80/15/47 81/6/48
f 64/5/31 83/16/50 71/3/38
f 83/16/50 64/5/31 85/17/52

