# Created by Kenney (www.kenney.nl)

mtllib pot.mtl

g pot

v -0.19065 0.09225 -3.118657E-15 1 1 1
v -0.20295 0.21525 -1.342755E-15 1 1 1
v -0.1348099 0.09225 0.1348099 1 1 1
v -0.1435073 0.21525 0.1435073 1 1 1
v 2.873207E-15 0.09225 -0.19065 1 1 1
v 0.1348099 0.09225 -0.1348099 1 1 1
v 2.873207E-15 0.21525 -0.20295 1 1 1
v 0.1435073 0.21525 -0.1435073 1 1 1
v -0.1348099 0.09225 -0.1348099 1 1 1
v -0.1435073 0.21525 -0.1435073 1 1 1
v 0.1348099 0.09225 0.1348099 1 1 1
v 2.873207E-15 0.09225 0.19065 1 1 1
v 0.1435073 0.21525 0.1435073 1 1 1
v 2.873207E-15 0.21525 0.20295 1 1 1
v 0.19065 0.09225 -3.118657E-15 1 1 1
v 0.20295 0.21525 -1.342755E-15 1 1 1
v -0.1087177 0 -0.1087177 1 1 1
v -0.15375 0 4.33147E-16 1 1 1
v -0.1087177 0.3075 -0.1087177 1 1 1
v 5.053378E-16 0.3075 -0.15375 1 1 1
v 0.1087177 0.3075 -0.1087177 1 1 1
v 0.15375 0.3075 4.33147E-16 1 1 1
v 0.1087177 0.3075 0.1087177 1 1 1
v 5.053378E-16 0.3075 0.15375 1 1 1
v -0.1087177 0.3075 0.1087177 1 1 1
v 0.15375 0 4.33147E-16 1 1 1
v 0.1087177 0 0.1087177 1 1 1
v -0.1087177 0 0.1087177 1 1 1
v 0.1087177 0 -0.1087177 1 1 1
v -0.15375 0.3075 4.33147E-16 1 1 1
v 5.053378E-16 0 0.15375 1 1 1
v 5.053378E-16 0 -0.15375 1 1 1
v 0.08971675 0.07935682 -1.525495E-09 1 1 1
v 0.0631933 0.213 -5.508365E-09 1 1 1
v 0.1354153 0.1059443 0.05 1 1 1
v 0.1151084 0.2082643 0.04999999 1 1 1
v 0.2450201 0.2058464 0.05 1 1 1
v 0.2253684 0.2365422 0.04999999 1 1 1
v 0.2998092 0.213 -5.508368E-09 1 1 1
v 0.2570295 0.2798216 -7.499802E-09 1 1 1
v 0.1285538 0.2421378 0.04999999 1 1 1
v 0.08971675 0.2798216 -7.499799E-09 1 1 1
v 0.2570295 0.07935682 -1.525498E-09 1 1 1
v 0.2155775 0.1138683 -0.05 1 1 1
v 0.2450201 0.2058464 -0.05 1 1 1
v 0.15375 0.024 1.242646E-10 1 1 1
v 0.1604367 0.08431329 -0.05 1 1 1
v 0.1354153 0.1059443 -0.05 1 1 1
v 0.1285538 0.2421378 -0.05000001 1 1 1
v 0.1576154 0.2546997 -0.05000001 1 1 1
v 0.15375 0.3075 -8.324679E-09 1 1 1
v 0.1151084 0.2082643 -0.05 1 1 1
v 0.1604367 0.08431329 0.05 1 1 1
v 0.2253684 0.2365422 -0.05000001 1 1 1
v 0.1576154 0.2546997 0.04999999 1 1 1
v 0.2155775 0.1138683 0.05 1 1 1
v 0.1234794 0.2075007 -0.05 1 1 1
v 0.1427839 0.1102314 -0.05 1 1 1
v 0.1234794 0.2075007 0.05 1 1 1
v 0.1427839 0.1102314 0.05 1 1 1
v 0.2202632 0.2295636 -0.05 1 1 1
v 0.2202632 0.2295636 0.04999999 1 1 1
v 0.2361856 0.2046929 -0.05 1 1 1
v 0.2361856 0.2046929 0.05 1 1 1
v 0.1582386 0.2461859 0.04999999 1 1 1
v 0.1582386 0.2461859 -0.05000001 1 1 1
v 0.1348161 0.2360615 0.04999999 1 1 1
v 0.1348161 0.2360615 -0.05000001 1 1 1
v 0.1615148 0.09403855 0.05 1 1 1
v 0.1615148 0.09403855 -0.05 1 1 1
v 0.2088936 0.1194331 -0.05 1 1 1
v 0.2088936 0.1194331 0.05 1 1 1
v -0.08971675 0.07935682 -5.844978E-09 1 1 1
v -0.0631933 0.213 -1.466862E-09 1 1 1
v -0.1354153 0.1059443 -0.05 1 1 1
v -0.1151084 0.2082643 -0.05 1 1 1
v -0.2450201 0.2058464 -0.05 1 1 1
v -0.2253684 0.2365422 -0.05 1 1 1
v -0.2998092 0.213 -4.992844E-09 1 1 1
v -0.2570295 0.2798216 -2.363918E-09 1 1 1
v -0.1285538 0.2421378 -0.05 1 1 1
v -0.08971675 0.2798216 1.293268E-10 1 1 1
v -0.2570295 0.07935682 -8.338223E-09 1 1 1
v -0.2155775 0.1138683 0.04999999 1 1 1
v -0.2450201 0.2058464 0.05 1 1 1
v -0.15375 0.024 -8.448943E-09 1 1 1
v -0.1604367 0.08431329 0.04999999 1 1 1
v -0.1354153 0.1059443 0.04999999 1 1 1
v -0.1285538 0.2421378 0.05 1 1 1
v -0.1576154 0.2546997 0.05 1 1 1
v -0.15375 0.3075 4.440892E-16 1 1 1
v -0.1151084 0.2082643 0.05 1 1 1
v -0.1604367 0.08431329 -0.05000001 1 1 1
v -0.2253684 0.2365422 0.05 1 1 1
v -0.1576154 0.2546997 -0.05 1 1 1
v -0.2155775 0.1138683 -0.05 1 1 1
v -0.1234794 0.2075007 0.05 1 1 1
v -0.1427839 0.1102314 0.04999999 1 1 1
v -0.1234794 0.2075007 -0.05 1 1 1
v -0.1427839 0.1102314 -0.05 1 1 1
v -0.2202632 0.2295636 0.05 1 1 1
v -0.2202632 0.2295636 -0.05 1 1 1
v -0.2361856 0.2046929 0.05 1 1 1
v -0.2361856 0.2046929 -0.05 1 1 1
v -0.1582386 0.2461859 -0.05 1 1 1
v -0.1582386 0.2461859 0.05 1 1 1
v -0.1348161 0.2360615 -0.05 1 1 1
v -0.1348161 0.2360615 0.05 1 1 1
v -0.1615148 0.09403855 -0.05000001 1 1 1
v -0.1615148 0.09403855 0.04999999 1 1 1
v -0.2088936 0.1194331 0.04999999 1 1 1
v -0.2088936 0.1194331 -0.05 1 1 1
v 0.1577858 0.4305 -4.591356E-15 1 1 1
v 0.1115714 0.4305 0.1115714 1 1 1
v 0.1115714 0.4305 -0.1115714 1 1 1
v 0.09717417 0.4305 -4.591356E-15 1 1 1
v 0.06871251 0.4305 -0.06871251 1 1 1
v 0.06871251 0.4305 0.06871251 1 1 1
v 3.313574E-15 0.4305 -0.1577858 1 1 1
v 3.609557E-15 0.4305 -0.09717417 1 1 1
v -0.06871251 0.4305 -0.06871251 1 1 1
v 3.313574E-15 0.4305 0.1577858 1 1 1
v 3.313574E-15 0.4305 0.09717417 1 1 1
v -0.06871251 0.4305 0.06871251 1 1 1
v -0.1115714 0.4305 -0.1115714 1 1 1
v -0.1115714 0.4305 0.1115714 1 1 1
v -0.09717417 0.4305 -4.591356E-15 1 1 1
v -0.1577858 0.4305 -4.591356E-15 1 1 1
v 9.457042E-16 0.3075 -0.15375 1 1 1
v 2.425622E-15 0.39975 -0.1788727 1 1 1
v 0.1264821 0.39975 -0.1264821 1 1 1
v 0.1788727 0.39975 -3.407422E-15 1 1 1
v 0.15375 0.3075 1.443827E-16 1 1 1
v 9.457042E-16 0.3075 0.15375 1 1 1
v 2.425622E-15 0.39975 0.1788727 1 1 1
v -0.1264821 0.39975 0.1264821 1 1 1
v 0.1264821 0.39975 0.1264821 1 1 1
v -0.1264821 0.39975 -0.1264821 1 1 1
v -0.1788727 0.39975 -3.407422E-15 1 1 1
v -0.15375 0.3075 1.443827E-16 1 1 1
v 0.07579586 0.3485 -3.407422E-15 1 1 1
v 0.05359576 0.3485 0.05359576 1 1 1
v 0.05359576 0.3485 -0.05359576 1 1 1
v 3.01759E-15 0.3485 -0.07579586 1 1 1
v 2.721606E-15 0.3485 0.07579586 1 1 1
v -0.05359576 0.3485 -0.05359576 1 1 1
v -0.05359576 0.3485 0.05359576 1 1 1
v -0.07579586 0.3485 -3.407422E-15 1 1 1

vn -0.9950371 -0.09950371 0
vn -0.7035975 -0.09950371 0.7035975
vn 0 -0.09950371 -0.9950371
vn 0.7035975 -0.09950371 -0.7035975
vn -0.7035975 -0.09950371 -0.7035975
vn 0.7035975 -0.09950371 0.7035975
vn 0 -0.09950371 0.9950371
vn 0.9950371 -0.09950371 0
vn -0.6565321 -0.3713907 -0.6565321
vn -0.9284768 -0.3713907 0
vn -0.6239178 0.4705882 -0.6239178
vn 0 0.4705883 -0.8823529
vn 0.6239178 0.4705882 -0.6239178
vn 0.8823529 0.4705883 0
vn 0.6239178 0.4705882 0.6239178
vn 0 0.4705883 0.8823529
vn -0.6239178 0.4705882 0.6239178
vn 0.9284768 -0.3713907 0
vn 0.6565321 -0.3713907 0.6565321
vn -0.6565321 -0.3713907 0.6565321
vn 0.6565321 -0.3713907 -0.6565321
vn -0.8823529 0.4705883 0
vn 0 -0.3713907 0.9284768
vn 0 -1 0
vn 0 -0.3713907 -0.9284768
vn -0.8643544 -0.5028832 0
vn -0.9958652 0.09084338 0
vn -0.3742047 -0.217713 0.9014277
vn -0.426786 0.03893168 0.9035143
vn 0.4365366 0.05699697 0.8978793
vn 0.2574939 0.3519835 0.8998913
vn 0.9915837 0.1294673 0
vn 0.5904278 0.8070904 0
vn -0.3141217 0.3047941 0.8991264
vn -0.717682 0.696371 0
vn 0.7685114 -0.6398361 0
vn 0.3359631 -0.2797113 -0.8993832
vn 0.4365366 0.05699692 -0.8978793
vn -0.1101902 -0.9939106 0
vn -0.0485957 -0.4383311 -0.897499
vn -0.3742047 -0.2177131 -0.9014277
vn -0.3141216 0.304794 -0.8991264
vn -0.03163442 0.4321225 -0.9012599
vn -0.07301169 0.9973311 0
vn -0.426786 0.03893163 -0.9035143
vn -0.0485957 -0.438331 0.897499
vn 0.2574939 0.3519835 -0.8998914
vn -0.03163442 0.4321226 0.9012598
vn 0.3359631 -0.2797113 0.8993832
vn 0.9958652 -0.09084338 0
vn 0.8643544 0.5028832 0
vn -0.5904278 -0.8070904 0
vn -0.9915837 -0.1294673 0
vn 0.07301169 -0.9973311 0
vn 0.717682 -0.696371 0
vn 0.1101902 0.9939106 0
vn -0.7685114 0.6398361 0
vn 0 0 -1
vn 0 0 1
vn 0.8643544 -0.5028832 1.288037E-08
vn 0.9958652 0.09084338 1.484011E-08
vn 0.3742047 -0.217713 -0.9014277
vn 0.426786 0.03893168 -0.9035143
vn -0.4365366 0.05699697 -0.8978793
vn -0.2574939 0.3519835 -0.8998913
vn -0.9915837 0.1294673 -1.477631E-08
vn -0.5904278 0.8070904 -8.79839E-09
vn 0.3141217 0.3047941 -0.8991264
vn 0.717682 0.696371 1.06947E-08
vn -0.7685114 -0.6398361 -1.145214E-08
vn -0.3359631 -0.2797113 0.8993832
vn -0.4365366 0.05699692 0.8978793
vn 0.1101902 -0.9939106 1.642023E-09
vn 0.04859569 -0.4383311 0.897499
vn 0.3742047 -0.2177131 0.9014277
vn 0.3141216 0.304794 0.8991264
vn 0.03163441 0.4321225 0.9012599
vn 0.07301169 0.9973311 1.088E-09
vn 0.426786 0.03893163 0.9035143
vn 0.04859571 -0.438331 -0.897499
vn -0.2574939 0.3519835 0.8998914
vn 0.03163444 0.4321226 -0.9012598
vn -0.3359631 -0.2797113 -0.8993832
vn -0.9958652 -0.09084338 -1.484011E-08
vn -0.8643544 0.5028832 -1.288037E-08
vn 0.5904278 -0.8070904 8.79839E-09
vn 0.9915837 -0.1294673 1.477631E-08
vn -0.07301169 -0.9973311 -1.088E-09
vn -0.717682 -0.696371 -1.06947E-08
vn -0.1101902 0.9939106 -1.642023E-09
vn 0.7685114 0.6398361 1.145214E-08
vn -1.490172E-08 0 1
vn 1.490172E-08 0 -1
vn 0 1 0
vn 0 -0.2627636 -0.9648603
vn 0.6822592 -0.2627636 -0.6822592
vn 0 0.1521301 -0.9883605
vn 0.6988764 0.1521301 -0.6988764
vn 0.9883605 0.1521301 0
vn 0.9648603 -0.2627636 0
vn 0 -0.2627636 0.9648603
vn -0.6822592 -0.2627636 0.6822592
vn 0 0.1521301 0.9883605
vn -0.6988764 0.1521301 0.6988764
vn 0.6822592 -0.2627636 0.6822592
vn 0.6988764 0.1521301 0.6988764
vn -0.6988764 0.1521301 -0.6988764
vn -0.9883605 0.1521301 0
vn -0.6822592 -0.2627636 -0.6822592
vn -0.9648603 -0.2627636 0
vn -0.5831602 0.5655513 -0.5831602
vn -0.8247131 0.5655513 0
vn 0.8247131 0.5655513 0
vn 0.5831602 0.5655513 0.5831602
vn 0 0.5655513 0.8247131
vn -0.5831602 0.5655513 0.5831602
vn 0.5831602 0.5655513 -0.5831602
vn 0 0.5655513 -0.8247131
vn -0.6905851 0.7232511 0
vn -0.4883174 0.723251 -0.4883174
vn -0.4883174 0.723251 0.4883174
vn 0 0.7232511 0.6905851
vn 0 0.7232511 -0.6905851
vn 0.4883174 0.723251 0.4883174
vn 0.4883174 0.723251 -0.4883174
vn 0.6905851 0.7232511 0
vn 0.9676546 0.2522784 0
vn 0.6842352 0.2522784 -0.6842352
vn 0 0.2522784 0.9676546
vn 0.6842352 0.2522784 0.6842352
vn 0 0.2522784 -0.9676546
vn -0.6842352 0.2522784 -0.6842352
vn -0.6842352 0.2522784 0.6842352
vn -0.9676546 0.2522784 0

vt 0.84375 0.085
vt 0.84375 0.165
vt 0.21875 0.085
vt 0.21875 0.025
vt 0.21875 0.165
vt 0.21875 0.225
vt 0.21875 0.04062098
vt 0.21875 0.07833334
vt 0.21875 0.04812362
vt 0.21875 0.07699698
vt 0.21875 0.07631468
vt 0.21875 0.08497664
vt 0.21875 0.09718952
vt 0.21875 0.08655564
vt 0.21875 0.05035966
vt 0.21875 0.04201962
vt 0.21875 0.09010044
vt 0.21875 0.105
vt 0.21875 0.07699697
vt 0.21875 0.07678149
vt 0.21875 0.04933338
vt 0.21875 0.04933339
vt 0.21875 0.08300737
vt 0.21875 0.07598919
vt 0.21875 0.08769796
vt 0.21875 0.08484098
vt 0.21875 0.04476396
vt 0.21875 0.05192997
vt 0.21875 0.175
vt 0.21875 0.075
vt 0.21875 0.15
vt 0.21875 0.1083333

usemtl colormap

f 3/1/2 2/2/1 1/1/1
f 2/2/1 3/1/2 4/2/2
f 7/2/3 6/1/4 5/1/3
f 6/1/4 7/2/3 8/2/4
f 10/2/5 5/1/3 9/1/5
f 5/1/3 10/2/5 7/2/3
f 13/2/6 12/1/7 11/1/6
f 12/1/7 13/2/6 14/2/7
f 16/2/8 11/1/6 15/1/8
f 11/1/6 16/2/8 13/2/6
f 9/1/5 2/2/1 10/2/5
f 2/2/1 9/1/5 1/1/1
f 14/2/7 3/1/2 12/1/7
f 3/1/2 14/2/7 4/2/2
f 16/2/8 6/1/4 8/2/4
f 6/1/4 16/2/8 15/1/8
f 17/4/9 1/3/10 9/3/9
f 1/3/10 17/4/9 18/4/10
f 19/6/11 7/5/12 10/5/11
f 7/5/12 19/6/11 20/6/12
f 21/6/13 16/5/14 8/5/13
f 16/5/14 21/6/13 22/6/14
f 23/6/15 14/5/16 13/5/15
f 14/5/16 23/6/15 24/6/16
f 24/6/16 4/5/17 14/5/16
f 4/5/17 24/6/16 25/6/17
f 20/6/12 8/5/13 7/5/12
f 8/5/13 20/6/12 21/6/13
f 11/3/19 26/4/18 15/3/18
f 26/4/18 11/3/19 27/4/19
f 18/4/10 3/3/20 1/3/10
f 3/3/20 18/4/10 28/4/20
f 15/3/18 29/4/21 6/3/21
f 29/4/21 15/3/18 26/4/18
f 2/5/22 19/6/11 10/5/11
f 19/6/11 2/5/22 30/6/22
f 11/3/19 31/4/23 27/4/19
f 31/4/23 11/3/19 12/3/23
f 12/3/23 28/4/20 31/4/23
f 28/4/20 12/3/23 3/3/20
f 4/5/17 30/6/22 2/5/22
f 30/6/22 4/5/17 25/6/17
f 27/4/24 29/4/24 26/4/24
f 29/4/24 27/4/24 31/4/24
f 29/4/24 31/4/24 32/4/24
f 32/4/24 31/4/24 28/4/24
f 32/4/24 28/4/24 17/4/24
f 17/4/24 28/4/24 18/4/24
f 22/6/14 13/5/15 16/5/14
f 13/5/15 22/6/14 23/6/15
f 5/3/25 29/4/21 32/4/25
f 29/4/21 5/3/25 6/3/21
f 9/3/9 32/4/25 17/4/9
f 32/4/25 9/3/9 5/3/25
f 35/9/28 34/8/27 33/7/26
f 34/8/27 35/9/28 36/10/29
f 39/8/32 38/12/31 37/11/30
f 38/12/31 39/8/32 40/13/33
f 41/14/34 34/8/27 36/10/29
f 34/8/27 41/14/34 42/13/35
f 44/15/37 39/8/32 43/7/36
f 39/8/32 44/15/37 45/11/38
f 33/7/26 47/16/40 46/4/39
f 47/16/40 33/7/26 48/9/41
f 42/13/35 50/17/43 49/14/42
f 50/17/43 42/13/35 51/18/44
f 34/8/27 48/9/41 33/7/26
f 48/9/41 34/8/27 52/19/45
f 53/16/46 33/7/26 46/4/39
f 33/7/26 53/16/46 35/9/28
f 50/17/43 40/13/33 54/12/47
f 40/13/33 50/17/43 51/18/44
f 55/17/48 42/13/35 41/14/34
f 42/13/35 55/17/48 51/18/44
f 39/8/32 56/15/49 43/7/36
f 56/15/49 39/8/32 37/11/30
f 43/7/36 53/16/46 46/4/39
f 53/16/46 43/7/36 56/15/49
f 54/12/47 39/8/32 45/11/38
f 39/8/32 54/12/47 40/13/33
f 34/8/27 49/14/42 52/19/45
f 49/14/42 34/8/27 42/13/35
f 47/16/40 43/7/36 46/4/39
f 43/7/36 47/16/40 44/15/37
f 40/13/33 55/17/48 38/12/31
f 55/17/48 40/13/33 51/18/44
f 59/20/50 58/21/51 57/20/50
f 58/21/51 59/20/50 60/22/51
f 63/24/53 62/23/52 61/23/52
f 62/23/52 63/24/53 64/24/53
f 67/26/55 66/25/54 65/25/54
f 66/25/54 67/26/55 68/26/55
f 65/25/54 61/23/52 62/23/52
f 61/23/52 65/25/54 66/25/54
f 70/27/56 60/22/51 69/27/56
f 60/22/51 70/27/56 58/21/51
f 71/28/57 64/24/53 63/24/53
f 64/24/53 71/28/57 72/28/57
f 71/28/57 69/27/56 72/28/57
f 69/27/56 71/28/57 70/27/56
f 67/26/55 57/20/50 68/26/55
f 57/20/50 67/26/55 59/20/50
f 45/11/38 71/28/58 63/24/58
f 45/11/38 63/24/58 61/23/58
f 44/15/37 71/28/58 45/11/38
f 45/11/38 61/23/58 54/12/47
f 44/15/37 70/27/58 71/28/58
f 70/27/58 44/15/37 47/16/40
f 48/9/41 70/27/58 47/16/40
f 70/27/58 48/9/41 58/21/58
f 54/12/47 61/23/58 66/25/58
f 54/12/47 66/25/58 50/17/43
f 66/25/58 49/14/42 50/17/43
f 68/26/58 49/14/42 66/25/58
f 58/21/58 48/9/41 52/19/45
f 68/26/58 52/19/45 49/14/42
f 58/21/58 52/19/45 57/20/58
f 57/20/58 52/19/45 68/26/58
f 36/10/29 60/22/59 59/20/59
f 36/10/29 59/20/59 67/26/59
f 35/9/28 60/22/59 36/10/29
f 36/10/29 67/26/59 41/14/34
f 35/9/28 69/27/59 60/22/59
f 69/27/59 35/9/28 53/16/46
f 56/15/49 69/27/59 53/16/46
f 69/27/59 56/15/49 72/28/59
f 41/14/34 67/26/59 65/25/59
f 41/14/34 65/25/59 55/17/48
f 65/25/59 38/12/31 55/17/48
f 62/23/59 38/12/31 65/25/59
f 72/28/59 56/15/49 37/11/30
f 62/23/59 37/11/30 38/12/31
f 72/28/59 37/11/30 64/24/59
f 64/24/59 37/11/30 62/23/59
f 75/9/62 74/8/61 73/7/60
f 74/8/61 75/9/62 76/10/63
f 79/8/66 78/12/65 77/11/64
f 78/12/65 79/8/66 80/13/67
f 81/14/68 74/8/61 76/10/63
f 74/8/61 81/14/68 82/13/69
f 84/15/71 79/8/66 83/7/70
f 79/8/66 84/15/71 85/11/72
f 73/7/60 87/16/74 86/4/73
f 87/16/74 73/7/60 88/9/75
f 82/13/69 90/17/77 89/14/76
f 90/17/77 82/13/69 91/18/78
f 74/8/61 88/9/75 73/7/60
f 88/9/75 74/8/61 92/19/79
f 93/16/80 73/7/60 86/4/73
f 73/7/60 93/16/80 75/9/62
f 90/17/77 80/13/67 94/12/81
f 80/13/67 90/17/77 91/18/78
f 95/17/82 82/13/69 81/14/68
f 82/13/69 95/17/82 91/18/78
f 79/8/66 96/15/83 83/7/70
f 96/15/83 79/8/66 77/11/64
f 83/7/70 93/16/80 86/4/73
f 93/16/80 83/7/70 96/15/83
f 94/12/81 79/8/66 85/11/72
f 79/8/66 94/12/81 80/13/67
f 74/8/61 89/14/76 92/19/79
f 89/14/76 74/8/61 82/13/69
f 87/16/74 83/7/70 86/4/73
f 83/7/70 87/16/74 84/15/71
f 80/13/67 95/17/82 78/12/65
f 95/17/82 80/13/67 91/18/78
f 99/20/84 98/21/85 97/20/84
f 98/21/85 99/20/84 100/22/85
f 103/24/87 102/23/86 101/23/86
f 102/23/86 103/24/87 104/24/87
f 107/26/89 106/25/88 105/25/88
f 106/25/88 107/26/89 108/26/89
f 105/25/88 101/23/86 102/23/86
f 101/23/86 105/25/88 106/25/88
f 110/27/90 100/22/85 109/27/90
f 100/22/85 110/27/90 98/21/85
f 111/28/91 104/24/87 103/24/87
f 104/24/87 111/28/91 112/28/91
f 111/28/91 109/27/90 112/28/91
f 109/27/90 111/28/91 110/27/90
f 107/26/89 97/20/84 108/26/89
f 97/20/84 107/26/89 99/20/84
f 85/11/72 111/28/92 103/24/92
f 85/11/72 103/24/92 101/23/92
f 84/15/71 111/28/92 85/11/72
f 85/11/72 101/23/92 94/12/81
f 84/15/71 110/27/92 111/28/92
f 110/27/92 84/15/71 87/16/74
f 88/9/75 110/27/92 87/16/74
f 110/27/92 88/9/75 98/21/92
f 94/12/81 101/23/92 106/25/92
f 94/12/81 106/25/92 90/17/77
f 106/25/92 89/14/76 90/17/77
f 108/26/92 89/14/76 106/25/92
f 98/21/92 88/9/75 92/19/79
f 108/26/92 92/19/79 89/14/76
f 98/21/92 92/19/79 97/20/92
f 97/20/92 92/19/79 108/26/92
f 76/10/63 100/22/93 99/20/93
f 76/10/63 99/20/93 107/26/93
f 75/9/62 100/22/93 76/10/63
f 76/10/63 107/26/93 81/14/68
f 75/9/62 109/27/93 100/22/93
f 109/27/93 75/9/62 93/16/80
f 96/15/83 109/27/93 93/16/80
f 109/27/93 96/15/83 112/28/93
f 81/14/68 107/26/93 105/25/93
f 81/14/68 105/25/93 95/17/82
f 105/25/93 78/12/65 95/17/82
f 102/23/93 78/12/65 105/25/93
f 112/28/93 96/15/83 77/11/64
f 102/23/93 77/11/64 78/12/65
f 112/28/93 77/11/64 104/24/93
f 104/24/93 77/11/64 102/23/93
f 115/29/94 114/29/94 113/29/94
f 114/29/94 115/29/94 116/29/94
f 116/29/94 115/29/94 117/29/94
f 118/29/94 114/29/94 116/29/94
f 117/29/94 115/29/94 119/29/94
f 117/29/94 119/29/94 120/29/94
f 120/29/94 119/29/94 121/29/94
f 114/29/94 118/29/94 122/29/94
f 122/29/94 118/29/94 123/29/94
f 122/29/94 123/29/94 124/29/94
f 121/29/94 119/29/94 125/29/94
f 122/29/94 124/29/94 126/29/94
f 121/29/94 125/29/94 127/29/94
f 126/29/94 124/29/94 127/29/94
f 126/29/94 127/29/94 125/29/94
f 126/29/94 125/29/94 128/29/94
f 130/31/97 21/30/96 129/30/95
f 21/30/96 130/31/97 131/31/98
f 132/31/99 21/30/96 131/31/98
f 21/30/96 132/31/99 133/30/100
f 135/31/103 25/30/102 134/30/101
f 25/30/102 135/31/103 136/31/104
f 137/31/106 134/30/101 23/30/105
f 134/30/101 137/31/106 135/31/103
f 19/30/109 139/31/108 138/31/107
f 139/31/108 19/30/109 140/30/110
f 137/31/106 133/30/100 132/31/99
f 133/30/100 137/31/106 23/30/105
f 138/31/107 129/30/95 19/30/109
f 129/30/95 138/31/107 130/31/97
f 139/31/108 125/29/111 138/31/107
f 125/29/111 139/31/108 128/29/112
f 114/29/114 132/31/99 113/29/113
f 132/31/99 114/29/114 137/31/106
f 122/29/115 136/31/104 135/31/103
f 136/31/104 122/29/115 126/29/116
f 139/31/108 126/29/116 128/29/112
f 126/29/116 139/31/108 136/31/104
f 114/29/114 135/31/103 137/31/106
f 135/31/103 114/29/114 122/29/115
f 115/29/117 132/31/99 131/31/98
f 132/31/99 115/29/117 113/29/113
f 119/29/118 131/31/98 130/31/97
f 131/31/98 119/29/118 115/29/117
f 125/29/111 130/31/97 138/31/107
f 130/31/97 125/29/111 119/29/118
f 140/30/110 136/31/104 139/31/108
f 136/31/104 140/30/110 25/30/102
f 143/32/121 142/32/120 141/32/119
f 142/32/120 143/32/121 144/32/122
f 142/32/120 144/32/122 145/32/123
f 145/32/123 144/32/122 146/32/124
f 145/32/123 146/32/124 147/32/125
f 147/32/125 146/32/124 148/32/126
f 124/29/128 148/32/126 127/29/127
f 148/32/126 124/29/128 147/32/125
f 120/29/129 146/32/124 144/32/122
f 146/32/124 120/29/129 121/29/130
f 123/29/131 142/32/120 145/32/123
f 142/32/120 123/29/131 118/29/132
f 127/29/127 146/32/124 121/29/130
f 146/32/124 127/29/127 148/32/126
f 117/29/133 144/32/122 143/32/121
f 144/32/122 117/29/133 120/29/129
f 141/32/119 118/29/132 116/29/134
f 118/29/132 141/32/119 142/32/120
f 143/32/121 116/29/134 117/29/133
f 116/29/134 143/32/121 141/32/119
f 124/29/128 145/32/123 147/32/125
f 145/32/123 124/29/128 123/29/131

g pot




usemtl colormap

f 3/1/2 2/2/1 1/1/1
f 2/2/1 3/1/2 4/2/2
f 7/2/3 6/1/4 5/1/3
f 6/1/4 7/2/3 8/2/4
f 10/2/5 5/1/3 9/1/5
f 5/1/3 10/2/5 7/2/3
f 13/2/6 12/1/7 11/1/6
f 12/1/7 13/2/6 14/2/7
f 16/2/8 11/1/6 15/1/8
f 11/1/6 16/2/8 13/2/6
f 9/1/5 2/2/1 10/2/5
f 2/2/1 9/1/5 1/1/1
f 14/2/7 3/1/2 12/1/7
f 3/1/2 14/2/7 4/2/2
f 16/2/8 6/1/4 8/2/4
f 6/1/4 16/2/8 15/1/8
f 17/4/9 1/3/10 9/3/9
f 1/3/10 17/4/9 18/4/10
f 19/6/11 7/5/12 10/5/11
f 7/5/12 19/6/11 20/6/12
f 21/6/13 16/5/14 8/5/13
f 16/5/14 21/6/13 22/6/14
f 23/6/15 14/5/16 13/5/15
f 14/5/16 23/6/15 24/6/16
f 24/6/16 4/5/17 14/5/16
f 4/5/17 24/6/16 25/6/17
f 20/6/12 8/5/13 7/5/12
f 8/5/13 20/6/12 21/6/13
f 11/3/19 26/4/18 15/3/18
f 26/4/18 11/3/19 27/4/19
f 18/4/10 3/3/20 1/3/10
f 3/3/20 18/4/10 28/4/20
f 15/3/18 29/4/21 6/3/21
f 29/4/21 15/3/18 26/4/18
f 2/5/22 19/6/11 10/5/11
f 19/6/11 2/5/22 30/6/22
f 11/3/19 31/4/23 27/4/19
f 31/4/23 11/3/19 12/3/23
f 12/3/23 28/4/20 31/4/23
f 28/4/20 12/3/23 3/3/20
f 4/5/17 30/6/22 2/5/22
f 30/6/22 4/5/17 25/6/17
f 27/4/24 29/4/24 26/4/24
f 29/4/24 27/4/24 31/4/24
f 29/4/24 31/4/24 32/4/24
f 32/4/24 31/4/24 28/4/24
f 32/4/24 28/4/24 17/4/24
f 17/4/24 28/4/24 18/4/24
f 22/6/14 13/5/15 16/5/14
f 13/5/15 22/6/14 23/6/15
f 5/3/25 29/4/21 32/4/25
f 29/4/21 5/3/25 6/3/21
f 9/3/9 32/4/25 17/4/9
f 32/4/25 9/3/9 5/3/25
f 35/9/28 34/8/27 33/7/26
f 34/8/27 35/9/28 36/10/29
f 39/8/32 38/12/31 37/11/30
f 38/12/31 39/8/32 40/13/33
f 41/14/34 34/8/27 36/10/29
f 34/8/27 41/14/34 42/13/35
f 44/15/37 39/8/32 43/7/36
f 39/8/32 44/15/37 45/11/38
f 33/7/26 47/16/40 46/4/39
f 47/16/40 33/7/26 48/9/41
f 42/13/35 50/17/43 49/14/42
f 50/17/43 42/13/35 51/18/44
f 34/8/27 48/9/41 33/7/26
f 48/9/41 34/8/27 52/19/45
f 53/16/46 33/7/26 46/4/39
f 33/7/26 53/16/46 35/9/28
f 50/17/43 40/13/33 54/12/47
f 40/13/33 50/17/43 51/18/44
f 55/17/48 42/13/35 41/14/34
f 42/13/35 55/17/48 51/18/44
f 39/8/32 56/15/49 43/7/36
f 56/15/49 39/8/32 37/11/30
f 43/7/36 53/16/46 46/4/39
f 53/16/46 43/7/36 56/15/49
f 54/12/47 39/8/32 45/11/38
f 39/8/32 54/12/47 40/13/33
f 34/8/27 49/14/42 52/19/45
f 49/14/42 34/8/27 42/13/35
f 47/16/40 43/7/36 46/4/39
f 43/7/36 47/16/40 44/15/37
f 40/13/33 55/17/48 38/12/31
f 55/17/48 40/13/33 51/18/44
f 59/20/50 58/21/51 57/20/50
f 58/21/51 59/20/50 60/22/51
f 63/24/53 62/23/52 61/23/52
f 62/23/52 63/24/53 64/24/53
f 67/26/55 66/25/54 65/25/54
f 66/25/54 67/26/55 68/26/55
f 65/25/54 61/23/52 62/23/52
f 61/23/52 65/25/54 66/25/54
f 70/27/56 60/22/51 69/27/56
f 60/22/51 70/27/56 58/21/51
f 71/28/57 64/24/53 63/24/53
f 64/24/53 71/28/57 72/28/57
f 71/28/57 69/27/56 72/28/57
f 69/27/56 71/28/57 70/27/56
f 67/26/55 57/20/50 68/26/55
f 57/20/50 67/26/55 59/20/50
f 45/11/38 71/28/58 63/24/58
f 45/11/38 63/24/58 61/23/58
f 44/15/37 71/28/58 45/11/38
f 45/11/38 61/23/58 54/12/47
f 44/15/37 70/27/58 71/28/58
f 70/27/58 44/15/37 47/16/40
f 48/9/41 70/27/58 47/16/40
f 70/27/58 48/9/41 58/21/58
f 54/12/47 61/23/58 66/25/58
f 54/12/47 66/25/58 50/17/43
f 66/25/58 49/14/42 50/17/43
f 68/26/58 49/14/42 66/25/58
f 58/21/58 48/9/41 52/19/45
f 68/26/58 52/19/45 49/14/42
f 58/21/58 52/19/45 57/20/58
f 57/20/58 52/19/45 68/26/58
f 36/10/29 60/22/59 59/20/59
f 36/10/29 59/20/59 67/26/59
f 35/9/28 60/22/59 36/10/29
f 36/10/29 67/26/59 41/14/34
f 35/9/28 69/27/59 60/22/59
f 69/27/59 35/9/28 53/16/46
f 56/15/49 69/27/59 53/16/46
f 69/27/59 56/15/49 72/28/59
f 41/14/34 67/26/59 65/25/59
f 41/14/34 65/25/59 55/17/48
f 65/25/59 38/12/31 55/17/48
f 62/23/59 38/12/31 65/25/59
f 72/28/59 56/15/49 37/11/30
f 62/23/59 37/11/30 38/12/31
f 72/28/59 37/11/30 64/24/59
f 64/24/59 37/11/30 62/23/59
f 75/9/62 74/8/61 73/7/60
f 74/8/61 75/9/62 76/10/63
f 79/8/66 78/12/65 77/11/64
f 78/12/65 79/8/66 80/13/67
f 81/14/68 74/8/61 76/10/63
f 74/8/61 81/14/68 82/13/69
f 84/15/71 79/8/66 83/7/70
f 79/8/66 84/15/71 85/11/72
f 73/7/60 87/16/74 86/4/73
f 87/16/74 73/7/60 88/9/75
f 82/13/69 90/17/77 89/14/76
f 90/17/77 82/13/69 91/18/78
f 74/8/61 88/9/75 73/7/60
f 88/9/75 74/8/61 92/19/79
f 93/16/80 73/7/60 86/4/73
f 73/7/60 93/16/80 75/9/62
f 90/17/77 80/13/67 94/12/81
f 80/13/67 90/17/77 91/18/78
f 95/17/82 82/13/69 81/14/68
f 82/13/69 95/17/82 91/18/78
f 79/8/66 96/15/83 83/7/70
f 96/15/83 79/8/66 77/11/64
f 83/7/70 93/16/80 86/4/73
f 93/16/80 83/7/70 96/15/83
f 94/12/81 79/8/66 85/11/72
f 79/8/66 94/12/81 80/13/67
f 74/8/61 89/14/76 92/19/79
f 89/14/76 74/8/61 82/13/69
f 87/16/74 83/7/70 86/4/73
f 83/7/70 87/16/74 84/15/71
f 80/13/67 95/17/82 78/12/65
f 95/17/82 80/13/67 91/18/78
f 99/20/84 98/21/85 97/20/84
f 98/21/85 99/20/84 100/22/85
f 103/24/87 102/23/86 101/23/86
f 102/23/86 103/24/87 104/24/87
f 107/26/89 106/25/88 105/25/88
f 106/25/88 107/26/89 108/26/89
f 105/25/88 101/23/86 102/23/86
f 101/23/86 105/25/88 106/25/88
f 110/27/90 100/22/85 109/27/90
f 100/22/85 110/27/90 98/21/85
f 111/28/91 104/24/87 103/24/87
f 104/24/87 111/28/91 112/28/91
f 111/28/91 109/27/90 112/28/91
f 109/27/90 111/28/91 110/27/90
f 107/26/89 97/20/84 108/26/89
f 97/20/84 107/26/89 99/20/84
f 85/11/72 111/28/92 103/24/92
f 85/11/72 103/24/92 101/23/92
f 84/15/71 111/28/92 85/11/72
f 85/11/72 101/23/92 94/12/81
f 84/15/71 110/27/92 111/28/92
f 110/27/92 84/15/71 87/16/74
f 88/9/75 110/27/92 87/16/74
f 110/27/92 88/9/75 98/21/92
f 94/12/81 101/23/92 106/25/92
f 94/12/81 106/25/92 90/17/77
f 106/25/92 89/14/76 90/17/77
f 108/26/92 89/14/76 106/25/92
f 98/21/92 88/9/75 92/19/79
f 108/26/92 92/19/79 89/14/76
f 98/21/92 92/19/79 97/20/92
f 97/20/92 92/19/79 108/26/92
f 76/10/63 100/22/93 99/20/93
f 76/10/63 99/20/93 107/26/93
f 75/9/62 100/22/93 76/10/63
f 76/10/63 107/26/93 81/14/68
f 75/9/62 109/27/93 100/22/93
f 109/27/93 75/9/62 93/16/80
f 96/15/83 109/27/93 93/16/80
f 109/27/93 96/15/83 112/28/93
f 81/14/68 107/26/93 105/25/93
f 81/14/68 105/25/93 95/17/82
f 105/25/93 78/12/65 95/17/82
f 102/23/93 78/12/65 105/25/93
f 112/28/93 96/15/83 77/11/64
f 102/23/93 77/11/64 78/12/65
f 112/28/93 77/11/64 104/24/93
f 104/24/93 77/11/64 102/23/93
f 115/29/94 114/29/94 113/29/94
f 114/29/94 115/29/94 116/29/94
f 116/29/94 115/29/94 117/29/94
f 118/29/94 114/29/94 116/29/94
f 117/29/94 115/29/94 119/29/94
f 117/29/94 119/29/94 120/29/94
f 120/29/94 119/29/94 121/29/94
f 114/29/94 118/29/94 122/29/94
f 122/29/94 118/29/94 123/29/94
f 122/29/94 123/29/94 124/29/94
f 121/29/94 119/29/94 125/29/94
f 122/29/94 124/29/94 126/29/94
f 121/29/94 125/29/94 127/29/94
f 126/29/94 124/29/94 127/29/94
f 126/29/94 127/29/94 125/29/94
f 126/29/94 125/29/94 128/29/94
f 130/31/97 21/30/96 129/30/95
f 21/30/96 130/31/97 131/31/98
f 132/31/99 21/30/96 131/31/98
f 21/30/96 132/31/99 133/30/100
f 135/31/103 25/30/102 134/30/101
f 25/30/102 135/31/103 136/31/104
f 137/31/106 134/30/101 23/30/105
f 134/30/101 137/31/106 135/31/103
f 19/30/109 139/31/108 138/31/107
f 139/31/108 19/30/109 140/30/110
f 137/31/106 133/30/100 132/31/99
f 133/30/100 137/31/106 23/30/105
f 138/31/107 129/30/95 19/30/109
f 129/30/95 138/31/107 130/31/97
f 139/31/108 125/29/111 138/31/107
f 125/29/111 139/31/108 128/29/112
f 114/29/114 132/31/99 113/29/113
f 132/31/99 114/29/114 137/31/106
f 122/29/115 136/31/104 135/31/103
f 136/31/104 122/29/115 126/29/116
f 139/31/108 126/29/116 128/29/112
f 126/29/116 139/31/108 136/31/104
f 114/29/114 135/31/103 137/31/106
f 135/31/103 114/29/114 122/29/115
f 115/29/117 132/31/99 131/31/98
f 132/31/99 115/29/117 113/29/113
f 119/29/118 131/31/98 130/31/97
f 131/31/98 119/29/118 115/29/117
f 125/29/111 130/31/97 138/31/107
f 130/31/97 125/29/111 119/29/118
f 140/30/110 136/31/104 139/31/108
f 136/31/104 140/30/110 25/30/102
f 143/32/121 142/32/120 141/32/119
f 142/32/120 143/32/121 144/32/122
f 142/32/120 144/32/122 145/32/123
f 145/32/123 144/32/122 146/32/124
f 145/32/123 146/32/124 147/32/125
f 147/32/125 146/32/124 148/32/126
f 124/29/128 148/32/126 127/29/127
f 148/32/126 124/29/128 147/32/125
f 120/29/129 146/32/124 144/32/122
f 146/32/124 120/29/129 121/29/130
f 123/29/131 142/32/120 145/32/123
f 142/32/120 123/29/131 118/29/132
f 127/29/127 146/32/124 121/29/130
f 146/32/124 127/29/127 148/32/126
f 117/29/133 144/32/122 143/32/121
f 144/32/122 117/29/133 120/29/129
f 141/32/119 118/29/132 116/29/134
f 118/29/132 141/32/119 142/32/120
f 143/32/121 116/29/134 117/29/133
f 116/29/134 143/32/121 141/32/119
f 124/29/128 145/32/123 147/32/125
f 145/32/123 124/29/128 123/29/131

