# Created by Kenney (www.kenney.nl)

mtllib potion.mtl

g potion

v 0.118 0 7.219114E-15 1 1 1
v 0.08343861 0 -0.08343861 1 1 1
v 0.08343861 0 0.08343861 1 1 1
v -7.219114E-16 0 0.118 1 1 1
v -7.219114E-16 0 -0.118 1 1 1
v -0.08343861 0 0.08343861 1 1 1
v -0.08343861 0 -0.08343861 1 1 1
v -0.118 0 7.219114E-15 1 1 1
v 0.1159797 0.059 0.1159797 1 1 1
v -2.52669E-15 0.059 0.16402 1 1 1
v 0.1048832 0.1520194 0.1048832 1 1 1
v -3.248601E-15 0.1520194 0.1483272 1 1 1
v 0.1159797 0.059 -0.1159797 1 1 1
v 0.16402 0.059 5.775291E-15 1 1 1
v 0.1048832 0.1520194 -0.1048832 1 1 1
v 0.1483272 0.1520194 4.331469E-15 1 1 1
v -0.16402 0.059 5.775291E-15 1 1 1
v -0.1159797 0.059 0.1159797 1 1 1
v -2.52669E-15 0.059 -0.16402 1 1 1
v -2.165734E-15 0.1520194 -0.1483272 1 1 1
v -0.1048832 0.1520194 0.1048832 1 1 1
v -0.1159797 0.059 -0.1159797 1 1 1
v -0.1048832 0.1520194 -0.1048832 1 1 1
v -0.1483272 0.1520194 2.165734E-15 1 1 1
v 0.05798983 0.236 -0.05798983 1 1 1
v 0.08201 0.236 2.165734E-15 1 1 1
v 0.05798983 0.236 0.05798983 1 1 1
v -0.05798983 0.236 -0.05798983 1 1 1
v -2.165734E-15 0.236 -0.08201 1 1 1
v -2.165734E-15 0.236 0.08201 1 1 1
v -0.05798983 0.236 0.05798983 1 1 1
v -0.08201 0.236 2.165734E-15 1 1 1
v 0.1107135 0.236 2.140468E-15 1 1 1
v 0.07828627 0.236 -0.07828627 1 1 1
v 0.07828627 0.236 0.07828627 1 1 1
v -2.085963E-15 0.236 0.1107135 1 1 1
v -2.085963E-15 0.236 -0.1107135 1 1 1
v -0.07828627 0.236 0.07828627 1 1 1
v -0.07828627 0.236 -0.07828627 1 1 1
v -0.1107135 0.236 2.140468E-15 1 1 1
v 0.1107135 0.295 2.140468E-15 1 1 1
v 0.07828627 0.295 0.07828627 1 1 1
v 0.07828627 0.295 -0.07828627 1 1 1
v -2.085963E-15 0.295 -0.1107135 1 1 1
v -2.085963E-15 0.295 0.1107135 1 1 1
v -0.07828627 0.295 -0.07828627 1 1 1
v -0.07828627 0.295 0.07828627 1 1 1
v -0.1107135 0.295 2.140468E-15 1 1 1
v -0.08676627 0.382085 -4.680762E-15 1 1 1
v -0.06135302 0.382085 0.06135302 1 1 1
v -0.0697495 0.295 -1.420498E-15 1 1 1
v -0.04932035 0.295 0.04932035 1 1 1
v 0.04932035 0.295 0.04932035 1 1 1
v -3.66139E-16 0.295 0.0697495 1 1 1
v 0.06135302 0.382085 0.06135302 1 1 1
v 3.583641E-16 0.382085 0.08676627 1 1 1
v 0.06135302 0.382085 -0.06135302 1 1 1
v 0.04932035 0.295 -0.04932035 1 1 1
v 0.08676627 0.382085 -5.043013E-15 1 1 1
v 0.0697495 0.295 -1.420498E-15 1 1 1
v -0.06135302 0.382085 -0.06135302 1 1 1
v -0.04932035 0.295 -0.04932035 1 1 1
v -3.66139E-16 0.295 -0.0697495 1 1 1
v 3.583641E-16 0.382085 -0.08676627 1 1 1
v 0.06867658 0.402085 -5.405265E-15 1 1 1
v 0.04856168 0.402085 0.04856168 1 1 1
v 0.04856168 0.402085 -0.04856168 1 1 1
v 3.583641E-16 0.402085 0.06867658 1 1 1
v 3.583641E-16 0.402085 -0.06867658 1 1 1
v -0.04856168 0.402085 -0.04856168 1 1 1
v -0.04856168 0.402085 0.04856168 1 1 1
v -0.06867658 0.402085 -5.405265E-15 1 1 1

vn 0.5184963 -0.8550799 0
vn 0.3666323 -0.8550799 -0.3666323
vn 0.3666323 -0.8550799 0.3666323
vn 0 -0.8550799 0.5184963
vn 0 -0.8550799 -0.5184963
vn -0.3666323 -0.8550799 0.3666323
vn -0.3666323 -0.8550799 -0.3666323
vn -0.5184963 -0.8550799 0
vn 0.6890458 -0.2245706 0.6890458
vn 0 -0.2245706 0.9744579
vn 0.6526517 0.3848269 0.6526517
vn 0 0.3848269 0.9229887
vn 0.6890458 -0.2245706 -0.6890458
vn 0.9744579 -0.2245706 0
vn 0.6526517 0.3848269 -0.6526517
vn 0.9229887 0.3848269 0
vn -0.9744579 -0.2245706 0
vn -0.6890458 -0.2245706 0.6890458
vn 0 -0.2245706 -0.9744579
vn 0 0.3848269 -0.9229887
vn -0.6526517 0.3848269 0.6526517
vn -0.6890458 -0.2245706 -0.6890458
vn -0.6526517 0.3848269 -0.6526517
vn -0.9229887 0.3848269 0
vn 0.5549421 0.6197406 -0.5549421
vn 0.7848067 0.6197407 0
vn 0.5549421 0.6197406 0.5549421
vn -0.5549421 0.6197406 -0.5549421
vn 0 0.6197407 -0.7848067
vn 0 0.6197407 0.7848067
vn -0.5549421 0.6197406 0.5549421
vn -0.7848067 0.6197407 0
vn 0 -1 0
vn 0 1 0
vn -0.7071068 0 -0.7071068
vn 0 0 -1
vn -1 0 0
vn -0.7071068 0 0.7071068
vn 0 0 1
vn 0.7071068 0 0.7071068
vn 1 0 0
vn 0.7071068 0 -0.7071068
vn -0.9894512 0.1448668 0
vn -0.6996477 0.1448668 0.6996477
vn -0.9814385 -0.1917771 0
vn -0.6939818 -0.1917771 0.6939818
vn 0.6939818 -0.1917771 0.6939818
vn 0 -0.1917771 0.9814385
vn 0.6996477 0.1448668 0.6996477
vn 0 0.1448668 0.9894512
vn 0.6996477 0.1448668 -0.6996477
vn 0.6939818 -0.1917771 -0.6939818
vn 0.9894512 0.1448668 0
vn 0.9814385 -0.1917771 0
vn -0.6996477 0.1448668 -0.6996477
vn -0.6939818 -0.1917771 -0.6939818
vn 0 -0.1917771 -0.9814385
vn 0 0.1448668 -0.9894512
vn 0.544206 0.8389517 0
vn 0.3848117 0.8389517 0.3848117
vn 0.3848117 0.8389517 -0.3848117
vn 0 0.8389517 0.544206
vn 0 0.8389517 -0.544206
vn -0.3848117 0.8389517 -0.3848117
vn -0.3848117 0.8389517 0.3848117
vn -0.544206 0.8389517 0

vt 0.96875 0.025
vt 0.96875 0.325
vt 0.96875 0.40383
vt 0.96875 0.275
vt 0.84375 0.15383
vt 0.84375 0.225
vt 0.84375 0.075
vt 0.84375 0.175
vt 0.09375 0.4376465
vt 0.09375 0.275
vt 0.09375 0.475

usemtl colormap

f 3/1/3 2/1/2 1/1/1
f 2/1/2 3/1/3 4/1/4
f 2/1/2 4/1/4 5/1/5
f 5/1/5 4/1/4 6/1/6
f 5/1/5 6/1/6 7/1/7
f 7/1/7 6/1/6 8/1/8
f 11/3/11 10/2/10 9/2/9
f 10/2/10 11/3/11 12/3/12
f 15/3/15 14/2/14 13/2/13
f 14/2/14 15/3/15 16/3/16
f 8/4/8 18/2/18 17/2/17
f 18/2/18 8/4/8 6/4/6
f 20/3/20 13/2/13 19/2/19
f 13/2/13 20/3/20 15/3/15
f 12/3/12 18/2/18 10/2/10
f 18/2/18 12/3/12 21/3/21
f 19/2/19 2/4/2 5/4/5
f 2/4/2 19/2/19 13/2/13
f 10/2/10 6/4/6 4/4/4
f 6/4/6 10/2/10 18/2/18
f 17/2/17 23/3/23 22/2/22
f 23/3/23 17/2/17 24/3/24
f 9/2/9 1/4/1 14/2/14
f 1/4/1 9/2/9 3/4/3
f 9/2/9 4/4/4 3/4/3
f 4/4/4 9/2/9 10/2/10
f 22/2/22 5/4/5 7/4/7
f 5/4/5 22/2/22 19/2/19
f 7/4/7 17/2/17 22/2/22
f 17/2/17 7/4/7 8/4/8
f 14/2/14 2/4/2 13/2/13
f 2/4/2 14/2/14 1/4/1
f 23/3/23 19/2/19 22/2/22
f 19/2/19 23/3/23 20/3/20
f 17/2/17 21/3/21 24/3/24
f 21/3/21 17/2/17 18/2/18
f 11/3/11 14/2/14 16/3/16
f 14/2/14 11/3/11 9/2/9
f 25/6/25 16/5/16 15/5/15
f 16/5/16 25/6/25 26/6/26
f 27/6/27 16/5/16 26/6/26
f 16/5/16 27/6/27 11/5/11
f 28/6/28 20/5/20 23/5/23
f 20/5/20 28/6/28 29/6/29
f 27/6/27 12/5/12 11/5/11
f 12/5/12 27/6/27 30/6/30
f 30/6/30 21/5/21 12/5/12
f 21/5/21 30/6/30 31/6/31
f 21/5/21 32/6/32 24/5/24
f 32/6/32 21/5/21 31/6/31
f 24/5/24 28/6/28 23/5/23
f 28/6/28 24/5/24 32/6/32
f 29/6/29 15/5/15 20/5/20
f 15/5/15 29/6/29 25/6/25
f 35/7/33 34/7/33 33/7/33
f 34/7/33 35/7/33 36/7/33
f 34/7/33 36/7/33 37/7/33
f 37/7/33 36/7/33 38/7/33
f 37/7/33 38/7/33 39/7/33
f 39/7/33 38/7/33 40/7/33
f 43/8/34 42/8/34 41/8/34
f 42/8/34 43/8/34 44/8/34
f 42/8/34 44/8/34 45/8/34
f 45/8/34 44/8/34 46/8/34
f 45/8/34 46/8/34 47/8/34
f 47/8/34 46/8/34 48/8/34
f 46/8/35 37/7/36 39/7/35
f 37/7/36 46/8/35 44/8/36
f 40/7/37 46/8/35 39/7/35
f 46/8/35 40/7/37 48/8/37
f 38/7/38 48/8/37 40/7/37
f 48/8/37 38/7/38 47/8/38
f 45/8/39 38/7/38 36/7/39
f 38/7/38 45/8/39 47/8/38
f 42/8/40 36/7/39 35/7/40
f 36/7/39 42/8/40 45/8/39
f 42/8/40 33/7/41 41/8/41
f 33/7/41 42/8/40 35/7/40
f 41/8/41 34/7/42 43/8/42
f 34/7/42 41/8/41 33/7/41
f 44/8/36 34/7/42 37/7/36
f 34/7/42 44/8/36 43/8/42
f 51/10/45 50/9/44 49/9/43
f 50/9/44 51/10/45 52/10/46
f 55/9/49 54/10/48 53/10/47
f 54/10/48 55/9/49 56/9/50
f 59/9/53 58/10/52 57/9/51
f 58/10/52 59/9/53 60/10/54
f 62/10/56 49/9/43 61/9/55
f 49/9/43 62/10/56 51/10/45
f 56/9/50 52/10/46 54/10/48
f 52/10/46 56/9/50 50/9/44
f 64/9/58 58/10/52 63/10/57
f 58/10/52 64/9/58 57/9/51
f 61/9/55 63/10/57 62/10/56
f 63/10/57 61/9/55 64/9/58
f 55/9/49 60/10/54 59/9/53
f 60/10/54 55/9/49 53/10/47
f 67/11/61 66/11/60 65/11/59
f 66/11/60 67/11/61 68/11/62
f 68/11/62 67/11/61 69/11/63
f 68/11/62 69/11/63 70/11/64
f 68/11/62 70/11/64 71/11/65
f 71/11/65 70/11/64 72/11/66
f 72/11/66 50/9/44 71/11/65
f 50/9/44 72/11/66 49/9/43
f 66/11/60 56/9/50 55/9/49
f 56/9/50 66/11/60 68/11/62
f 57/9/51 65/11/59 59/9/53
f 65/11/59 57/9/51 67/11/61
f 65/11/59 55/9/49 59/9/53
f 55/9/49 65/11/59 66/11/60
f 71/11/65 56/9/50 68/11/62
f 56/9/50 71/11/65 50/9/44
f 61/9/55 69/11/63 64/9/58
f 69/11/63 61/9/55 70/11/64
f 61/9/55 72/11/66 70/11/64
f 72/11/66 61/9/55 49/9/43
f 64/9/58 67/11/61 57/9/51
f 67/11/61 64/9/58 69/11/63

g potion




usemtl colormap

f 3/1/3 2/1/2 1/1/1
f 2/1/2 3/1/3 4/1/4
f 2/1/2 4/1/4 5/1/5
f 5/1/5 4/1/4 6/1/6
f 5/1/5 6/1/6 7/1/7
f 7/1/7 6/1/6 8/1/8
f 11/3/11 10/2/10 9/2/9
f 10/2/10 11/3/11 12/3/12
f 15/3/15 14/2/14 13/2/13
f 14/2/14 15/3/15 16/3/16
f 8/4/8 18/2/18 17/2/17
f 18/2/18 8/4/8 6/4/6
f 20/3/20 13/2/13 19/2/19
f 13/2/13 20/3/20 15/3/15
f 12/3/12 18/2/18 10/2/10
f 18/2/18 12/3/12 21/3/21
f 19/2/19 2/4/2 5/4/5
f 2/4/2 19/2/19 13/2/13
f 10/2/10 6/4/6 4/4/4
f 6/4/6 10/2/10 18/2/18
f 17/2/17 23/3/23 22/2/22
f 23/3/23 17/2/17 24/3/24
f 9/2/9 1/4/1 14/2/14
f 1/4/1 9/2/9 3/4/3
f 9/2/9 4/4/4 3/4/3
f 4/4/4 9/2/9 10/2/10
f 22/2/22 5/4/5 7/4/7
f 5/4/5 22/2/22 19/2/19
f 7/4/7 17/2/17 22/2/22
f 17/2/17 7/4/7 8/4/8
f 14/2/14 2/4/2 13/2/13
f 2/4/2 14/2/14 1/4/1
f 23/3/23 19/2/19 22/2/22
f 19/2/19 23/3/23 20/3/20
f 17/2/17 21/3/21 24/3/24
f 21/3/21 17/2/17 18/2/18
f 11/3/11 14/2/14 16/3/16
f 14/2/14 11/3/11 9/2/9
f 25/6/25 16/5/16 15/5/15
f 16/5/16 25/6/25 26/6/26
f 27/6/27 16/5/16 26/6/26
f 16/5/16 27/6/27 11/5/11
f 28/6/28 20/5/20 23/5/23
f 20/5/20 28/6/28 29/6/29
f 27/6/27 12/5/12 11/5/11
f 12/5/12 27/6/27 30/6/30
f 30/6/30 21/5/21 12/5/12
f 21/5/21 30/6/30 31/6/31
f 21/5/21 32/6/32 24/5/24
f 32/6/32 21/5/21 31/6/31
f 24/5/24 28/6/28 23/5/23
f 28/6/28 24/5/24 32/6/32
f 29/6/29 15/5/15 20/5/20
f 15/5/15 29/6/29 25/6/25
f 35/7/33 34/7/33 33/7/33
f 34/7/33 35/7/33 36/7/33
f 34/7/33 36/7/33 37/7/33
f 37/7/33 36/7/33 38/7/33
f 37/7/33 38/7/33 39/7/33
f 39/7/33 38/7/33 40/7/33
f 43/8/34 42/8/34 41/8/34
f 42/8/34 43/8/34 44/8/34
f 42/8/34 44/8/34 45/8/34
f 45/8/34 44/8/34 46/8/34
f 45/8/34 46/8/34 47/8/34
f 47/8/34 46/8/34 48/8/34
f 46/8/35 37/7/36 39/7/35
f 37/7/36 46/8/35 44/8/36
f 40/7/37 46/8/35 39/7/35
f 46/8/35 40/7/37 48/8/37
f 38/7/38 48/8/37 40/7/37
f 48/8/37 38/7/38 47/8/38
f 45/8/39 38/7/38 36/7/39
f 38/7/38 45/8/39 47/8/38
f 42/8/40 36/7/39 35/7/40
f 36/7/39 42/8/40 45/8/39
f 42/8/40 33/7/41 41/8/41
f 33/7/41 42/8/40 35/7/40
f 41/8/41 34/7/42 43/8/42
f 34/7/42 41/8/41 33/7/41
f 44/8/36 34/7/42 37/7/36
f 34/7/42 44/8/36 43/8/42
f 51/10/45 50/9/44 49/9/43
f 50/9/44 51/10/45 52/10/46
f 55/9/49 54/10/48 53/10/47
f 54/10/48 55/9/49 56/9/50
f 59/9/53 58/10/52 57/9/51
f 58/10/52 59/9/53 60/10/54
f 62/10/56 49/9/43 61/9/55
f 49/9/43 62/10/56 51/10/45
f 56/9/50 52/10/46 54/10/48
f 52/10/46 56/9/50 50/9/44
f 64/9/58 58/10/52 63/10/57
f 58/10/52 64/9/58 57/9/51
f 61/9/55 63/10/57 62/10/56
f 63/10/57 61/9/55 64/9/58
f 55/9/49 60/10/54 59/9/53
f 60/10/54 55/9/49 53/10/47
f 67/11/61 66/11/60 65/11/59
f 66/11/60 67/11/61 68/11/62
f 68/11/62 67/11/61 69/11/63
f 68/11/62 69/11/63 70/11/64
f 68/11/62 70/11/64 71/11/65
f 71/11/65 70/11/64 72/11/66
f 72/11/66 50/9/44 71/11/65
f 50/9/44 72/11/66 49/9/43
f 66/11/60 56/9/50 55/9/49
f 56/9/50 66/11/60 68/11/62
f 57/9/51 65/11/59 59/9/53
f 65/11/59 57/9/51 67/11/61
f 65/11/59 55/9/49 59/9/53
f 55/9/49 65/11/59 66/11/60
f 71/11/65 56/9/50 68/11/62
f 56/9/50 71/11/65 50/9/44
f 61/9/55 69/11/63 64/9/58
f 69/11/63 61/9/55 70/11/64
f 61/9/55 72/11/66 70/11/64
f 72/11/66 61/9/55 49/9/43
f 64/9/58 67/11/61 57/9/51
f 67/11/61 64/9/58 69/11/63

