# Created by Kenney (www.kenney.nl)

mtllib table.mtl

g table

v 0.4 0.314595 0.2875 1 1 1
v 0.4 0.195 0.2875 1 1 1
v 0.4375 0.314595 6.519244E-09 1 1 1
v 0.4375 0.195 6.519244E-09 1 1 1
v 0.4 0.195 -0.2875 1 1 1
v 0.1625 0.195 -0.325 1 1 1
v 0.4 0.314595 -0.2875 1 1 1
v 0.1625 0.314595 -0.325 1 1 1
v 0.2969905 0.195 0.3037646 1 1 1
v 0.2273491 0.195 0.2699508 1 1 1
v 0.1625 0.195 0.325 1 1 1
v -0.1208901 0.195 -0.325 1 1 1
v -0.1625 0.195 0.325 1 1 1
v -0.1566189 0.195 -0.2838078 1 1 1
v -0.1977018 0.195 -0.3194418 1 1 1
v -0.4 0.195 0.2875 1 1 1
v -0.4 0.195 -0.2875 1 1 1
v -0.4375 0.195 -6.519223E-09 1 1 1
v -0.4375 0.314595 -6.519223E-09 1 1 1
v -0.4 0.314595 -0.2875 1 1 1
v -0.4 0.314595 0.2875 1 1 1
v -0.1625 0.314595 0.325 1 1 1
v -0.1977018 0.314595 -0.3194418 1 1 1
v -0.1208901 0.314595 -0.325 1 1 1
v 0.1625 0.314595 0.325 1 1 1
v 0.2969905 0.314595 0.3037646 1 1 1
v 0.2273491 0.314595 0.2699508 1 1 1
v -0.1566189 0.314595 -0.2838078 1 1 1
v 0.3325 0.08357143 0.21889 1 1 1
v 0.3325 0.08357143 -0.21889 1 1 1
v -0.3325 0.08357143 0.21889 1 1 1
v -0.3325 0.08357143 -0.21889 1 1 1
v -0.3325 0.195 -0.21889 1 1 1
v 0.3325 0.195 -0.21889 1 1 1
v 0.3325 0.195 0.21889 1 1 1
v -0.3325 0.195 0.21889 1 1 1
v 0.410375 -3.00556E-32 -0.225 1 1 1
v 0.4003125 -3.00556E-32 -0.1746875 1 1 1
v 0.4003125 -3.00556E-32 -0.2753125 1 1 1
v 0.35 -3.00556E-32 -0.285375 1 1 1
v 0.35 -3.00556E-32 -0.164625 1 1 1
v 0.2996875 -3.00556E-32 -0.2753125 1 1 1
v 0.2996875 -3.00556E-32 -0.1746875 1 1 1
v 0.289625 -3.00556E-32 -0.225 1 1 1
v 0.2389062 0.195 -0.1389062 1 1 1
v 0.3 0.195 -0.1266875 1 1 1
v 0.3 0.195 -0.2733125 1 1 1
v 0.2389062 0.195 -0.2610937 1 1 1
v 0.2266875 0.195 -0.2 1 1 1
v 0.3733125 0.195 -0.2 1 1 1
v 0.3610938 0.195 -0.2610937 1 1 1
v 0.3610938 0.195 -0.1389062 1 1 1
v -0.410375 -3.00556E-32 0.225 1 1 1
v -0.4003125 -3.00556E-32 0.1746875 1 1 1
v -0.4003125 -3.00556E-32 0.2753125 1 1 1
v -0.35 -3.00556E-32 0.285375 1 1 1
v -0.35 -3.00556E-32 0.164625 1 1 1
v -0.2996875 -3.00556E-32 0.2753125 1 1 1
v -0.2996875 -3.00556E-32 0.1746875 1 1 1
v -0.289625 -3.00556E-32 0.225 1 1 1
v -0.2389062 0.195 0.1389062 1 1 1
v -0.3 0.195 0.1266875 1 1 1
v -0.3 0.195 0.2733125 1 1 1
v -0.2389062 0.195 0.2610937 1 1 1
v -0.2266875 0.195 0.2 1 1 1
v -0.3733125 0.195 0.2 1 1 1
v -0.3610938 0.195 0.2610937 1 1 1
v -0.3610938 0.195 0.1389062 1 1 1
v -0.410375 -3.00556E-32 -0.225 1 1 1
v -0.4003125 -3.00556E-32 -0.1746875 1 1 1
v -0.4003125 -3.00556E-32 -0.2753125 1 1 1
v -0.35 -3.00556E-32 -0.285375 1 1 1
v -0.35 -3.00556E-32 -0.164625 1 1 1
v -0.2996875 -3.00556E-32 -0.2753125 1 1 1
v -0.2996875 -3.00556E-32 -0.1746875 1 1 1
v -0.289625 -3.00556E-32 -0.225 1 1 1
v -0.2389062 0.195 -0.1389062 1 1 1
v -0.3 0.195 -0.1266875 1 1 1
v -0.3 0.195 -0.2733125 1 1 1
v -0.2389062 0.195 -0.2610937 1 1 1
v -0.2266875 0.195 -0.2 1 1 1
v -0.3733125 0.195 -0.2 1 1 1
v -0.3610938 0.195 -0.2610937 1 1 1
v -0.3610938 0.195 -0.1389062 1 1 1
v 0.410375 -3.00556E-32 0.225 1 1 1
v 0.4003125 -3.00556E-32 0.1746875 1 1 1
v 0.4003125 -3.00556E-32 0.2753125 1 1 1
v 0.35 -3.00556E-32 0.285375 1 1 1
v 0.35 -3.00556E-32 0.164625 1 1 1
v 0.2996875 -3.00556E-32 0.2753125 1 1 1
v 0.2996875 -3.00556E-32 0.1746875 1 1 1
v 0.289625 -3.00556E-32 0.225 1 1 1
v 0.2389062 0.195 0.1389062 1 1 1
v 0.3 0.195 0.1266875 1 1 1
v 0.3 0.195 0.2733125 1 1 1
v 0.2389062 0.195 0.2610937 1 1 1
v 0.2266875 0.195 0.2 1 1 1
v 0.3733125 0.195 0.2 1 1 1
v 0.3610938 0.195 0.2610937 1 1 1
v 0.3610938 0.195 0.1389062 1 1 1

vn 0.9916004 0 0.1293392
vn 1 0 1.490112E-08
vn 0.1559626 0 -0.987763
vn 0.07822096 0 -0.9969361
vn 0.9916004 0 -0.1293392
vn 0 -1 0
vn -1 0 -1.490112E-08
vn -0.9916004 0 -0.1293392
vn -0.9916004 0 0.1293392
vn -0.1559626 0 0.987763
vn -0.07822096 0 0.9969361
vn -0.1559626 0 -0.987763
vn 1.490112E-08 0 -1
vn -1.490112E-08 0 1
vn 0 1 0
vn 0.125582 0 0.9920833
vn -0.4367794 0 0.8995687
vn 0.6471533 0 0.7623599
vn 0.1559626 0 0.987763
vn -0.07084727 0 -0.9974872
vn 0.6552334 0 -0.7554266
vn -0.7554266 0 -0.6552334
vn 0 0 -1
vn 1 0 0
vn 0 0 1
vn -1 0 0
vn -0.1906549 -0.2343467 0.9532745
vn 0.0347266 -0.1822687 0.9826354
vn -0.03205449 -0.1987857 0.9795187
vn 0.03411912 0.0704178 -0.9969339
vn -0.1961056 0.01037097 -0.9805279
vn -0.03501764 0.05275596 -0.9979933
vn -0.9279246 -0.3232865 0.1855849
vn -0.950992 -0.3088544 0.01494212
vn -0.9521558 -0.3051434 -0.01693357
vn 0.9826729 0.1845009 0.01770549
vn 0.9818929 0.1887252 -0.01640059
vn 0.9593551 0.2069378 -0.191871
vn -0.9414387 -0.2797159 -0.1882877
vn 0.194209 -0.1391209 0.971045
vn 0.1949202 0.1102674 -0.974601
vn 0.9680787 0.1591745 0.1936157
vn 0.1906549 -0.2343467 -0.9532745
vn -0.03472661 -0.1822687 -0.9826354
vn 0.03205447 -0.1987857 -0.9795187
vn -0.0341191 0.0704178 0.9969339
vn 0.1961056 0.01037097 0.9805279
vn 0.03501766 0.05275596 0.9979933
vn 0.9279246 -0.3232865 -0.1855849
vn 0.950992 -0.3088544 -0.01494214
vn 0.9521558 -0.3051434 0.01693356
vn -0.9826729 0.1845009 -0.01770547
vn -0.9818929 0.1887252 0.01640061
vn -0.9593551 0.2069378 0.191871
vn 0.9414387 -0.2797159 0.1882877
vn -0.194209 -0.1391209 -0.971045
vn -0.1949202 0.1102674 0.974601
vn -0.9680787 0.1591745 -0.1936157
vn 0.1906549 -0.2343467 0.9532745
vn -0.03472663 -0.1822687 0.9826354
vn 0.03205446 -0.1987857 0.9795187
vn -0.03411909 0.0704178 -0.9969339
vn 0.1961056 0.01037097 -0.9805279
vn 0.03501767 0.05275596 -0.9979933
vn 0.9279246 -0.3232865 0.1855849
vn 0.950992 -0.3088544 0.01494215
vn 0.9521558 -0.3051434 -0.01693354
vn -0.9826729 0.1845009 0.01770546
vn -0.9818929 0.1887252 -0.01640062
vn -0.9593551 0.2069378 -0.191871
vn 0.9414387 -0.2797159 -0.1882877
vn -0.194209 -0.1391209 0.971045
vn -0.1949202 0.1102674 -0.974601
vn -0.9680787 0.1591745 0.1936157
vn -0.1906549 -0.2343467 -0.9532745
vn 0.03472661 -0.1822687 -0.9826354
vn -0.03205447 -0.1987857 -0.9795187
vn 0.0341191 0.0704178 0.9969339
vn -0.1961056 0.01037097 0.9805279
vn -0.03501766 0.05275596 0.9979933
vn -0.9279246 -0.3232865 -0.1855849
vn -0.950992 -0.3088544 -0.01494214
vn -0.9521558 -0.3051434 0.01693356
vn 0.9826729 0.1845009 -0.01770547
vn 0.9818929 0.1887252 0.01640061
vn 0.9593551 0.2069378 0.191871
vn -0.9414387 -0.2797159 0.1882877
vn 0.194209 -0.1391209 -0.971045
vn 0.1949202 0.1102674 0.974601
vn 0.9680787 0.1591745 -0.1936157

vt 0.21875 0.225
vt 0.21875 0.145
vt 0.34375 0.025
vt 0.34375 0.105

usemtl colormap

f 24/1/22 12/2/22 28/1/20
f 14/2/20 28/1/20 12/2/22
f 23/1/21 28/1/20 15/2/21
f 14/2/20 15/2/21 28/1/20
f 1/1/19 26/1/19 2/2/19
f 9/2/19 2/2/19 26/1/19
f 27/1/16 25/1/18 10/2/16
f 11/2/18 10/2/16 25/1/18
f 26/1/17 27/1/16 9/2/17
f 10/2/16 9/2/17 27/1/16
f 19/1/15 21/1/15 20/1/15
f 20/1/15 21/1/15 23/1/15
f 21/1/15 22/1/15 23/1/15
f 23/1/15 22/1/15 28/1/15
f 28/1/15 22/1/15 24/1/15
f 22/1/15 25/1/15 24/1/15
f 24/1/15 25/1/15 8/1/15
f 25/1/15 27/1/15 8/1/15
f 27/1/15 26/1/15 8/1/15
f 26/1/15 1/1/15 8/1/15
f 8/1/15 1/1/15 7/1/15
f 3/1/15 7/1/15 1/1/15
f 25/1/14 22/1/11 11/2/14
f 13/2/11 11/2/14 22/1/11
f 24/1/13 8/1/4 12/2/13
f 6/2/4 12/2/13 8/1/4
f 20/1/12 23/1/12 17/2/12
f 15/2/12 17/2/12 23/1/12
f 22/1/11 21/1/10 13/2/11
f 16/2/10 13/2/11 21/1/10
f 19/1/7 18/2/7 21/1/9
f 16/2/9 21/1/9 18/2/7
f 20/1/8 17/2/8 19/1/7
f 18/2/7 19/1/7 17/2/8
f 18/2/6 17/2/6 16/2/6
f 17/2/6 15/2/6 16/2/6
f 16/2/6 15/2/6 13/2/6
f 15/2/6 14/2/6 13/2/6
f 14/2/6 12/2/6 13/2/6
f 13/2/6 12/2/6 11/2/6
f 12/2/6 6/2/6 11/2/6
f 11/2/6 6/2/6 10/2/6
f 10/2/6 6/2/6 9/2/6
f 9/2/6 6/2/6 2/2/6
f 6/2/6 5/2/6 2/2/6
f 4/2/6 2/2/6 5/2/6
f 5/2/5 7/1/5 4/2/2
f 3/1/2 4/2/2 7/1/5
f 8/1/4 7/1/3 6/2/4
f 5/2/3 6/2/4 7/1/3
f 4/2/2 3/1/2 2/2/1
f 1/1/1 2/2/1 3/1/2
f 31/3/6 30/3/6 29/3/6
f 30/3/6 31/3/6 32/3/6
f 33/4/23 30/3/23 32/3/23
f 30/3/23 33/4/23 34/4/23
f 35/4/24 30/3/24 34/4/24
f 30/3/24 35/4/24 29/3/24
f 35/4/25 31/3/25 29/3/25
f 31/3/25 35/4/25 36/4/25
f 31/3/26 33/4/26 32/3/26
f 33/4/26 31/3/26 36/4/26
f 37/4/37 50/3/36 38/4/42
f 52/3/42 38/4/42 50/3/36
f 47/3/32 51/3/41 40/4/30
f 39/4/41 40/4/30 51/3/41
f 52/3/40 46/3/29 38/4/40
f 41/4/28 38/4/40 46/3/29
f 42/4/39 44/4/35 48/3/39
f 49/3/34 48/3/39 44/4/35
f 39/4/38 51/3/38 37/4/37
f 50/3/36 37/4/37 51/3/38
f 44/4/35 43/4/33 49/3/34
f 45/3/33 49/3/34 43/4/33
f 48/3/31 47/3/32 42/4/31
f 40/4/30 42/4/31 47/3/32
f 46/3/29 45/3/27 41/4/28
f 43/4/27 41/4/28 45/3/27
f 44/4/6 42/4/6 43/4/6
f 43/4/6 42/4/6 41/4/6
f 42/4/6 40/4/6 41/4/6
f 41/4/6 40/4/6 38/4/6
f 40/4/6 39/4/6 38/4/6
f 37/4/6 38/4/6 39/4/6
f 53/4/53 66/3/52 54/4/58
f 68/3/58 54/4/58 66/3/52
f 63/3/48 67/3/57 56/4/46
f 55/4/57 56/4/46 67/3/57
f 68/3/56 62/3/45 54/4/56
f 57/4/44 54/4/56 62/3/45
f 58/4/55 60/4/51 64/3/55
f 65/3/50 64/3/55 60/4/51
f 55/4/54 67/3/54 53/4/53
f 66/3/52 53/4/53 67/3/54
f 60/4/51 59/4/49 65/3/50
f 61/3/49 65/3/50 59/4/49
f 64/3/47 63/3/48 58/4/47
f 56/4/46 58/4/47 63/3/48
f 62/3/45 61/3/43 57/4/44
f 59/4/43 57/4/44 61/3/43
f 60/4/6 58/4/6 59/4/6
f 59/4/6 58/4/6 57/4/6
f 58/4/6 56/4/6 57/4/6
f 57/4/6 56/4/6 54/4/6
f 56/4/6 55/4/6 54/4/6
f 53/4/6 54/4/6 55/4/6
f 71/4/6 70/4/6 69/4/6
f 70/4/6 71/4/6 72/4/6
f 70/4/6 72/4/6 73/4/6
f 73/4/6 72/4/6 74/4/6
f 73/4/6 74/4/6 75/4/6
f 75/4/6 74/4/6 76/4/6
f 77/3/59 73/4/60 75/4/59
f 73/4/60 77/3/59 78/3/61
f 79/3/64 74/4/63 72/4/62
f 74/4/63 79/3/64 80/3/63
f 75/4/65 81/3/66 77/3/65
f 81/3/66 75/4/65 76/4/67
f 83/3/70 69/4/69 82/3/68
f 69/4/69 83/3/70 71/4/70
f 76/4/67 80/3/71 81/3/66
f 80/3/71 76/4/67 74/4/71
f 78/3/61 70/4/72 73/4/60
f 70/4/72 78/3/61 84/3/72
f 83/3/73 72/4/62 71/4/73
f 72/4/62 83/3/73 79/3/64
f 82/3/68 70/4/74 84/3/74
f 70/4/74 82/3/68 69/4/69
f 87/4/6 86/4/6 85/4/6
f 86/4/6 87/4/6 88/4/6
f 86/4/6 88/4/6 89/4/6
f 89/4/6 88/4/6 90/4/6
f 89/4/6 90/4/6 91/4/6
f 91/4/6 90/4/6 92/4/6
f 93/3/75 89/4/76 91/4/75
f 89/4/76 93/3/75 94/3/77
f 95/3/80 90/4/79 88/4/78
f 90/4/79 95/3/80 96/3/79
f 91/4/81 97/3/82 93/3/81
f 97/3/82 91/4/81 92/4/83
f 99/3/86 85/4/85 98/3/84
f 85/4/85 99/3/86 87/4/86
f 92/4/83 96/3/87 97/3/82
f 96/3/87 92/4/83 90/4/87
f 94/3/77 86/4/88 89/4/76
f 86/4/88 94/3/77 100/3/88
f 99/3/89 88/4/78 87/4/89
f 88/4/78 99/3/89 95/3/80
f 98/3/84 86/4/90 100/3/90
f 86/4/90 98/3/84 85/4/85

g table




usemtl colormap

f 24/1/22 12/2/22 28/1/20
f 14/2/20 28/1/20 12/2/22
f 23/1/21 28/1/20 15/2/21
f 14/2/20 15/2/21 28/1/20
f 1/1/19 26/1/19 2/2/19
f 9/2/19 2/2/19 26/1/19
f 27/1/16 25/1/18 10/2/16
f 11/2/18 10/2/16 25/1/18
f 26/1/17 27/1/16 9/2/17
f 10/2/16 9/2/17 27/1/16
f 19/1/15 21/1/15 20/1/15
f 20/1/15 21/1/15 23/1/15
f 21/1/15 22/1/15 23/1/15
f 23/1/15 22/1/15 28/1/15
f 28/1/15 22/1/15 24/1/15
f 22/1/15 25/1/15 24/1/15
f 24/1/15 25/1/15 8/1/15
f 25/1/15 27/1/15 8/1/15
f 27/1/15 26/1/15 8/1/15
f 26/1/15 1/1/15 8/1/15
f 8/1/15 1/1/15 7/1/15
f 3/1/15 7/1/15 1/1/15
f 25/1/14 22/1/11 11/2/14
f 13/2/11 11/2/14 22/1/11
f 24/1/13 8/1/4 12/2/13
f 6/2/4 12/2/13 8/1/4
f 20/1/12 23/1/12 17/2/12
f 15/2/12 17/2/12 23/1/12
f 22/1/11 21/1/10 13/2/11
f 16/2/10 13/2/11 21/1/10
f 19/1/7 18/2/7 21/1/9
f 16/2/9 21/1/9 18/2/7
f 20/1/8 17/2/8 19/1/7
f 18/2/7 19/1/7 17/2/8
f 18/2/6 17/2/6 16/2/6
f 17/2/6 15/2/6 16/2/6
f 16/2/6 15/2/6 13/2/6
f 15/2/6 14/2/6 13/2/6
f 14/2/6 12/2/6 13/2/6
f 13/2/6 12/2/6 11/2/6
f 12/2/6 6/2/6 11/2/6
f 11/2/6 6/2/6 10/2/6
f 10/2/6 6/2/6 9/2/6
f 9/2/6 6/2/6 2/2/6
f 6/2/6 5/2/6 2/2/6
f 4/2/6 2/2/6 5/2/6
f 5/2/5 7/1/5 4/2/2
f 3/1/2 4/2/2 7/1/5
f 8/1/4 7/1/3 6/2/4
f 5/2/3 6/2/4 7/1/3
f 4/2/2 3/1/2 2/2/1
f 1/1/1 2/2/1 3/1/2
f 31/3/6 30/3/6 29/3/6
f 30/3/6 31/3/6 32/3/6
f 33/4/23 30/3/23 32/3/23
f 30/3/23 33/4/23 34/4/23
f 35/4/24 30/3/24 34/4/24
f 30/3/24 35/4/24 29/3/24
f 35/4/25 31/3/25 29/3/25
f 31/3/25 35/4/25 36/4/25
f 31/3/26 33/4/26 32/3/26
f 33/4/26 31/3/26 36/4/26
f 37/4/37 50/3/36 38/4/42
f 52/3/42 38/4/42 50/3/36
f 47/3/32 51/3/41 40/4/30
f 39/4/41 40/4/30 51/3/41
f 52/3/40 46/3/29 38/4/40
f 41/4/28 38/4/40 46/3/29
f 42/4/39 44/4/35 48/3/39
f 49/3/34 48/3/39 44/4/35
f 39/4/38 51/3/38 37/4/37
f 50/3/36 37/4/37 51/3/38
f 44/4/35 43/4/33 49/3/34
f 45/3/33 49/3/34 43/4/33
f 48/3/31 47/3/32 42/4/31
f 40/4/30 42/4/31 47/3/32
f 46/3/29 45/3/27 41/4/28
f 43/4/27 41/4/28 45/3/27
f 44/4/6 42/4/6 43/4/6
f 43/4/6 42/4/6 41/4/6
f 42/4/6 40/4/6 41/4/6
f 41/4/6 40/4/6 38/4/6
f 40/4/6 39/4/6 38/4/6
f 37/4/6 38/4/6 39/4/6
f 53/4/53 66/3/52 54/4/58
f 68/3/58 54/4/58 66/3/52
f 63/3/48 67/3/57 56/4/46
f 55/4/57 56/4/46 67/3/57
f 68/3/56 62/3/45 54/4/56
f 57/4/44 54/4/56 62/3/45
f 58/4/55 60/4/51 64/3/55
f 65/3/50 64/3/55 60/4/51
f 55/4/54 67/3/54 53/4/53
f 66/3/52 53/4/53 67/3/54
f 60/4/51 59/4/49 65/3/50
f 61/3/49 65/3/50 59/4/49
f 64/3/47 63/3/48 58/4/47
f 56/4/46 58/4/47 63/3/48
f 62/3/45 61/3/43 57/4/44
f 59/4/43 57/4/44 61/3/43
f 60/4/6 58/4/6 59/4/6
f 59/4/6 58/4/6 57/4/6
f 58/4/6 56/4/6 57/4/6
f 57/4/6 56/4/6 54/4/6
f 56/4/6 55/4/6 54/4/6
f 53/4/6 54/4/6 55/4/6
f 71/4/6 70/4/6 69/4/6
f 70/4/6 71/4/6 72/4/6
f 70/4/6 72/4/6 73/4/6
f 73/4/6 72/4/6 74/4/6
f 73/4/6 74/4/6 75/4/6
f 75/4/6 74/4/6 76/4/6
f 77/3/59 73/4/60 75/4/59
f 73/4/60 77/3/59 78/3/61
f 79/3/64 74/4/63 72/4/62
f 74/4/63 79/3/64 80/3/63
f 75/4/65 81/3/66 77/3/65
f 81/3/66 75/4/65 76/4/67
f 83/3/70 69/4/69 82/3/68
f 69/4/69 83/3/70 71/4/70
f 76/4/67 80/3/71 81/3/66
f 80/3/71 76/4/67 74/4/71
f 78/3/61 70/4/72 73/4/60
f 70/4/72 78/3/61 84/3/72
f 83/3/73 72/4/62 71/4/73
f 72/4/62 83/3/73 79/3/64
f 82/3/68 70/4/74 84/3/74
f 70/4/74 82/3/68 69/4/69
f 87/4/6 86/4/6 85/4/6
f 86/4/6 87/4/6 88/4/6
f 86/4/6 88/4/6 89/4/6
f 89/4/6 88/4/6 90/4/6
f 89/4/6 90/4/6 91/4/6
f 91/4/6 90/4/6 92/4/6
f 93/3/75 89/4/76 91/4/75
f 89/4/76 93/3/75 94/3/77
f 95/3/80 90/4/79 88/4/78
f 90/4/79 95/3/80 96/3/79
f 91/4/81 97/3/82 93/3/81
f 97/3/82 91/4/81 92/4/83
f 99/3/86 85/4/85 98/3/84
f 85/4/85 99/3/86 87/4/86
f 92/4/83 96/3/87 97/3/82
f 96/3/87 92/4/83 90/4/87
f 94/3/77 86/4/88 89/4/76
f 86/4/88 94/3/77 100/3/88
f 99/3/89 88/4/78 87/4/89
f 88/4/78 99/3/89 95/3/80
f 98/3/84 86/4/90 100/3/90
f 86/4/90 98/3/84 85/4/85

