# Created by Kenney (www.kenney.nl)

mtllib trap.mtl

g trap

v -0.39483 0 -0.225 1 1 1
v -0.3693555 0.09435 -0.225 1 1 1
v -0.3450879 0 -0.104912 1 1 1
v -0.3270747 0.09435 -0.1229253 1 1 1
v -0.1049121 0 -0.104912 1 1 1
v -0.225 0 -0.05516997 1 1 1
v -0.1229252 0.09435 -0.1229253 1 1 1
v -0.225 0.09435 -0.08064449 1 1 1
v -0.3450879 0 -0.3450879 1 1 1
v -0.3270747 0.09435 -0.3270747 1 1 1
v -0.225 0 -0.39483 1 1 1
v -0.225 0.09435 -0.3693555 1 1 1
v -0.0806445 0.09435 -0.225 1 1 1
v -0.05517 0 -0.225 1 1 1
v -0.1049121 0 -0.3450879 1 1 1
v -0.1229252 0.09435 -0.3270747 1 1 1
v -0.114 0 -0.225 1 1 1
v -0.1465111 0 -0.1465111 1 1 1
v -0.1465111 0 -0.3034889 1 1 1
v -0.225 0 -0.114 1 1 1
v -0.225 0 -0.336 1 1 1
v -0.3034889 0 -0.1465111 1 1 1
v -0.3034889 0 -0.3034889 1 1 1
v -0.336 0 -0.225 1 1 1
v -0.336 0.09435 -0.225 1 1 1
v -0.3034889 0.09435 -0.3034889 1 1 1
v -0.3034889 0.09435 -0.1465111 1 1 1
v -0.225 0.09435 -0.336 1 1 1
v -0.1465111 0.09435 -0.3034889 1 1 1
v -0.225 0.09435 -0.114 1 1 1
v -0.1465111 0.09435 -0.1465111 1 1 1
v -0.114 0.09435 -0.225 1 1 1
v 0.05516997 0 -0.225 1 1 1
v 0.08064449 0.09435 -0.225 1 1 1
v 0.104912 0 -0.104912 1 1 1
v 0.1229253 0.09435 -0.1229253 1 1 1
v 0.3450879 0 -0.104912 1 1 1
v 0.225 0 -0.05516997 1 1 1
v 0.3270747 0.09435 -0.1229253 1 1 1
v 0.225 0.09435 -0.08064449 1 1 1
v 0.104912 0 -0.3450879 1 1 1
v 0.1229253 0.09435 -0.3270747 1 1 1
v 0.225 0 -0.39483 1 1 1
v 0.225 0.09435 -0.3693555 1 1 1
v 0.3693555 0.09435 -0.225 1 1 1
v 0.39483 0 -0.225 1 1 1
v 0.3450879 0 -0.3450879 1 1 1
v 0.3270747 0.09435 -0.3270747 1 1 1
v 0.336 0 -0.225 1 1 1
v 0.3034889 0 -0.1465111 1 1 1
v 0.3034889 0 -0.3034889 1 1 1
v 0.225 0 -0.114 1 1 1
v 0.225 0 -0.336 1 1 1
v 0.1465111 0 -0.1465111 1 1 1
v 0.1465111 0 -0.3034889 1 1 1
v 0.114 0 -0.225 1 1 1
v 0.114 0.09435 -0.225 1 1 1
v 0.1465111 0.09435 -0.3034889 1 1 1
v 0.1465111 0.09435 -0.1465111 1 1 1
v 0.225 0.09435 -0.336 1 1 1
v 0.3034889 0.09435 -0.3034889 1 1 1
v 0.225 0.09435 -0.114 1 1 1
v 0.3034889 0.09435 -0.1465111 1 1 1
v 0.336 0.09435 -0.225 1 1 1
v 0.05516997 0 0.225 1 1 1
v 0.08064449 0.09435 0.225 1 1 1
v 0.104912 0 0.3450879 1 1 1
v 0.1229253 0.09435 0.3270747 1 1 1
v 0.3450879 0 0.3450879 1 1 1
v 0.225 0 0.39483 1 1 1
v 0.3270747 0.09435 0.3270747 1 1 1
v 0.225 0.09435 0.3693555 1 1 1
v 0.104912 0 0.1049121 1 1 1
v 0.1229253 0.09435 0.1229252 1 1 1
v 0.225 0 0.05517 1 1 1
v 0.225 0.09435 0.0806445 1 1 1
v 0.3693555 0.09435 0.225 1 1 1
v 0.39483 0 0.225 1 1 1
v 0.3450879 0 0.1049121 1 1 1
v 0.3270747 0.09435 0.1229252 1 1 1
v 0.336 0 0.225 1 1 1
v 0.3034889 0 0.3034889 1 1 1
v 0.3034889 0 0.1465111 1 1 1
v 0.225 0 0.336 1 1 1
v 0.225 0 0.114 1 1 1
v 0.1465111 0 0.3034889 1 1 1
v 0.1465111 0 0.1465111 1 1 1
v 0.114 0 0.225 1 1 1
v 0.114 0.09435 0.225 1 1 1
v 0.1465111 0.09435 0.1465111 1 1 1
v 0.1465111 0.09435 0.3034889 1 1 1
v 0.225 0.09435 0.114 1 1 1
v 0.3034889 0.09435 0.1465111 1 1 1
v 0.225 0.09435 0.336 1 1 1
v 0.3034889 0.09435 0.3034889 1 1 1
v 0.336 0.09435 0.225 1 1 1
v -0.39483 0 0.225 1 1 1
v -0.3693555 0.09435 0.225 1 1 1
v -0.3450879 0 0.3450879 1 1 1
v -0.3270747 0.09435 0.3270747 1 1 1
v -0.1049121 0 0.3450879 1 1 1
v -0.225 0 0.39483 1 1 1
v -0.1229252 0.09435 0.3270747 1 1 1
v -0.225 0.09435 0.3693555 1 1 1
v -0.3450879 0 0.1049121 1 1 1
v -0.3270747 0.09435 0.1229252 1 1 1
v -0.225 0 0.05517 1 1 1
v -0.225 0.09435 0.0806445 1 1 1
v -0.0806445 0.09435 0.225 1 1 1
v -0.05517 0 0.225 1 1 1
v -0.1049121 0 0.1049121 1 1 1
v -0.1229252 0.09435 0.1229252 1 1 1
v -0.114 0 0.225 1 1 1
v -0.1465111 0 0.3034889 1 1 1
v -0.1465111 0 0.1465111 1 1 1
v -0.225 0 0.336 1 1 1
v -0.225 0 0.114 1 1 1
v -0.3034889 0 0.3034889 1 1 1
v -0.3034889 0 0.1465111 1 1 1
v -0.336 0 0.225 1 1 1
v -0.336 0.09435 0.225 1 1 1
v -0.3034889 0.09435 0.1465111 1 1 1
v -0.3034889 0.09435 0.3034889 1 1 1
v -0.225 0.09435 0.114 1 1 1
v -0.1465111 0.09435 0.1465111 1 1 1
v -0.225 0.09435 0.336 1 1 1
v -0.1465111 0.09435 0.3034889 1 1 1
v -0.114 0.09435 0.225 1 1 1

vn -0.965429 0.2606659 0
vn -0.6873752 0.7263025 0
vn -0.6826615 0.2606659 0.6826615
vn -0.4860477 0.7263024 0.4860477
vn 0.6826615 0.2606659 0.6826615
vn 0 0.2606659 0.965429
vn 0.4860477 0.7263024 0.4860477
vn 0 0.7263025 0.6873752
vn -0.6826615 0.2606659 -0.6826615
vn -0.4860477 0.7263024 -0.4860477
vn 0 0.2606659 -0.965429
vn 0 0.7263025 -0.6873752
vn 0.6873752 0.7263025 0
vn 0.965429 0.2606659 0
vn 0.6826615 0.2606659 -0.6826615
vn 0.4860477 0.7263024 -0.4860477
vn 0 -1 0
vn 0 1 0
vn 0 0 1
vn 0.7071068 0 0.7071068
vn 1 0 0
vn 0.7071068 0 -0.7071068
vn 0 0 -1
vn -0.7071068 0 -0.7071068
vn -1 0 0
vn -0.7071068 0 0.7071068

vt 0.59375 0.025
vt 0.59375 0.225
vt 0.46875 0.025
vt 0.46875 0.225

usemtl colormap

f 3/1/3 2/2/2 1/1/1
f 2/2/2 3/1/3 4/2/4
f 7/2/7 6/1/6 5/1/5
f 6/1/6 7/2/7 8/2/8
f 1/1/1 10/2/10 9/1/9
f 10/2/10 1/1/1 2/2/2
f 10/2/10 11/1/11 9/1/9
f 11/1/11 10/2/10 12/2/12
f 7/2/7 14/1/14 13/2/13
f 14/1/14 7/2/7 5/1/5
f 16/2/16 14/1/14 15/1/15
f 14/1/14 16/2/16 13/2/13
f 5/1/17 15/1/17 14/1/17
f 15/1/17 5/1/17 17/1/17
f 17/1/17 5/1/17 18/1/17
f 19/1/17 15/1/17 17/1/17
f 18/1/17 5/1/17 6/1/17
f 15/1/17 19/1/17 11/1/17
f 18/1/17 6/1/17 20/1/17
f 11/1/17 19/1/17 21/1/17
f 20/1/17 6/1/17 3/1/17
f 11/1/17 21/1/17 9/1/17
f 20/1/17 3/1/17 22/1/17
f 9/1/17 21/1/17 23/1/17
f 22/1/17 3/1/17 24/1/17
f 9/1/17 23/1/17 24/1/17
f 9/1/17 24/1/17 3/1/17
f 9/1/17 3/1/17 1/1/17
f 12/2/12 15/1/15 11/1/11
f 15/1/15 12/2/12 16/2/16
f 8/2/8 3/1/3 6/1/6
f 3/1/3 8/2/8 4/2/4
f 25/2/18 10/2/10 2/2/2
f 4/2/4 25/2/18 2/2/2
f 26/2/18 10/2/10 25/2/18
f 4/2/4 27/2/18 25/2/18
f 26/2/18 12/2/12 10/2/10
f 28/2/18 12/2/12 26/2/18
f 29/2/18 12/2/12 28/2/18
f 29/2/18 16/2/16 12/2/12
f 8/2/8 27/2/18 4/2/4
f 8/2/8 30/2/18 27/2/18
f 8/2/8 31/2/18 30/2/18
f 7/2/7 31/2/18 8/2/8
f 32/2/18 16/2/16 29/2/18
f 7/2/7 32/2/18 31/2/18
f 16/2/16 32/2/18 13/2/13
f 32/2/18 7/2/7 13/2/13
f 35/1/3 34/2/2 33/1/1
f 34/2/2 35/1/3 36/2/4
f 39/2/7 38/1/6 37/1/5
f 38/1/6 39/2/7 40/2/8
f 33/1/1 42/2/10 41/1/9
f 42/2/10 33/1/1 34/2/2
f 42/2/10 43/1/11 41/1/9
f 43/1/11 42/2/10 44/2/12
f 39/2/7 46/1/14 45/2/13
f 46/1/14 39/2/7 37/1/5
f 48/2/16 46/1/14 47/1/15
f 46/1/14 48/2/16 45/2/13
f 37/1/17 47/1/17 46/1/17
f 47/1/17 37/1/17 49/1/17
f 49/1/17 37/1/17 50/1/17
f 51/1/17 47/1/17 49/1/17
f 50/1/17 37/1/17 38/1/17
f 47/1/17 51/1/17 43/1/17
f 50/1/17 38/1/17 52/1/17
f 43/1/17 51/1/17 53/1/17
f 52/1/17 38/1/17 35/1/17
f 43/1/17 53/1/17 41/1/17
f 52/1/17 35/1/17 54/1/17
f 41/1/17 53/1/17 55/1/17
f 54/1/17 35/1/17 56/1/17
f 41/1/17 55/1/17 56/1/17
f 41/1/17 56/1/17 35/1/17
f 41/1/17 35/1/17 33/1/17
f 44/2/12 47/1/15 43/1/11
f 47/1/15 44/2/12 48/2/16
f 40/2/8 35/1/3 38/1/6
f 35/1/3 40/2/8 36/2/4
f 57/2/18 42/2/10 34/2/2
f 36/2/4 57/2/18 34/2/2
f 58/2/18 42/2/10 57/2/18
f 36/2/4 59/2/18 57/2/18
f 58/2/18 44/2/12 42/2/10
f 60/2/18 44/2/12 58/2/18
f 61/2/18 44/2/12 60/2/18
f 61/2/18 48/2/16 44/2/12
f 40/2/8 59/2/18 36/2/4
f 40/2/8 62/2/18 59/2/18
f 40/2/8 63/2/18 62/2/18
f 39/2/7 63/2/18 40/2/8
f 64/2/18 48/2/16 61/2/18
f 39/2/7 64/2/18 63/2/18
f 48/2/16 64/2/18 45/2/13
f 64/2/18 39/2/7 45/2/13
f 67/1/3 66/2/2 65/1/1
f 66/2/2 67/1/3 68/2/4
f 71/2/7 70/1/6 69/1/5
f 70/1/6 71/2/7 72/2/8
f 65/1/1 74/2/10 73/1/9
f 74/2/10 65/1/1 66/2/2
f 74/2/10 75/1/11 73/1/9
f 75/1/11 74/2/10 76/2/12
f 71/2/7 78/1/14 77/2/13
f 78/1/14 71/2/7 69/1/5
f 80/2/16 78/1/14 79/1/15
f 78/1/14 80/2/16 77/2/13
f 69/1/17 79/1/17 78/1/17
f 79/1/17 69/1/17 81/1/17
f 81/1/17 69/1/17 82/1/17
f 83/1/17 79/1/17 81/1/17
f 82/1/17 69/1/17 70/1/17
f 79/1/17 83/1/17 75/1/17
f 82/1/17 70/1/17 84/1/17
f 75/1/17 83/1/17 85/1/17
f 84/1/17 70/1/17 67/1/17
f 75/1/17 85/1/17 73/1/17
f 84/1/17 67/1/17 86/1/17
f 73/1/17 85/1/17 87/1/17
f 86/1/17 67/1/17 88/1/17
f 73/1/17 87/1/17 88/1/17
f 73/1/17 88/1/17 67/1/17
f 73/1/17 67/1/17 65/1/17
f 76/2/12 79/1/15 75/1/11
f 79/1/15 76/2/12 80/2/16
f 72/2/8 67/1/3 70/1/6
f 67/1/3 72/2/8 68/2/4
f 89/2/18 74/2/10 66/2/2
f 68/2/4 89/2/18 66/2/2
f 90/2/18 74/2/10 89/2/18
f 68/2/4 91/2/18 89/2/18
f 90/2/18 76/2/12 74/2/10
f 92/2/18 76/2/12 90/2/18
f 93/2/18 76/2/12 92/2/18
f 93/2/18 80/2/16 76/2/12
f 72/2/8 91/2/18 68/2/4
f 72/2/8 94/2/18 91/2/18
f 72/2/8 95/2/18 94/2/18
f 71/2/7 95/2/18 72/2/8
f 96/2/18 80/2/16 93/2/18
f 71/2/7 96/2/18 95/2/18
f 80/2/16 96/2/18 77/2/13
f 96/2/18 71/2/7 77/2/13
f 99/1/3 98/2/2 97/1/1
f 98/2/2 99/1/3 100/2/4
f 103/2/7 102/1/6 101/1/5
f 102/1/6 103/2/7 104/2/8
f 97/1/1 106/2/10 105/1/9
f 106/2/10 97/1/1 98/2/2
f 106/2/10 107/1/11 105/1/9
f 107/1/11 106/2/10 108/2/12
f 103/2/7 110/1/14 109/2/13
f 110/1/14 103/2/7 101/1/5
f 112/2/16 110/1/14 111/1/15
f 110/1/14 112/2/16 109/2/13
f 101/1/17 111/1/17 110/1/17
f 111/1/17 101/1/17 113/1/17
f 113/1/17 101/1/17 114/1/17
f 115/1/17 111/1/17 113/1/17
f 114/1/17 101/1/17 102/1/17
f 111/1/17 115/1/17 107/1/17
f 114/1/17 102/1/17 116/1/17
f 107/1/17 115/1/17 117/1/17
f 116/1/17 102/1/17 99/1/17
f 107/1/17 117/1/17 105/1/17
f 116/1/17 99/1/17 118/1/17
f 105/1/17 117/1/17 119/1/17
f 118/1/17 99/1/17 120/1/17
f 105/1/17 119/1/17 120/1/17
f 105/1/17 120/1/17 99/1/17
f 105/1/17 99/1/17 97/1/17
f 108/2/12 111/1/15 107/1/11
f 111/1/15 108/2/12 112/2/16
f 104/2/8 99/1/3 102/1/6
f 99/1/3 104/2/8 100/2/4
f 121/2/18 106/2/10 98/2/2
f 100/2/4 121/2/18 98/2/2
f 122/2/18 106/2/10 121/2/18
f 100/2/4 123/2/18 121/2/18
f 122/2/18 108/2/12 106/2/10
f 124/2/18 108/2/12 122/2/18
f 125/2/18 108/2/12 124/2/18
f 125/2/18 112/2/16 108/2/12
f 104/2/8 123/2/18 100/2/4
f 104/2/8 126/2/18 123/2/18
f 104/2/8 127/2/18 126/2/18
f 103/2/7 127/2/18 104/2/8
f 128/2/18 112/2/16 125/2/18
f 103/2/7 128/2/18 127/2/18
f 112/2/16 128/2/18 109/2/13
f 128/2/18 103/2/7 109/2/13
f 28/4/19 23/3/20 21/3/19
f 23/3/20 28/4/19 26/4/20
f 25/4/21 23/3/20 26/4/20
f 23/3/20 25/4/21 24/3/21
f 27/4/22 24/3/21 25/4/21
f 24/3/21 27/4/22 22/3/22
f 27/4/22 20/3/23 22/3/22
f 20/3/23 27/4/22 30/4/23
f 30/4/23 18/3/24 20/3/23
f 18/3/24 30/4/23 31/4/24
f 18/3/24 32/4/25 17/3/25
f 32/4/25 18/3/24 31/4/24
f 17/3/25 29/4/26 19/3/26
f 29/4/26 17/3/25 32/4/25
f 29/4/26 21/3/19 19/3/26
f 21/3/19 29/4/26 28/4/19
f 60/4/19 55/3/20 53/3/19
f 55/3/20 60/4/19 58/4/20
f 57/4/21 55/3/20 58/4/20
f 55/3/20 57/4/21 56/3/21
f 59/4/22 56/3/21 57/4/21
f 56/3/21 59/4/22 54/3/22
f 59/4/22 52/3/23 54/3/22
f 52/3/23 59/4/22 62/4/23
f 62/4/23 50/3/24 52/3/23
f 50/3/24 62/4/23 63/4/24
f 50/3/24 64/4/25 49/3/25
f 64/4/25 50/3/24 63/4/24
f 49/3/25 61/4/26 51/3/26
f 61/4/26 49/3/25 64/4/25
f 61/4/26 53/3/19 51/3/26
f 53/3/19 61/4/26 60/4/19
f 92/4/19 87/3/20 85/3/19
f 87/3/20 92/4/19 90/4/20
f 89/4/21 87/3/20 90/4/20
f 87/3/20 89/4/21 88/3/21
f 91/4/22 88/3/21 89/4/21
f 88/3/21 91/4/22 86/3/22
f 91/4/22 84/3/23 86/3/22
f 84/3/23 91/4/22 94/4/23
f 94/4/23 82/3/24 84/3/23
f 82/3/24 94/4/23 95/4/24
f 82/3/24 96/4/25 81/3/25
f 96/4/25 82/3/24 95/4/24
f 81/3/25 93/4/26 83/3/26
f 93/4/26 81/3/25 96/4/25
f 93/4/26 85/3/19 83/3/26
f 85/3/19 93/4/26 92/4/19
f 124/4/19 119/3/20 117/3/19
f 119/3/20 124/4/19 122/4/20
f 121/4/21 119/3/20 122/4/20
f 119/3/20 121/4/21 120/3/21
f 123/4/22 120/3/21 121/4/21
f 120/3/21 123/4/22 118/3/22
f 123/4/22 116/3/23 118/3/22
f 116/3/23 123/4/22 126/4/23
f 126/4/23 114/3/24 116/3/23
f 114/3/24 126/4/23 127/4/24
f 114/3/24 128/4/25 113/3/25
f 128/4/25 114/3/24 127/4/24
f 113/3/25 125/4/26 115/3/26
f 125/4/26 113/3/25 128/4/25
f 125/4/26 117/3/19 115/3/26
f 117/3/19 125/4/26 124/4/19

g trap




usemtl colormap

f 3/1/3 2/2/2 1/1/1
f 2/2/2 3/1/3 4/2/4
f 7/2/7 6/1/6 5/1/5
f 6/1/6 7/2/7 8/2/8
f 1/1/1 10/2/10 9/1/9
f 10/2/10 1/1/1 2/2/2
f 10/2/10 11/1/11 9/1/9
f 11/1/11 10/2/10 12/2/12
f 7/2/7 14/1/14 13/2/13
f 14/1/14 7/2/7 5/1/5
f 16/2/16 14/1/14 15/1/15
f 14/1/14 16/2/16 13/2/13
f 5/1/17 15/1/17 14/1/17
f 15/1/17 5/1/17 17/1/17
f 17/1/17 5/1/17 18/1/17
f 19/1/17 15/1/17 17/1/17
f 18/1/17 5/1/17 6/1/17
f 15/1/17 19/1/17 11/1/17
f 18/1/17 6/1/17 20/1/17
f 11/1/17 19/1/17 21/1/17
f 20/1/17 6/1/17 3/1/17
f 11/1/17 21/1/17 9/1/17
f 20/1/17 3/1/17 22/1/17
f 9/1/17 21/1/17 23/1/17
f 22/1/17 3/1/17 24/1/17
f 9/1/17 23/1/17 24/1/17
f 9/1/17 24/1/17 3/1/17
f 9/1/17 3/1/17 1/1/17
f 12/2/12 15/1/15 11/1/11
f 15/1/15 12/2/12 16/2/16
f 8/2/8 3/1/3 6/1/6
f 3/1/3 8/2/8 4/2/4
f 25/2/18 10/2/10 2/2/2
f 4/2/4 25/2/18 2/2/2
f 26/2/18 10/2/10 25/2/18
f 4/2/4 27/2/18 25/2/18
f 26/2/18 12/2/12 10/2/10
f 28/2/18 12/2/12 26/2/18
f 29/2/18 12/2/12 28/2/18
f 29/2/18 16/2/16 12/2/12
f 8/2/8 27/2/18 4/2/4
f 8/2/8 30/2/18 27/2/18
f 8/2/8 31/2/18 30/2/18
f 7/2/7 31/2/18 8/2/8
f 32/2/18 16/2/16 29/2/18
f 7/2/7 32/2/18 31/2/18
f 16/2/16 32/2/18 13/2/13
f 32/2/18 7/2/7 13/2/13
f 35/1/3 34/2/2 33/1/1
f 34/2/2 35/1/3 36/2/4
f 39/2/7 38/1/6 37/1/5
f 38/1/6 39/2/7 40/2/8
f 33/1/1 42/2/10 41/1/9
f 42/2/10 33/1/1 34/2/2
f 42/2/10 43/1/11 41/1/9
f 43/1/11 42/2/10 44/2/12
f 39/2/7 46/1/14 45/2/13
f 46/1/14 39/2/7 37/1/5
f 48/2/16 46/1/14 47/1/15
f 46/1/14 48/2/16 45/2/13
f 37/1/17 47/1/17 46/1/17
f 47/1/17 37/1/17 49/1/17
f 49/1/17 37/1/17 50/1/17
f 51/1/17 47/1/17 49/1/17
f 50/1/17 37/1/17 38/1/17
f 47/1/17 51/1/17 43/1/17
f 50/1/17 38/1/17 52/1/17
f 43/1/17 51/1/17 53/1/17
f 52/1/17 38/1/17 35/1/17
f 43/1/17 53/1/17 41/1/17
f 52/1/17 35/1/17 54/1/17
f 41/1/17 53/1/17 55/1/17
f 54/1/17 35/1/17 56/1/17
f 41/1/17 55/1/17 56/1/17
f 41/1/17 56/1/17 35/1/17
f 41/1/17 35/1/17 33/1/17
f 44/2/12 47/1/15 43/1/11
f 47/1/15 44/2/12 48/2/16
f 40/2/8 35/1/3 38/1/6
f 35/1/3 40/2/8 36/2/4
f 57/2/18 42/2/10 34/2/2
f 36/2/4 57/2/18 34/2/2
f 58/2/18 42/2/10 57/2/18
f 36/2/4 59/2/18 57/2/18
f 58/2/18 44/2/12 42/2/10
f 60/2/18 44/2/12 58/2/18
f 61/2/18 44/2/12 60/2/18
f 61/2/18 48/2/16 44/2/12
f 40/2/8 59/2/18 36/2/4
f 40/2/8 62/2/18 59/2/18
f 40/2/8 63/2/18 62/2/18
f 39/2/7 63/2/18 40/2/8
f 64/2/18 48/2/16 61/2/18
f 39/2/7 64/2/18 63/2/18
f 48/2/16 64/2/18 45/2/13
f 64/2/18 39/2/7 45/2/13
f 67/1/3 66/2/2 65/1/1
f 66/2/2 67/1/3 68/2/4
f 71/2/7 70/1/6 69/1/5
f 70/1/6 71/2/7 72/2/8
f 65/1/1 74/2/10 73/1/9
f 74/2/10 65/1/1 66/2/2
f 74/2/10 75/1/11 73/1/9
f 75/1/11 74/2/10 76/2/12
f 71/2/7 78/1/14 77/2/13
f 78/1/14 71/2/7 69/1/5
f 80/2/16 78/1/14 79/1/15
f 78/1/14 80/2/16 77/2/13
f 69/1/17 79/1/17 78/1/17
f 79/1/17 69/1/17 81/1/17
f 81/1/17 69/1/17 82/1/17
f 83/1/17 79/1/17 81/1/17
f 82/1/17 69/1/17 70/1/17
f 79/1/17 83/1/17 75/1/17
f 82/1/17 70/1/17 84/1/17
f 75/1/17 83/1/17 85/1/17
f 84/1/17 70/1/17 67/1/17
f 75/1/17 85/1/17 73/1/17
f 84/1/17 67/1/17 86/1/17
f 73/1/17 85/1/17 87/1/17
f 86/1/17 67/1/17 88/1/17
f 73/1/17 87/1/17 88/1/17
f 73/1/17 88/1/17 67/1/17
f 73/1/17 67/1/17 65/1/17
f 76/2/12 79/1/15 75/1/11
f 79/1/15 76/2/12 80/2/16
f 72/2/8 67/1/3 70/1/6
f 67/1/3 72/2/8 68/2/4
f 89/2/18 74/2/10 66/2/2
f 68/2/4 89/2/18 66/2/2
f 90/2/18 74/2/10 89/2/18
f 68/2/4 91/2/18 89/2/18
f 90/2/18 76/2/12 74/2/10
f 92/2/18 76/2/12 90/2/18
f 93/2/18 76/2/12 92/2/18
f 93/2/18 80/2/16 76/2/12
f 72/2/8 91/2/18 68/2/4
f 72/2/8 94/2/18 91/2/18
f 72/2/8 95/2/18 94/2/18
f 71/2/7 95/2/18 72/2/8
f 96/2/18 80/2/16 93/2/18
f 71/2/7 96/2/18 95/2/18
f 80/2/16 96/2/18 77/2/13
f 96/2/18 71/2/7 77/2/13
f 99/1/3 98/2/2 97/1/1
f 98/2/2 99/1/3 100/2/4
f 103/2/7 102/1/6 101/1/5
f 102/1/6 103/2/7 104/2/8
f 97/1/1 106/2/10 105/1/9
f 106/2/10 97/1/1 98/2/2
f 106/2/10 107/1/11 105/1/9
f 107/1/11 106/2/10 108/2/12
f 103/2/7 110/1/14 109/2/13
f 110/1/14 103/2/7 101/1/5
f 112/2/16 110/1/14 111/1/15
f 110/1/14 112/2/16 109/2/13
f 101/1/17 111/1/17 110/1/17
f 111/1/17 101/1/17 113/1/17
f 113/1/17 101/1/17 114/1/17
f 115/1/17 111/1/17 113/1/17
f 114/1/17 101/1/17 102/1/17
f 111/1/17 115/1/17 107/1/17
f 114/1/17 102/1/17 116/1/17
f 107/1/17 115/1/17 117/1/17
f 116/1/17 102/1/17 99/1/17
f 107/1/17 117/1/17 105/1/17
f 116/1/17 99/1/17 118/1/17
f 105/1/17 117/1/17 119/1/17
f 118/1/17 99/1/17 120/1/17
f 105/1/17 119/1/17 120/1/17
f 105/1/17 120/1/17 99/1/17
f 105/1/17 99/1/17 97/1/17
f 108/2/12 111/1/15 107/1/11
f 111/1/15 108/2/12 112/2/16
f 104/2/8 99/1/3 102/1/6
f 99/1/3 104/2/8 100/2/4
f 121/2/18 106/2/10 98/2/2
f 100/2/4 121/2/18 98/2/2
f 122/2/18 106/2/10 121/2/18
f 100/2/4 123/2/18 121/2/18
f 122/2/18 108/2/12 106/2/10
f 124/2/18 108/2/12 122/2/18
f 125/2/18 108/2/12 124/2/18
f 125/2/18 112/2/16 108/2/12
f 104/2/8 123/2/18 100/2/4
f 104/2/8 126/2/18 123/2/18
f 104/2/8 127/2/18 126/2/18
f 103/2/7 127/2/18 104/2/8
f 128/2/18 112/2/16 125/2/18
f 103/2/7 128/2/18 127/2/18
f 112/2/16 128/2/18 109/2/13
f 128/2/18 103/2/7 109/2/13
f 28/4/19 23/3/20 21/3/19
f 23/3/20 28/4/19 26/4/20
f 25/4/21 23/3/20 26/4/20
f 23/3/20 25/4/21 24/3/21
f 27/4/22 24/3/21 25/4/21
f 24/3/21 27/4/22 22/3/22
f 27/4/22 20/3/23 22/3/22
f 20/3/23 27/4/22 30/4/23
f 30/4/23 18/3/24 20/3/23
f 18/3/24 30/4/23 31/4/24
f 18/3/24 32/4/25 17/3/25
f 32/4/25 18/3/24 31/4/24
f 17/3/25 29/4/26 19/3/26
f 29/4/26 17/3/25 32/4/25
f 29/4/26 21/3/19 19/3/26
f 21/3/19 29/4/26 28/4/19
f 60/4/19 55/3/20 53/3/19
f 55/3/20 60/4/19 58/4/20
f 57/4/21 55/3/20 58/4/20
f 55/3/20 57/4/21 56/3/21
f 59/4/22 56/3/21 57/4/21
f 56/3/21 59/4/22 54/3/22
f 59/4/22 52/3/23 54/3/22
f 52/3/23 59/4/22 62/4/23
f 62/4/23 50/3/24 52/3/23
f 50/3/24 62/4/23 63/4/24
f 50/3/24 64/4/25 49/3/25
f 64/4/25 50/3/24 63/4/24
f 49/3/25 61/4/26 51/3/26
f 61/4/26 49/3/25 64/4/25
f 61/4/26 53/3/19 51/3/26
f 53/3/19 61/4/26 60/4/19
f 92/4/19 87/3/20 85/3/19
f 87/3/20 92/4/19 90/4/20
f 89/4/21 87/3/20 90/4/20
f 87/3/20 89/4/21 88/3/21
f 91/4/22 88/3/21 89/4/21
f 88/3/21 91/4/22 86/3/22
f 91/4/22 84/3/23 86/3/22
f 84/3/23 91/4/22 94/4/23
f 94/4/23 82/3/24 84/3/23
f 82/3/24 94/4/23 95/4/24
f 82/3/24 96/4/25 81/3/25
f 96/4/25 82/3/24 95/4/24
f 81/3/25 93/4/26 83/3/26
f 93/4/26 81/3/25 96/4/25
f 93/4/26 85/3/19 83/3/26
f 85/3/19 93/4/26 92/4/19
f 124/4/19 119/3/20 117/3/19
f 119/3/20 124/4/19 122/4/20
f 121/4/21 119/3/20 122/4/20
f 119/3/20 121/4/21 120/3/21
f 123/4/22 120/3/21 121/4/21
f 120/3/21 123/4/22 118/3/22
f 123/4/22 116/3/23 118/3/22
f 116/3/23 123/4/22 126/4/23
f 126/4/23 114/3/24 116/3/23
f 114/3/24 126/4/23 127/4/24
f 114/3/24 128/4/25 113/3/25
f 128/4/25 114/3/24 127/4/24
f 113/3/25 125/4/26 115/3/26
f 125/4/26 113/3/25 128/4/25
f 125/4/26 117/3/19 115/3/26
f 117/3/19 125/4/26 124/4/19

g spikes

v 0.2027999 0.28305 -0.225 1 1 1
v 0.2093021 0.28305 -0.2093022 1 1 1
v 0.1384199 0.17205 -0.225 1 1 1
v 0.1637786 0.17205 -0.1637787 1 1 1
v 0.2249999 0.17205 -0.13842 1 1 1
v 0.2249999 0.28305 -0.2028 1 1 1
v 0.2862212 0.17205 -0.1637787 1 1 1
v 0.2406977 0.28305 -0.2093022 1 1 1
v 0.2471999 0.28305 -0.225 1 1 1
v 0.3115799 0.17205 -0.225 1 1 1
v 0.2862212 0.17205 -0.2862213 1 1 1
v 0.2406977 0.28305 -0.2406978 1 1 1
v 0.2249999 0.09435 -0.336 1 1 1
v 0.3034888 0.09435 -0.3034889 1 1 1
v 0.2249999 0.17205 -0.31158 1 1 1
v 0.2249999 0.09435 -0.114 1 1 1
v 0.146511 0.09435 -0.1465112 1 1 1
v 0.146511 0.09435 -0.3034889 1 1 1
v 0.1637786 0.17205 -0.2862213 1 1 1
v 0.1139999 0.09435 -0.225 1 1 1
v 0.3359999 0.09435 -0.225 1 1 1
v 0.2249999 0.28305 -0.2472 1 1 1
v 0.2093021 0.28305 -0.2406978 1 1 1
v 0.3034888 0.09435 -0.1465112 1 1 1
v 0.2027999 0.28305 0.225 1 1 1
v 0.2093021 0.28305 0.2406978 1 1 1
v 0.1384199 0.17205 0.225 1 1 1
v 0.1637786 0.17205 0.2862213 1 1 1
v 0.2249999 0.17205 0.31158 1 1 1
v 0.2249999 0.28305 0.2472 1 1 1
v 0.2862212 0.17205 0.2862213 1 1 1
v 0.2406977 0.28305 0.2406978 1 1 1
v 0.2471999 0.28305 0.225 1 1 1
v 0.3115799 0.17205 0.225 1 1 1
v 0.2862212 0.17205 0.1637787 1 1 1
v 0.2406977 0.28305 0.2093022 1 1 1
v 0.2249999 0.09435 0.114 1 1 1
v 0.3034888 0.09435 0.1465112 1 1 1
v 0.2249999 0.17205 0.13842 1 1 1
v 0.2249999 0.09435 0.336 1 1 1
v 0.146511 0.09435 0.3034889 1 1 1
v 0.146511 0.09435 0.1465112 1 1 1
v 0.1637786 0.17205 0.1637787 1 1 1
v 0.1139999 0.09435 0.225 1 1 1
v 0.3359999 0.09435 0.225 1 1 1
v 0.2249999 0.28305 0.2028 1 1 1
v 0.2093021 0.28305 0.2093022 1 1 1
v 0.3034888 0.09435 0.3034889 1 1 1
v -0.2471999 0.28305 0.225 1 1 1
v -0.2406977 0.28305 0.2406978 1 1 1
v -0.3115799 0.17205 0.225 1 1 1
v -0.2862212 0.17205 0.2862213 1 1 1
v -0.2249999 0.17205 0.31158 1 1 1
v -0.2249999 0.28305 0.2472 1 1 1
v -0.1637786 0.17205 0.2862213 1 1 1
v -0.2093021 0.28305 0.2406978 1 1 1
v -0.2027999 0.28305 0.225 1 1 1
v -0.1384199 0.17205 0.225 1 1 1
v -0.1637786 0.17205 0.1637787 1 1 1
v -0.2093021 0.28305 0.2093022 1 1 1
v -0.2249999 0.09435 0.114 1 1 1
v -0.146511 0.09435 0.1465112 1 1 1
v -0.2249999 0.17205 0.13842 1 1 1
v -0.2249999 0.09435 0.336 1 1 1
v -0.3034888 0.09435 0.3034889 1 1 1
v -0.3034888 0.09435 0.1465112 1 1 1
v -0.2862212 0.17205 0.1637787 1 1 1
v -0.3359999 0.09435 0.225 1 1 1
v -0.1139999 0.09435 0.225 1 1 1
v -0.2249999 0.28305 0.2028 1 1 1
v -0.2406977 0.28305 0.2093022 1 1 1
v -0.146511 0.09435 0.3034889 1 1 1
v -0.2471999 0.28305 -0.225 1 1 1
v -0.2406977 0.28305 -0.2093022 1 1 1
v -0.3115799 0.17205 -0.225 1 1 1
v -0.2862212 0.17205 -0.1637787 1 1 1
v -0.2249999 0.17205 -0.13842 1 1 1
v -0.2249999 0.28305 -0.2028 1 1 1
v -0.1637786 0.17205 -0.1637787 1 1 1
v -0.2093021 0.28305 -0.2093022 1 1 1
v -0.2027999 0.28305 -0.225 1 1 1
v -0.1384199 0.17205 -0.225 1 1 1
v -0.1637786 0.17205 -0.2862213 1 1 1
v -0.2093021 0.28305 -0.2406978 1 1 1
v -0.2249999 0.09435 -0.336 1 1 1
v -0.146511 0.09435 -0.3034889 1 1 1
v -0.2249999 0.17205 -0.31158 1 1 1
v -0.2249999 0.09435 -0.114 1 1 1
v -0.3034888 0.09435 -0.1465112 1 1 1
v -0.3034888 0.09435 -0.3034889 1 1 1
v -0.2862212 0.17205 -0.2862213 1 1 1
v -0.3359999 0.09435 -0.225 1 1 1
v -0.1139999 0.09435 -0.225 1 1 1
v -0.2249999 0.28305 -0.2472 1 1 1
v -0.2406977 0.28305 -0.2406978 1 1 1
v -0.146511 0.09435 -0.1465112 1 1 1

vn -0.5812036 0.8137583 0
vn -0.410973 0.8137583 0.410973
vn -0.9192796 0.3936049 0
vn -0.6500289 0.393605 0.6500289
vn 0 0.3936049 0.9192796
vn 0 0.8137583 0.5812036
vn 0.6500289 0.393605 0.6500289
vn 0.410973 0.8137583 0.410973
vn 0.5812036 0.8137583 0
vn 0.9192796 0.3936049 0
vn 0.6500289 0.393605 -0.6500289
vn 0.410973 0.8137583 -0.410973
vn 0 0.2998266 -0.9539937
vn 0.6745754 0.2998266 -0.6745754
vn 0 0.3936049 -0.9192796
vn 0 0.2998266 0.9539937
vn -0.6745754 0.2998266 0.6745754
vn -0.6745754 0.2998266 -0.6745754
vn -0.6500289 0.393605 -0.6500289
vn -0.9539937 0.2998266 0
vn 0.9539937 0.2998266 0
vn 0 0.8137583 -0.5812036
vn -0.410973 0.8137583 -0.410973
vn 0.6745754 0.2998266 0.6745754

vt 0.84375 0.225
vt 0.84375 0.1073529
vt 0.84375 0.025

usemtl colormap

f 131/6/29 130/5/28 129/5/27
f 130/5/28 131/6/29 132/6/30
f 134/5/32 132/6/30 133/6/31
f 132/6/30 134/5/32 130/5/28
f 136/5/34 133/6/31 135/6/33
f 133/6/31 136/5/34 134/5/32
f 136/5/34 138/6/36 137/5/35
f 138/6/36 136/5/34 135/6/33
f 140/5/38 138/6/36 139/6/37
f 138/6/36 140/5/38 137/5/35
f 143/6/41 142/7/40 141/7/39
f 142/7/40 143/6/41 139/6/37
f 133/6/31 145/7/43 144/7/42
f 145/7/43 133/6/31 132/6/30
f 148/7/46 147/6/45 146/7/44
f 147/6/45 148/7/46 131/6/29
f 139/6/37 149/7/47 142/7/40
f 149/7/47 139/6/37 138/6/36
f 150/5/48 139/6/37 143/6/41
f 139/6/37 150/5/48 140/5/38
f 151/5/49 143/6/41 147/6/45
f 143/6/41 151/5/49 150/5/48
f 131/6/29 151/5/49 147/6/45
f 151/5/49 131/6/29 129/5/27
f 147/6/45 141/7/39 146/7/44
f 141/7/39 147/6/45 143/6/41
f 138/6/36 152/7/50 149/7/47
f 152/7/50 138/6/36 135/6/33
f 145/7/43 131/6/29 148/7/46
f 131/6/29 145/7/43 132/6/30
f 135/6/33 144/7/42 152/7/50
f 144/7/42 135/6/33 133/6/31
f 140/5/38 136/5/34 137/5/35
f 136/5/34 140/5/38 150/5/48
f 136/5/34 150/5/48 134/5/32
f 134/5/32 150/5/48 151/5/49
f 134/5/32 151/5/49 130/5/28
f 130/5/28 151/5/49 129/5/27
f 155/6/29 154/5/28 153/5/27
f 154/5/28 155/6/29 156/6/30
f 158/5/32 156/6/30 157/6/31
f 156/6/30 158/5/32 154/5/28
f 160/5/34 157/6/31 159/6/33
f 157/6/31 160/5/34 158/5/32
f 160/5/34 162/6/36 161/5/35
f 162/6/36 160/5/34 159/6/33
f 164/5/38 162/6/36 163/6/37
f 162/6/36 164/5/38 161/5/35
f 167/6/41 166/7/40 165/7/39
f 166/7/40 167/6/41 163/6/37
f 157/6/31 169/7/43 168/7/42
f 169/7/43 157/6/31 156/6/30
f 172/7/46 171/6/45 170/7/44
f 171/6/45 172/7/46 155/6/29
f 163/6/37 173/7/47 166/7/40
f 173/7/47 163/6/37 162/6/36
f 174/5/48 163/6/37 167/6/41
f 163/6/37 174/5/48 164/5/38
f 175/5/49 167/6/41 171/6/45
f 167/6/41 175/5/49 174/5/48
f 155/6/29 175/5/49 171/6/45
f 175/5/49 155/6/29 153/5/27
f 171/6/45 165/7/39 170/7/44
f 165/7/39 171/6/45 167/6/41
f 162/6/36 176/7/50 173/7/47
f 176/7/50 162/6/36 159/6/33
f 169/7/43 155/6/29 172/7/46
f 155/6/29 169/7/43 156/6/30
f 159/6/33 168/7/42 176/7/50
f 168/7/42 159/6/33 157/6/31
f 164/5/38 160/5/34 161/5/35
f 160/5/34 164/5/38 174/5/48
f 160/5/34 174/5/48 158/5/32
f 158/5/32 174/5/48 175/5/49
f 158/5/32 175/5/49 154/5/28
f 154/5/28 175/5/49 153/5/27
f 179/6/29 178/5/28 177/5/27
f 178/5/28 179/6/29 180/6/30
f 182/5/32 180/6/30 181/6/31
f 180/6/30 182/5/32 178/5/28
f 184/5/34 181/6/31 183/6/33
f 181/6/31 184/5/34 182/5/32
f 184/5/34 186/6/36 185/5/35
f 186/6/36 184/5/34 183/6/33
f 188/5/38 186/6/36 187/6/37
f 186/6/36 188/5/38 185/5/35
f 191/6/41 190/7/40 189/7/39
f 190/7/40 191/6/41 187/6/37
f 181/6/31 193/7/43 192/7/42
f 193/7/43 181/6/31 180/6/30
f 196/7/46 195/6/45 194/7/44
f 195/6/45 196/7/46 179/6/29
f 187/6/37 197/7/47 190/7/40
f 197/7/47 187/6/37 186/6/36
f 198/5/48 187/6/37 191/6/41
f 187/6/37 198/5/48 188/5/38
f 199/5/49 191/6/41 195/6/45
f 191/6/41 199/5/49 198/5/48
f 179/6/29 199/5/49 195/6/45
f 199/5/49 179/6/29 177/5/27
f 195/6/45 189/7/39 194/7/44
f 189/7/39 195/6/45 191/6/41
f 186/6/36 200/7/50 197/7/47
f 200/7/50 186/6/36 183/6/33
f 193/7/43 179/6/29 196/7/46
f 179/6/29 193/7/43 180/6/30
f 183/6/33 192/7/42 200/7/50
f 192/7/42 183/6/33 181/6/31
f 188/5/38 184/5/34 185/5/35
f 184/5/34 188/5/38 198/5/48
f 184/5/34 198/5/48 182/5/32
f 182/5/32 198/5/48 199/5/49
f 182/5/32 199/5/49 178/5/28
f 178/5/28 199/5/49 177/5/27
f 203/6/29 202/5/28 201/5/27
f 202/5/28 203/6/29 204/6/30
f 206/5/32 204/6/30 205/6/31
f 204/6/30 206/5/32 202/5/28
f 208/5/34 205/6/31 207/6/33
f 205/6/31 208/5/34 206/5/32
f 208/5/34 210/6/36 209/5/35
f 210/6/36 208/5/34 207/6/33
f 212/5/38 210/6/36 211/6/37
f 210/6/36 212/5/38 209/5/35
f 215/6/41 214/7/40 213/7/39
f 214/7/40 215/6/41 211/6/37
f 205/6/31 217/7/43 216/7/42
f 217/7/43 205/6/31 204/6/30
f 220/7/46 219/6/45 218/7/44
f 219/6/45 220/7/46 203/6/29
f 211/6/37 221/7/47 214/7/40
f 221/7/47 211/6/37 210/6/36
f 222/5/48 211/6/37 215/6/41
f 211/6/37 222/5/48 212/5/38
f 223/5/49 215/6/41 219/6/45
f 215/6/41 223/5/49 222/5/48
f 203/6/29 223/5/49 219/6/45
f 223/5/49 203/6/29 201/5/27
f 219/6/45 213/7/39 218/7/44
f 213/7/39 219/6/45 215/6/41
f 210/6/36 224/7/50 221/7/47
f 224/7/50 210/6/36 207/6/33
f 217/7/43 203/6/29 220/7/46
f 203/6/29 217/7/43 204/6/30
f 207/6/33 216/7/42 224/7/50
f 216/7/42 207/6/33 205/6/31
f 212/5/38 208/5/34 209/5/35
f 208/5/34 212/5/38 222/5/48
f 208/5/34 222/5/48 206/5/32
f 206/5/32 222/5/48 223/5/49
f 206/5/32 223/5/49 202/5/28
f 202/5/28 223/5/49 201/5/27

