# Created by Kenney (www.kenney.nl)

mtllib wood-structure.mtl

g wood-structure

v 0.475 0.8 0.35 1 1 1
v 0.475 0.9 0.35 1 1 1
v 0.4750001 0.8 -0.3500001 1 1 1
v 0.4750001 0.9 -0.3500001 1 1 1
v 0.3749999 0.8 0.35 1 1 1
v 0.375 0.8 -0.3500001 1 1 1
v 0.3749999 0.9 0.35 1 1 1
v 0.375 0.9 -0.3500001 1 1 1
v -0.375 0.8 0.35 1 1 1
v -0.375 0.9 0.35 1 1 1
v -0.3749999 0.8 -0.3500001 1 1 1
v -0.3749999 0.9 -0.3500001 1 1 1
v -0.475 0.8 0.35 1 1 1
v -0.4749999 0.8 -0.3500001 1 1 1
v -0.475 0.9 0.35 1 1 1
v -0.4749999 0.9 -0.3500001 1 1 1
v -0.35 0.8 -0.375 1 1 1
v -0.35 0.9 -0.375 1 1 1
v 0.35 0.8 -0.375 1 1 1
v 0.35 0.9 -0.375 1 1 1
v -0.35 0.8 -0.475 1 1 1
v 0.35 0.8 -0.475 1 1 1
v -0.35 0.9 -0.475 1 1 1
v 0.35 0.9 -0.475 1 1 1
v -0.35 0.8 0.375 1 1 1
v -0.35 0.8 0.475 1 1 1
v 0.35 0.8 0.375 1 1 1
v 0.35 0.8 0.475 1 1 1
v -0.35 0.9 0.375 1 1 1
v 0.35 0.9 0.375 1 1 1
v -0.35 0.9 0.475 1 1 1
v 0.35 0.9 0.475 1 1 1
v 0.305975 0.76835 -0.498025 1 1 1
v 0.305975 0.93165 -0.498025 1 1 1
v 0.305975 0.76835 -0.351975 1 1 1
v 0.305975 0.93165 -0.351975 1 1 1
v 0.498025 0.76835 -0.305975 1 1 1
v 0.351975 0.76835 -0.305975 1 1 1
v 0.498025 0.93165 -0.305975 1 1 1
v 0.351975 0.93165 -0.305975 1 1 1
v 0.351975 0.76835 -0.544025 1 1 1
v 0.498025 0.76835 -0.544025 1 1 1
v 0.351975 0.93165 -0.544025 1 1 1
v 0.498025 0.93165 -0.544025 1 1 1
v 0.544025 0.93165 -0.498025 1 1 1
v 0.544025 0.76835 -0.498025 1 1 1
v 0.544025 0.93165 -0.351975 1 1 1
v 0.544025 0.76835 -0.351975 1 1 1
v -0.544025 0.76835 -0.498025 1 1 1
v -0.544025 0.93165 -0.498025 1 1 1
v -0.544025 0.76835 -0.351975 1 1 1
v -0.544025 0.93165 -0.351975 1 1 1
v -0.351975 0.76835 -0.305975 1 1 1
v -0.498025 0.76835 -0.305975 1 1 1
v -0.351975 0.93165 -0.305975 1 1 1
v -0.498025 0.93165 -0.305975 1 1 1
v -0.498025 0.76835 -0.544025 1 1 1
v -0.351975 0.76835 -0.544025 1 1 1
v -0.498025 0.93165 -0.544025 1 1 1
v -0.351975 0.93165 -0.544025 1 1 1
v -0.305975 0.93165 -0.498025 1 1 1
v -0.305975 0.76835 -0.498025 1 1 1
v -0.305975 0.93165 -0.351975 1 1 1
v -0.305975 0.76835 -0.351975 1 1 1
v 0.305975 0.76835 0.351975 1 1 1
v 0.305975 0.93165 0.351975 1 1 1
v 0.305975 0.76835 0.498025 1 1 1
v 0.305975 0.93165 0.498025 1 1 1
v 0.498025 0.76835 0.544025 1 1 1
v 0.351975 0.76835 0.544025 1 1 1
v 0.498025 0.93165 0.544025 1 1 1
v 0.351975 0.93165 0.544025 1 1 1
v 0.351975 0.76835 0.305975 1 1 1
v 0.498025 0.76835 0.305975 1 1 1
v 0.351975 0.93165 0.305975 1 1 1
v 0.498025 0.93165 0.305975 1 1 1
v 0.544025 0.93165 0.351975 1 1 1
v 0.544025 0.76835 0.351975 1 1 1
v 0.544025 0.93165 0.498025 1 1 1
v 0.544025 0.76835 0.498025 1 1 1
v -0.544025 0.76835 0.351975 1 1 1
v -0.544025 0.93165 0.351975 1 1 1
v -0.544025 0.76835 0.498025 1 1 1
v -0.544025 0.93165 0.498025 1 1 1
v -0.351975 0.76835 0.544025 1 1 1
v -0.498025 0.76835 0.544025 1 1 1
v -0.351975 0.93165 0.544025 1 1 1
v -0.498025 0.93165 0.544025 1 1 1
v -0.498025 0.76835 0.305975 1 1 1
v -0.351975 0.76835 0.305975 1 1 1
v -0.498025 0.93165 0.305975 1 1 1
v -0.351975 0.93165 0.305975 1 1 1
v -0.305975 0.93165 0.351975 1 1 1
v -0.305975 0.76835 0.351975 1 1 1
v -0.305975 0.93165 0.498025 1 1 1
v -0.305975 0.76835 0.498025 1 1 1
v 0.5 1.602965E-31 -0.35 1 1 1
v 0.5 1.602965E-31 -0.5 1 1 1
v 0.35 1.602965E-31 -0.35 1 1 1
v 0.35 1.602965E-31 -0.5 1 1 1
v 0.5 1 -0.5 1 1 1
v 0.5 1 -0.35 1 1 1
v 0.35 1 -0.5 1 1 1
v 0.35 1 -0.35 1 1 1
v 0.5 0 0.5 1 1 1
v 0.5 0 0.35 1 1 1
v 0.35 0 0.5 1 1 1
v 0.35 0 0.35 1 1 1
v 0.5 1 0.35 1 1 1
v 0.5 1 0.5 1 1 1
v 0.35 1 0.35 1 1 1
v 0.35 1 0.5 1 1 1
v -0.35 0 0.5 1 1 1
v -0.35 0 0.35 1 1 1
v -0.5 0 0.5 1 1 1
v -0.5 0 0.35 1 1 1
v -0.35 1 0.35 1 1 1
v -0.35 1 0.5 1 1 1
v -0.5 1 0.35 1 1 1
v -0.5 1 0.5 1 1 1
v -0.35 0 -0.35 1 1 1
v -0.35 0 -0.5 1 1 1
v -0.5 0 -0.35 1 1 1
v -0.5 0 -0.5 1 1 1
v -0.35 1 -0.5 1 1 1
v -0.35 1 -0.35 1 1 1
v -0.5 1 -0.5 1 1 1
v -0.5 1 -0.35 1 1 1
v -0.35 0.4928932 -0.45 1 1 1
v -0.04289324 0.8 -0.45 1 1 1
v -0.35 0.6343146 -0.45 1 1 1
v -0.1843146 0.8 -0.45 1 1 1
v -0.35 0.6343146 -0.4 1 1 1
v -0.1843146 0.8 -0.4 1 1 1
v -0.35 0.4928932 -0.4 1 1 1
v -0.04289324 0.8 -0.4 1 1 1
v 0.35 0.4928932 -0.45 1 1 1
v 0.04289323 0.8 -0.45 1 1 1
v 0.35 0.4928932 -0.4 1 1 1
v 0.04289323 0.8 -0.4 1 1 1
v 0.35 0.6343146 -0.45 1 1 1
v 0.1843146 0.8 -0.45 1 1 1
v 0.35 0.6343146 -0.4 1 1 1
v 0.1843146 0.8 -0.4 1 1 1
v 0.35 0.4928932 0.4 1 1 1
v 0.04289323 0.8 0.4 1 1 1
v 0.35 0.4928932 0.45 1 1 1
v 0.04289323 0.8 0.45 1 1 1
v 0.35 0.6343146 0.4 1 1 1
v 0.1843146 0.8 0.4 1 1 1
v 0.35 0.6343146 0.45 1 1 1
v 0.1843146 0.8 0.45 1 1 1
v -0.35 0.4928932 0.4 1 1 1
v -0.04289324 0.8 0.4 1 1 1
v -0.35 0.6343146 0.4 1 1 1
v -0.1843146 0.8 0.4 1 1 1
v -0.35 0.6343146 0.45 1 1 1
v -0.1843146 0.8 0.45 1 1 1
v -0.35 0.4928932 0.45 1 1 1
v -0.04289324 0.8 0.45 1 1 1
v 0.45 0.4928932 -0.35 1 1 1
v 0.45 0.8 -0.04289324 1 1 1
v 0.45 0.6343146 -0.35 1 1 1
v 0.45 0.8 -0.1843146 1 1 1
v 0.4 0.6343146 -0.35 1 1 1
v 0.4 0.8 -0.1843146 1 1 1
v 0.4 0.4928932 -0.35 1 1 1
v 0.4 0.8 -0.04289325 1 1 1
v -0.4 0.4928932 0.35 1 1 1
v -0.4 0.8 0.0428932 1 1 1
v -0.45 0.4928932 0.35 1 1 1
v -0.45 0.8 0.0428932 1 1 1
v -0.4 0.6343146 0.35 1 1 1
v -0.4 0.8 0.1843146 1 1 1
v -0.45 0.6343146 0.35 1 1 1
v -0.45 0.8 0.1843146 1 1 1
v -0.4 0.4928932 -0.35 1 1 1
v -0.4 0.8 -0.04289324 1 1 1
v -0.4 0.6343146 -0.35 1 1 1
v -0.4 0.8 -0.1843146 1 1 1
v -0.45 0.6343146 -0.35 1 1 1
v -0.45 0.8 -0.1843146 1 1 1
v -0.45 0.4928932 -0.35 1 1 1
v -0.45 0.8 -0.04289325 1 1 1
v 0.45 0.4928932 0.35 1 1 1
v 0.45 0.8 0.0428932 1 1 1
v 0.4 0.4928932 0.35 1 1 1
v 0.4 0.8 0.0428932 1 1 1
v 0.45 0.6343146 0.35 1 1 1
v 0.45 0.8 0.1843146 1 1 1
v 0.4 0.6343146 0.35 1 1 1
v 0.4 0.8 0.1843146 1 1 1

vn 1 0 1.192093E-07
vn 0 -1 0
vn -1 0 -1.192093E-07
vn 0 1 0
vn 1.28038E-12 0 1
vn -1.28038E-12 0 -1
vn -0.9238796 0 -0.3826835
vn -0.9238796 0 0.3826835
vn 0.3826835 0 0.9238796
vn -0.3826835 0 0.9238796
vn -0.3826835 0 -0.9238796
vn 0.3826835 0 -0.9238796
vn 0.9238796 0 -0.3826835
vn 0.9238796 0 0.3826835
vn -1 0 0
vn 0 0 -1
vn 1 0 0
vn 0 0 1
vn -0.7071068 0.7071068 0
vn 0.7071068 -0.7071068 0
vn -0.7071068 -0.7071068 0
vn 0.7071068 0.7071068 0
vn 8.429368E-08 0.7071068 -0.7071068
vn -8.429368E-08 -0.7071068 0.7071068
vn 8.429368E-08 -0.7071068 -0.7071068
vn -8.429368E-08 0.7071068 0.7071068

vt 0.03125 0.375
vt 0.09375 0.325
vt 0.09375 0.425
vt 0.09375 0.3789504

usemtl colormap

f 3/1/1 2/1/1 1/1/1
f 2/1/1 3/1/1 4/1/1
f 6/1/2 1/1/2 5/1/2
f 1/1/2 6/1/2 3/1/2
f 7/1/3 6/1/3 5/1/3
f 6/1/3 7/1/3 8/1/3
f 4/1/4 7/1/4 2/1/4
f 7/1/4 4/1/4 8/1/4
f 11/1/1 10/1/1 9/1/1
f 10/1/1 11/1/1 12/1/1
f 14/1/2 9/1/2 13/1/2
f 9/1/2 14/1/2 11/1/2
f 15/1/3 14/1/3 13/1/3
f 14/1/3 15/1/3 16/1/3
f 12/1/4 15/1/4 10/1/4
f 15/1/4 12/1/4 16/1/4
f 19/1/5 18/1/5 17/1/5
f 18/1/5 19/1/5 20/1/5
f 22/1/2 17/1/2 21/1/2
f 17/1/2 22/1/2 19/1/2
f 23/1/6 22/1/6 21/1/6
f 22/1/6 23/1/6 24/1/6
f 20/1/4 23/1/4 18/1/4
f 23/1/4 20/1/4 24/1/4
f 27/1/2 26/1/2 25/1/2
f 26/1/2 27/1/2 28/1/2
f 29/1/6 27/1/6 25/1/6
f 27/1/6 29/1/6 30/1/6
f 28/1/5 31/1/5 26/1/5
f 31/1/5 28/1/5 32/1/5
f 31/1/4 30/1/4 29/1/4
f 30/1/4 31/1/4 32/1/4
f 35/2/8 34/3/7 33/2/7
f 34/3/7 35/2/8 36/3/8
f 39/3/9 38/2/10 37/2/9
f 38/2/10 39/3/9 40/3/10
f 43/3/11 42/2/12 41/2/11
f 42/2/12 43/3/11 44/3/12
f 47/3/14 46/2/13 45/3/13
f 46/2/13 47/3/14 48/2/14
f 34/3/7 41/2/11 33/2/7
f 41/2/11 34/3/7 43/3/11
f 40/3/10 35/2/8 38/2/10
f 35/2/8 40/3/10 36/3/8
f 47/3/14 37/2/9 48/2/14
f 37/2/9 47/3/14 39/3/9
f 44/3/12 46/2/13 42/2/12
f 46/2/13 44/3/12 45/3/13
f 44/3/4 47/3/4 45/3/4
f 47/3/4 44/3/4 39/3/4
f 39/3/4 44/3/4 43/3/4
f 39/3/4 43/3/4 40/3/4
f 40/3/4 43/3/4 34/3/4
f 40/3/4 34/3/4 36/3/4
f 37/2/2 46/2/2 48/2/2
f 46/2/2 37/2/2 42/2/2
f 42/2/2 37/2/2 38/2/2
f 42/2/2 38/2/2 41/2/2
f 41/2/2 38/2/2 35/2/2
f 41/2/2 35/2/2 33/2/2
f 51/2/8 50/3/7 49/2/7
f 50/3/7 51/2/8 52/3/8
f 55/3/9 54/2/10 53/2/9
f 54/2/10 55/3/9 56/3/10
f 59/3/11 58/2/12 57/2/11
f 58/2/12 59/3/11 60/3/12
f 63/3/14 62/2/13 61/3/13
f 62/2/13 63/3/14 64/2/14
f 50/3/7 57/2/11 49/2/7
f 57/2/11 50/3/7 59/3/11
f 56/3/10 51/2/8 54/2/10
f 51/2/8 56/3/10 52/3/8
f 63/3/14 53/2/9 64/2/14
f 53/2/9 63/3/14 55/3/9
f 60/3/12 62/2/13 58/2/12
f 62/2/13 60/3/12 61/3/13
f 60/3/4 63/3/4 61/3/4
f 63/3/4 60/3/4 55/3/4
f 55/3/4 60/3/4 59/3/4
f 55/3/4 59/3/4 56/3/4
f 56/3/4 59/3/4 50/3/4
f 56/3/4 50/3/4 52/3/4
f 53/2/2 62/2/2 64/2/2
f 62/2/2 53/2/2 58/2/2
f 58/2/2 53/2/2 54/2/2
f 58/2/2 54/2/2 57/2/2
f 57/2/2 54/2/2 51/2/2
f 57/2/2 51/2/2 49/2/2
f 67/2/8 66/3/7 65/2/7
f 66/3/7 67/2/8 68/3/8
f 71/3/9 70/2/10 69/2/9
f 70/2/10 71/3/9 72/3/10
f 75/3/11 74/2/12 73/2/11
f 74/2/12 75/3/11 76/3/12
f 79/3/14 78/2/13 77/3/13
f 78/2/13 79/3/14 80/2/14
f 66/3/7 73/2/11 65/2/7
f 73/2/11 66/3/7 75/3/11
f 72/3/10 67/2/8 70/2/10
f 67/2/8 72/3/10 68/3/8
f 79/3/14 69/2/9 80/2/14
f 69/2/9 79/3/14 71/3/9
f 76/3/12 78/2/13 74/2/12
f 78/2/13 76/3/12 77/3/13
f 76/3/4 79/3/4 77/3/4
f 79/3/4 76/3/4 71/3/4
f 71/3/4 76/3/4 75/3/4
f 71/3/4 75/3/4 72/3/4
f 72/3/4 75/3/4 66/3/4
f 72/3/4 66/3/4 68/3/4
f 69/2/2 78/2/2 80/2/2
f 78/2/2 69/2/2 74/2/2
f 74/2/2 69/2/2 70/2/2
f 74/2/2 70/2/2 73/2/2
f 73/2/2 70/2/2 67/2/2
f 73/2/2 67/2/2 65/2/2
f 83/2/8 82/3/7 81/2/7
f 82/3/7 83/2/8 84/3/8
f 87/3/9 86/2/10 85/2/9
f 86/2/10 87/3/9 88/3/10
f 91/3/11 90/2/12 89/2/11
f 90/2/12 91/3/11 92/3/12
f 95/3/14 94/2/13 93/3/13
f 94/2/13 95/3/14 96/2/14
f 82/3/7 89/2/11 81/2/7
f 89/2/11 82/3/7 91/3/11
f 88/3/10 83/2/8 86/2/10
f 83/2/8 88/3/10 84/3/8
f 95/3/14 85/2/9 96/2/14
f 85/2/9 95/3/14 87/3/9
f 92/3/12 94/2/13 90/2/12
f 94/2/13 92/3/12 93/3/13
f 92/3/4 95/3/4 93/3/4
f 95/3/4 92/3/4 87/3/4
f 87/3/4 92/3/4 91/3/4
f 87/3/4 91/3/4 88/3/4
f 88/3/4 91/3/4 82/3/4
f 88/3/4 82/3/4 84/3/4
f 85/2/2 94/2/2 96/2/2
f 94/2/2 85/2/2 90/2/2
f 90/2/2 85/2/2 86/2/2
f 90/2/2 86/2/2 89/2/2
f 89/2/2 86/2/2 83/2/2
f 89/2/2 83/2/2 81/2/2
f 99/2/2 98/2/2 97/2/2
f 98/2/2 99/2/2 100/2/2
f 103/3/4 102/3/4 101/3/4
f 102/3/4 103/3/4 104/3/4
f 99/2/15 103/3/15 100/2/15
f 103/3/15 99/2/15 104/3/15
f 103/3/16 98/2/16 100/2/16
f 98/2/16 103/3/16 101/3/16
f 102/3/17 98/2/17 101/3/17
f 98/2/17 102/3/17 97/2/17
f 102/3/18 99/2/18 97/2/18
f 99/2/18 102/3/18 104/3/18
f 107/2/2 106/2/2 105/2/2
f 106/2/2 107/2/2 108/2/2
f 111/3/4 110/3/4 109/3/4
f 110/3/4 111/3/4 112/3/4
f 107/2/15 111/3/15 108/2/15
f 111/3/15 107/2/15 112/3/15
f 111/3/16 106/2/16 108/2/16
f 106/2/16 111/3/16 109/3/16
f 110/3/17 106/2/17 109/3/17
f 106/2/17 110/3/17 105/2/17
f 110/3/18 107/2/18 105/2/18
f 107/2/18 110/3/18 112/3/18
f 115/2/2 114/2/2 113/2/2
f 114/2/2 115/2/2 116/2/2
f 119/3/4 118/3/4 117/3/4
f 118/3/4 119/3/4 120/3/4
f 115/2/15 119/3/15 116/2/15
f 119/3/15 115/2/15 120/3/15
f 119/3/16 114/2/16 116/2/16
f 114/2/16 119/3/16 117/3/16
f 118/3/17 114/2/17 117/3/17
f 114/2/17 118/3/17 113/2/17
f 118/3/18 115/2/18 113/2/18
f 115/2/18 118/3/18 120/3/18
f 123/2/2 122/2/2 121/2/2
f 122/2/2 123/2/2 124/2/2
f 127/3/4 126/3/4 125/3/4
f 126/3/4 127/3/4 128/3/4
f 123/2/15 127/3/15 124/2/15
f 127/3/15 123/2/15 128/3/15
f 127/3/16 122/2/16 124/2/16
f 122/2/16 127/3/16 125/3/16
f 126/3/17 122/2/17 125/3/17
f 122/2/17 126/3/17 121/2/17
f 126/3/18 123/2/18 121/2/18
f 123/2/18 126/3/18 128/3/18
f 131/4/16 130/2/16 129/3/16
f 130/2/16 131/4/16 132/2/16
f 133/4/19 132/2/19 131/4/19
f 132/2/19 133/4/19 134/2/19
f 136/2/18 133/4/18 135/3/18
f 133/4/18 136/2/18 134/2/18
f 130/2/20 135/3/20 129/3/20
f 135/3/20 130/2/20 136/2/20
f 139/3/21 138/2/21 137/3/21
f 138/2/21 139/3/21 140/2/21
f 138/2/16 141/4/16 137/3/16
f 141/4/16 138/2/16 142/2/16
f 143/4/18 140/2/18 139/3/18
f 140/2/18 143/4/18 144/2/18
f 142/2/22 143/4/22 141/4/22
f 143/4/22 142/2/22 144/2/22
f 147/3/21 146/2/21 145/3/21
f 146/2/21 147/3/21 148/2/21
f 146/2/16 149/4/16 145/3/16
f 149/4/16 146/2/16 150/2/16
f 151/4/18 148/2/18 147/3/18
f 148/2/18 151/4/18 152/2/18
f 150/2/22 151/4/22 149/4/22
f 151/4/22 150/2/22 152/2/22
f 155/4/16 154/2/16 153/3/16
f 154/2/16 155/4/16 156/2/16
f 157/4/19 156/2/19 155/4/19
f 156/2/19 157/4/19 158/2/19
f 160/2/18 157/4/18 159/3/18
f 157/4/18 160/2/18 158/2/18
f 154/2/20 159/3/20 153/3/20
f 159/3/20 154/2/20 160/2/20
f 163/4/1 162/2/1 161/3/1
f 162/2/1 163/4/1 164/2/1
f 165/4/23 164/2/23 163/4/23
f 164/2/23 165/4/23 166/2/23
f 168/2/3 165/4/3 167/3/3
f 165/4/3 168/2/3 166/2/3
f 162/2/24 167/3/24 161/3/24
f 167/3/24 162/2/24 168/2/24
f 171/3/25 170/2/25 169/3/25
f 170/2/25 171/3/25 172/2/25
f 170/2/1 173/4/1 169/3/1
f 173/4/1 170/2/1 174/2/1
f 175/4/3 172/2/3 171/3/3
f 172/2/3 175/4/3 176/2/3
f 174/2/26 175/4/26 173/4/26
f 175/4/26 174/2/26 176/2/26
f 179/4/1 178/2/1 177/3/1
f 178/2/1 179/4/1 180/2/1
f 181/4/23 180/2/23 179/4/23
f 180/2/23 181/4/23 182/2/23
f 184/2/3 181/4/3 183/3/3
f 181/4/3 184/2/3 182/2/3
f 178/2/24 183/3/24 177/3/24
f 183/3/24 178/2/24 184/2/24
f 187/3/25 186/2/25 185/3/25
f 186/2/25 187/3/25 188/2/25
f 186/2/1 189/4/1 185/3/1
f 189/4/1 186/2/1 190/2/1
f 191/4/3 188/2/3 187/3/3
f 188/2/3 191/4/3 192/2/3
f 190/2/26 191/4/26 189/4/26
f 191/4/26 190/2/26 192/2/26

g wood-structure




usemtl colormap

f 3/1/1 2/1/1 1/1/1
f 2/1/1 3/1/1 4/1/1
f 6/1/2 1/1/2 5/1/2
f 1/1/2 6/1/2 3/1/2
f 7/1/3 6/1/3 5/1/3
f 6/1/3 7/1/3 8/1/3
f 4/1/4 7/1/4 2/1/4
f 7/1/4 4/1/4 8/1/4
f 11/1/1 10/1/1 9/1/1
f 10/1/1 11/1/1 12/1/1
f 14/1/2 9/1/2 13/1/2
f 9/1/2 14/1/2 11/1/2
f 15/1/3 14/1/3 13/1/3
f 14/1/3 15/1/3 16/1/3
f 12/1/4 15/1/4 10/1/4
f 15/1/4 12/1/4 16/1/4
f 19/1/5 18/1/5 17/1/5
f 18/1/5 19/1/5 20/1/5
f 22/1/2 17/1/2 21/1/2
f 17/1/2 22/1/2 19/1/2
f 23/1/6 22/1/6 21/1/6
f 22/1/6 23/1/6 24/1/6
f 20/1/4 23/1/4 18/1/4
f 23/1/4 20/1/4 24/1/4
f 27/1/2 26/1/2 25/1/2
f 26/1/2 27/1/2 28/1/2
f 29/1/6 27/1/6 25/1/6
f 27/1/6 29/1/6 30/1/6
f 28/1/5 31/1/5 26/1/5
f 31/1/5 28/1/5 32/1/5
f 31/1/4 30/1/4 29/1/4
f 30/1/4 31/1/4 32/1/4
f 35/2/8 34/3/7 33/2/7
f 34/3/7 35/2/8 36/3/8
f 39/3/9 38/2/10 37/2/9
f 38/2/10 39/3/9 40/3/10
f 43/3/11 42/2/12 41/2/11
f 42/2/12 43/3/11 44/3/12
f 47/3/14 46/2/13 45/3/13
f 46/2/13 47/3/14 48/2/14
f 34/3/7 41/2/11 33/2/7
f 41/2/11 34/3/7 43/3/11
f 40/3/10 35/2/8 38/2/10
f 35/2/8 40/3/10 36/3/8
f 47/3/14 37/2/9 48/2/14
f 37/2/9 47/3/14 39/3/9
f 44/3/12 46/2/13 42/2/12
f 46/2/13 44/3/12 45/3/13
f 44/3/4 47/3/4 45/3/4
f 47/3/4 44/3/4 39/3/4
f 39/3/4 44/3/4 43/3/4
f 39/3/4 43/3/4 40/3/4
f 40/3/4 43/3/4 34/3/4
f 40/3/4 34/3/4 36/3/4
f 37/2/2 46/2/2 48/2/2
f 46/2/2 37/2/2 42/2/2
f 42/2/2 37/2/2 38/2/2
f 42/2/2 38/2/2 41/2/2
f 41/2/2 38/2/2 35/2/2
f 41/2/2 35/2/2 33/2/2
f 51/2/8 50/3/7 49/2/7
f 50/3/7 51/2/8 52/3/8
f 55/3/9 54/2/10 53/2/9
f 54/2/10 55/3/9 56/3/10
f 59/3/11 58/2/12 57/2/11
f 58/2/12 59/3/11 60/3/12
f 63/3/14 62/2/13 61/3/13
f 62/2/13 63/3/14 64/2/14
f 50/3/7 57/2/11 49/2/7
f 57/2/11 50/3/7 59/3/11
f 56/3/10 51/2/8 54/2/10
f 51/2/8 56/3/10 52/3/8
f 63/3/14 53/2/9 64/2/14
f 53/2/9 63/3/14 55/3/9
f 60/3/12 62/2/13 58/2/12
f 62/2/13 60/3/12 61/3/13
f 60/3/4 63/3/4 61/3/4
f 63/3/4 60/3/4 55/3/4
f 55/3/4 60/3/4 59/3/4
f 55/3/4 59/3/4 56/3/4
f 56/3/4 59/3/4 50/3/4
f 56/3/4 50/3/4 52/3/4
f 53/2/2 62/2/2 64/2/2
f 62/2/2 53/2/2 58/2/2
f 58/2/2 53/2/2 54/2/2
f 58/2/2 54/2/2 57/2/2
f 57/2/2 54/2/2 51/2/2
f 57/2/2 51/2/2 49/2/2
f 67/2/8 66/3/7 65/2/7
f 66/3/7 67/2/8 68/3/8
f 71/3/9 70/2/10 69/2/9
f 70/2/10 71/3/9 72/3/10
f 75/3/11 74/2/12 73/2/11
f 74/2/12 75/3/11 76/3/12
f 79/3/14 78/2/13 77/3/13
f 78/2/13 79/3/14 80/2/14
f 66/3/7 73/2/11 65/2/7
f 73/2/11 66/3/7 75/3/11
f 72/3/10 67/2/8 70/2/10
f 67/2/8 72/3/10 68/3/8
f 79/3/14 69/2/9 80/2/14
f 69/2/9 79/3/14 71/3/9
f 76/3/12 78/2/13 74/2/12
f 78/2/13 76/3/12 77/3/13
f 76/3/4 79/3/4 77/3/4
f 79/3/4 76/3/4 71/3/4
f 71/3/4 76/3/4 75/3/4
f 71/3/4 75/3/4 72/3/4
f 72/3/4 75/3/4 66/3/4
f 72/3/4 66/3/4 68/3/4
f 69/2/2 78/2/2 80/2/2
f 78/2/2 69/2/2 74/2/2
f 74/2/2 69/2/2 70/2/2
f 74/2/2 70/2/2 73/2/2
f 73/2/2 70/2/2 67/2/2
f 73/2/2 67/2/2 65/2/2
f 83/2/8 82/3/7 81/2/7
f 82/3/7 83/2/8 84/3/8
f 87/3/9 86/2/10 85/2/9
f 86/2/10 87/3/9 88/3/10
f 91/3/11 90/2/12 89/2/11
f 90/2/12 91/3/11 92/3/12
f 95/3/14 94/2/13 93/3/13
f 94/2/13 95/3/14 96/2/14
f 82/3/7 89/2/11 81/2/7
f 89/2/11 82/3/7 91/3/11
f 88/3/10 83/2/8 86/2/10
f 83/2/8 88/3/10 84/3/8
f 95/3/14 85/2/9 96/2/14
f 85/2/9 95/3/14 87/3/9
f 92/3/12 94/2/13 90/2/12
f 94/2/13 92/3/12 93/3/13
f 92/3/4 95/3/4 93/3/4
f 95/3/4 92/3/4 87/3/4
f 87/3/4 92/3/4 91/3/4
f 87/3/4 91/3/4 88/3/4
f 88/3/4 91/3/4 82/3/4
f 88/3/4 82/3/4 84/3/4
f 85/2/2 94/2/2 96/2/2
f 94/2/2 85/2/2 90/2/2
f 90/2/2 85/2/2 86/2/2
f 90/2/2 86/2/2 89/2/2
f 89/2/2 86/2/2 83/2/2
f 89/2/2 83/2/2 81/2/2
f 99/2/2 98/2/2 97/2/2
f 98/2/2 99/2/2 100/2/2
f 103/3/4 102/3/4 101/3/4
f 102/3/4 103/3/4 104/3/4
f 99/2/15 103/3/15 100/2/15
f 103/3/15 99/2/15 104/3/15
f 103/3/16 98/2/16 100/2/16
f 98/2/16 103/3/16 101/3/16
f 102/3/17 98/2/17 101/3/17
f 98/2/17 102/3/17 97/2/17
f 102/3/18 99/2/18 97/2/18
f 99/2/18 102/3/18 104/3/18
f 107/2/2 106/2/2 105/2/2
f 106/2/2 107/2/2 108/2/2
f 111/3/4 110/3/4 109/3/4
f 110/3/4 111/3/4 112/3/4
f 107/2/15 111/3/15 108/2/15
f 111/3/15 107/2/15 112/3/15
f 111/3/16 106/2/16 108/2/16
f 106/2/16 111/3/16 109/3/16
f 110/3/17 106/2/17 109/3/17
f 106/2/17 110/3/17 105/2/17
f 110/3/18 107/2/18 105/2/18
f 107/2/18 110/3/18 112/3/18
f 115/2/2 114/2/2 113/2/2
f 114/2/2 115/2/2 116/2/2
f 119/3/4 118/3/4 117/3/4
f 118/3/4 119/3/4 120/3/4
f 115/2/15 119/3/15 116/2/15
f 119/3/15 115/2/15 120/3/15
f 119/3/16 114/2/16 116/2/16
f 114/2/16 119/3/16 117/3/16
f 118/3/17 114/2/17 117/3/17
f 114/2/17 118/3/17 113/2/17
f 118/3/18 115/2/18 113/2/18
f 115/2/18 118/3/18 120/3/18
f 123/2/2 122/2/2 121/2/2
f 122/2/2 123/2/2 124/2/2
f 127/3/4 126/3/4 125/3/4
f 126/3/4 127/3/4 128/3/4
f 123/2/15 127/3/15 124/2/15
f 127/3/15 123/2/15 128/3/15
f 127/3/16 122/2/16 124/2/16
f 122/2/16 127/3/16 125/3/16
f 126/3/17 122/2/17 125/3/17
f 122/2/17 126/3/17 121/2/17
f 126/3/18 123/2/18 121/2/18
f 123/2/18 126/3/18 128/3/18
f 131/4/16 130/2/16 129/3/16
f 130/2/16 131/4/16 132/2/16
f 133/4/19 132/2/19 131/4/19
f 132/2/19 133/4/19 134/2/19
f 136/2/18 133/4/18 135/3/18
f 133/4/18 136/2/18 134/2/18
f 130/2/20 135/3/20 129/3/20
f 135/3/20 130/2/20 136/2/20
f 139/3/21 138/2/21 137/3/21
f 138/2/21 139/3/21 140/2/21
f 138/2/16 141/4/16 137/3/16
f 141/4/16 138/2/16 142/2/16
f 143/4/18 140/2/18 139/3/18
f 140/2/18 143/4/18 144/2/18
f 142/2/22 143/4/22 141/4/22
f 143/4/22 142/2/22 144/2/22
f 147/3/21 146/2/21 145/3/21
f 146/2/21 147/3/21 148/2/21
f 146/2/16 149/4/16 145/3/16
f 149/4/16 146/2/16 150/2/16
f 151/4/18 148/2/18 147/3/18
f 148/2/18 151/4/18 152/2/18
f 150/2/22 151/4/22 149/4/22
f 151/4/22 150/2/22 152/2/22
f 155/4/16 154/2/16 153/3/16
f 154/2/16 155/4/16 156/2/16
f 157/4/19 156/2/19 155/4/19
f 156/2/19 157/4/19 158/2/19
f 160/2/18 157/4/18 159/3/18
f 157/4/18 160/2/18 158/2/18
f 154/2/20 159/3/20 153/3/20
f 159/3/20 154/2/20 160/2/20
f 163/4/1 162/2/1 161/3/1
f 162/2/1 163/4/1 164/2/1
f 165/4/23 164/2/23 163/4/23
f 164/2/23 165/4/23 166/2/23
f 168/2/3 165/4/3 167/3/3
f 165/4/3 168/2/3 166/2/3
f 162/2/24 167/3/24 161/3/24
f 167/3/24 162/2/24 168/2/24
f 171/3/25 170/2/25 169/3/25
f 170/2/25 171/3/25 172/2/25
f 170/2/1 173/4/1 169/3/1
f 173/4/1 170/2/1 174/2/1
f 175/4/3 172/2/3 171/3/3
f 172/2/3 175/4/3 176/2/3
f 174/2/26 175/4/26 173/4/26
f 175/4/26 174/2/26 176/2/26
f 179/4/1 178/2/1 177/3/1
f 178/2/1 179/4/1 180/2/1
f 181/4/23 180/2/23 179/4/23
f 180/2/23 181/4/23 182/2/23
f 184/2/3 181/4/3 183/3/3
f 181/4/3 184/2/3 182/2/3
f 178/2/24 183/3/24 177/3/24
f 183/3/24 178/2/24 184/2/24
f 187/3/25 186/2/25 185/3/25
f 186/2/25 187/3/25 188/2/25
f 186/2/1 189/4/1 185/3/1
f 189/4/1 186/2/1 190/2/1
f 191/4/3 188/2/3 187/3/3
f 188/2/3 191/4/3 192/2/3
f 190/2/26 191/4/26 189/4/26
f 191/4/26 190/2/26 192/2/26

