# Created by Kenney (www.kenney.nl)

mtllib wood-support.mtl

g wood-support

v -0.425 0.8 0.05 1 1 1
v -0.425 0.9 0.05 1 1 1
v 0.425 0.8 0.05 1 1 1
v 0.425 0.9 0.05 1 1 1
v -0.425 0.8 -0.05 1 1 1
v 0.425 0.8 -0.05 1 1 1
v -0.425 0.9 -0.05 1 1 1
v 0.425 0.9 -0.05 1 1 1
v -0.544025 0.76835 -0.073025 1 1 1
v -0.544025 0.93165 -0.073025 1 1 1
v -0.544025 0.76835 0.073025 1 1 1
v -0.544025 0.93165 0.073025 1 1 1
v -0.351975 0.76835 0.119025 1 1 1
v -0.498025 0.76835 0.119025 1 1 1
v -0.351975 0.93165 0.119025 1 1 1
v -0.498025 0.93165 0.119025 1 1 1
v -0.498025 0.76835 -0.119025 1 1 1
v -0.351975 0.76835 -0.119025 1 1 1
v -0.498025 0.93165 -0.119025 1 1 1
v -0.351975 0.93165 -0.119025 1 1 1
v -0.305975 0.93165 -0.073025 1 1 1
v -0.305975 0.76835 -0.073025 1 1 1
v -0.305975 0.93165 0.073025 1 1 1
v -0.305975 0.76835 0.073025 1 1 1
v 0.305975 0.76835 -0.073025 1 1 1
v 0.305975 0.93165 -0.073025 1 1 1
v 0.305975 0.76835 0.073025 1 1 1
v 0.305975 0.93165 0.073025 1 1 1
v 0.498025 0.76835 0.119025 1 1 1
v 0.351975 0.76835 0.119025 1 1 1
v 0.498025 0.93165 0.119025 1 1 1
v 0.351975 0.93165 0.119025 1 1 1
v 0.351975 0.76835 -0.119025 1 1 1
v 0.498025 0.76835 -0.119025 1 1 1
v 0.351975 0.93165 -0.119025 1 1 1
v 0.498025 0.93165 -0.119025 1 1 1
v 0.544025 0.93165 -0.073025 1 1 1
v 0.544025 0.76835 -0.073025 1 1 1
v 0.544025 0.93165 0.073025 1 1 1
v 0.544025 0.76835 0.073025 1 1 1
v 0.5 1.602965E-31 0.075 1 1 1
v 0.5 1.602965E-31 -0.075 1 1 1
v 0.425 1.602965E-31 0.075 1 1 1
v 0.425 1.602965E-31 -0.075 1 1 1
v 0.5 1 -0.075 1 1 1
v 0.5 1 0.075 1 1 1
v 0.35 1 -0.075 1 1 1
v 0.35 1 0.075 1 1 1
v -0.425 0 0.075 1 1 1
v -0.425 0 -0.075 1 1 1
v -0.5 0 0.075 1 1 1
v -0.5 0 -0.075 1 1 1
v -0.35 1 -0.075 1 1 1
v -0.35 1 0.075 1 1 1
v -0.5 1 -0.075 1 1 1
v -0.5 1 0.075 1 1 1
v 0.4 0.4928932 -0.025 1 1 1
v 0.09289324 0.8 -0.025 1 1 1
v 0.4 0.4928932 0.025 1 1 1
v 0.09289324 0.8 0.025 1 1 1
v 0.4 0.6343145 -0.025 1 1 1
v 0.2343146 0.8 -0.025 1 1 1
v 0.4 0.6343145 0.025 1 1 1
v 0.2343146 0.8 0.025 1 1 1
v -0.4 0.4928932 -0.025 1 1 1
v -0.09289325 0.8 -0.025 1 1 1
v -0.4 0.6343145 -0.025 1 1 1
v -0.2343146 0.8 -0.025 1 1 1
v -0.4 0.6343145 0.025 1 1 1
v -0.2343146 0.8 0.025 1 1 1
v -0.4 0.4928932 0.025 1 1 1
v -0.09289325 0.8 0.025 1 1 1

vn 1.28038E-12 0 1
vn 0 -1 0
vn -1.28038E-12 0 -1
vn 0 1 0
vn -0.9238796 0 -0.3826835
vn -0.9238796 0 0.3826835
vn 0.3826835 0 0.9238796
vn -0.3826835 0 0.9238796
vn -0.3826835 0 -0.9238796
vn 0.3826835 0 -0.9238796
vn 0.9238796 0 -0.3826835
vn 0.9238796 0 0.3826835
vn 1 0 0
vn 0 0 -1
vn -0.9971993 -0.07478995 0
vn 0 0 1
vn -1 0 0
vn 0.9971993 -0.07478995 0
vn -0.7071068 -0.7071068 0
vn 0.7071068 0.7071068 0
vn -0.7071068 0.7071068 0
vn 0.7071068 -0.7071068 0

vt 0.03125 0.375
vt 0.09375 0.325
vt 0.09375 0.425
vt 0.09375 0.3789504

usemtl colormap

f 3/1/1 2/1/1 1/1/1
f 2/1/1 3/1/1 4/1/1
f 6/1/2 1/1/2 5/1/2
f 1/1/2 6/1/2 3/1/2
f 7/1/3 6/1/3 5/1/3
f 6/1/3 7/1/3 8/1/3
f 4/1/4 7/1/4 2/1/4
f 7/1/4 4/1/4 8/1/4
f 11/2/6 10/3/5 9/2/5
f 10/3/5 11/2/6 12/3/6
f 15/3/7 14/2/8 13/2/7
f 14/2/8 15/3/7 16/3/8
f 19/3/9 18/2/10 17/2/9
f 18/2/10 19/3/9 20/3/10
f 23/3/12 22/2/11 21/3/11
f 22/2/11 23/3/12 24/2/12
f 10/3/5 17/2/9 9/2/5
f 17/2/9 10/3/5 19/3/9
f 16/3/8 11/2/6 14/2/8
f 11/2/6 16/3/8 12/3/6
f 23/3/12 13/2/7 24/2/12
f 13/2/7 23/3/12 15/3/7
f 20/3/10 22/2/11 18/2/10
f 22/2/11 20/3/10 21/3/11
f 20/3/4 23/3/4 21/3/4
f 23/3/4 20/3/4 15/3/4
f 15/3/4 20/3/4 19/3/4
f 15/3/4 19/3/4 16/3/4
f 16/3/4 19/3/4 10/3/4
f 16/3/4 10/3/4 12/3/4
f 13/2/2 22/2/2 24/2/2
f 22/2/2 13/2/2 18/2/2
f 18/2/2 13/2/2 14/2/2
f 18/2/2 14/2/2 17/2/2
f 17/2/2 14/2/2 11/2/2
f 17/2/2 11/2/2 9/2/2
f 27/2/6 26/3/5 25/2/5
f 26/3/5 27/2/6 28/3/6
f 31/3/7 30/2/8 29/2/7
f 30/2/8 31/3/7 32/3/8
f 35/3/9 34/2/10 33/2/9
f 34/2/10 35/3/9 36/3/10
f 39/3/12 38/2/11 37/3/11
f 38/2/11 39/3/12 40/2/12
f 26/3/5 33/2/9 25/2/5
f 33/2/9 26/3/5 35/3/9
f 32/3/8 27/2/6 30/2/8
f 27/2/6 32/3/8 28/3/6
f 39/3/12 29/2/7 40/2/12
f 29/2/7 39/3/12 31/3/7
f 36/3/10 38/2/11 34/2/10
f 38/2/11 36/3/10 37/3/11
f 36/3/4 39/3/4 37/3/4
f 39/3/4 36/3/4 31/3/4
f 31/3/4 36/3/4 35/3/4
f 31/3/4 35/3/4 32/3/4
f 32/3/4 35/3/4 26/3/4
f 32/3/4 26/3/4 28/3/4
f 29/2/2 38/2/2 40/2/2
f 38/2/2 29/2/2 34/2/2
f 34/2/2 29/2/2 30/2/2
f 34/2/2 30/2/2 33/2/2
f 33/2/2 30/2/2 27/2/2
f 33/2/2 27/2/2 25/2/2
f 43/2/2 42/2/2 41/2/2
f 42/2/2 43/2/2 44/2/2
f 47/3/4 46/3/4 45/3/4
f 46/3/4 47/3/4 48/3/4
f 46/3/13 42/2/13 45/3/13
f 42/2/13 46/3/13 41/2/13
f 47/3/14 42/2/14 44/2/14
f 42/2/14 47/3/14 45/3/14
f 43/2/15 47/3/15 44/2/15
f 47/3/15 43/2/15 48/3/15
f 46/3/16 43/2/16 41/2/16
f 43/2/16 46/3/16 48/3/16
f 51/2/2 50/2/2 49/2/2
f 50/2/2 51/2/2 52/2/2
f 55/3/4 54/3/4 53/3/4
f 54/3/4 55/3/4 56/3/4
f 55/3/14 50/2/14 52/2/14
f 50/2/14 55/3/14 53/3/14
f 51/2/17 55/3/17 52/2/17
f 55/3/17 51/2/17 56/3/17
f 54/3/16 51/2/16 49/2/16
f 51/2/16 54/3/16 56/3/16
f 54/3/18 50/2/18 53/3/18
f 50/2/18 54/3/18 49/2/18
f 59/3/19 58/2/19 57/3/19
f 58/2/19 59/3/19 60/2/19
f 58/2/14 61/4/14 57/3/14
f 61/4/14 58/2/14 62/2/14
f 63/4/16 60/2/16 59/3/16
f 60/2/16 63/4/16 64/2/16
f 62/2/20 63/4/20 61/4/20
f 63/4/20 62/2/20 64/2/20
f 67/4/14 66/2/14 65/3/14
f 66/2/14 67/4/14 68/2/14
f 69/4/21 68/2/21 67/4/21
f 68/2/21 69/4/21 70/2/21
f 72/2/16 69/4/16 71/3/16
f 69/4/16 72/2/16 70/2/16
f 66/2/22 71/3/22 65/3/22
f 71/3/22 66/2/22 72/2/22

g wood-support




usemtl colormap

f 3/1/1 2/1/1 1/1/1
f 2/1/1 3/1/1 4/1/1
f 6/1/2 1/1/2 5/1/2
f 1/1/2 6/1/2 3/1/2
f 7/1/3 6/1/3 5/1/3
f 6/1/3 7/1/3 8/1/3
f 4/1/4 7/1/4 2/1/4
f 7/1/4 4/1/4 8/1/4
f 11/2/6 10/3/5 9/2/5
f 10/3/5 11/2/6 12/3/6
f 15/3/7 14/2/8 13/2/7
f 14/2/8 15/3/7 16/3/8
f 19/3/9 18/2/10 17/2/9
f 18/2/10 19/3/9 20/3/10
f 23/3/12 22/2/11 21/3/11
f 22/2/11 23/3/12 24/2/12
f 10/3/5 17/2/9 9/2/5
f 17/2/9 10/3/5 19/3/9
f 16/3/8 11/2/6 14/2/8
f 11/2/6 16/3/8 12/3/6
f 23/3/12 13/2/7 24/2/12
f 13/2/7 23/3/12 15/3/7
f 20/3/10 22/2/11 18/2/10
f 22/2/11 20/3/10 21/3/11
f 20/3/4 23/3/4 21/3/4
f 23/3/4 20/3/4 15/3/4
f 15/3/4 20/3/4 19/3/4
f 15/3/4 19/3/4 16/3/4
f 16/3/4 19/3/4 10/3/4
f 16/3/4 10/3/4 12/3/4
f 13/2/2 22/2/2 24/2/2
f 22/2/2 13/2/2 18/2/2
f 18/2/2 13/2/2 14/2/2
f 18/2/2 14/2/2 17/2/2
f 17/2/2 14/2/2 11/2/2
f 17/2/2 11/2/2 9/2/2
f 27/2/6 26/3/5 25/2/5
f 26/3/5 27/2/6 28/3/6
f 31/3/7 30/2/8 29/2/7
f 30/2/8 31/3/7 32/3/8
f 35/3/9 34/2/10 33/2/9
f 34/2/10 35/3/9 36/3/10
f 39/3/12 38/2/11 37/3/11
f 38/2/11 39/3/12 40/2/12
f 26/3/5 33/2/9 25/2/5
f 33/2/9 26/3/5 35/3/9
f 32/3/8 27/2/6 30/2/8
f 27/2/6 32/3/8 28/3/6
f 39/3/12 29/2/7 40/2/12
f 29/2/7 39/3/12 31/3/7
f 36/3/10 38/2/11 34/2/10
f 38/2/11 36/3/10 37/3/11
f 36/3/4 39/3/4 37/3/4
f 39/3/4 36/3/4 31/3/4
f 31/3/4 36/3/4 35/3/4
f 31/3/4 35/3/4 32/3/4
f 32/3/4 35/3/4 26/3/4
f 32/3/4 26/3/4 28/3/4
f 29/2/2 38/2/2 40/2/2
f 38/2/2 29/2/2 34/2/2
f 34/2/2 29/2/2 30/2/2
f 34/2/2 30/2/2 33/2/2
f 33/2/2 30/2/2 27/2/2
f 33/2/2 27/2/2 25/2/2
f 43/2/2 42/2/2 41/2/2
f 42/2/2 43/2/2 44/2/2
f 47/3/4 46/3/4 45/3/4
f 46/3/4 47/3/4 48/3/4
f 46/3/13 42/2/13 45/3/13
f 42/2/13 46/3/13 41/2/13
f 47/3/14 42/2/14 44/2/14
f 42/2/14 47/3/14 45/3/14
f 43/2/15 47/3/15 44/2/15
f 47/3/15 43/2/15 48/3/15
f 46/3/16 43/2/16 41/2/16
f 43/2/16 46/3/16 48/3/16
f 51/2/2 50/2/2 49/2/2
f 50/2/2 51/2/2 52/2/2
f 55/3/4 54/3/4 53/3/4
f 54/3/4 55/3/4 56/3/4
f 55/3/14 50/2/14 52/2/14
f 50/2/14 55/3/14 53/3/14
f 51/2/17 55/3/17 52/2/17
f 55/3/17 51/2/17 56/3/17
f 54/3/16 51/2/16 49/2/16
f 51/2/16 54/3/16 56/3/16
f 54/3/18 50/2/18 53/3/18
f 50/2/18 54/3/18 49/2/18
f 59/3/19 58/2/19 57/3/19
f 58/2/19 59/3/19 60/2/19
f 58/2/14 61/4/14 57/3/14
f 61/4/14 58/2/14 62/2/14
f 63/4/16 60/2/16 59/3/16
f 60/2/16 63/4/16 64/2/16
f 62/2/20 63/4/20 61/4/20
f 63/4/20 62/2/20 64/2/20
f 67/4/14 66/2/14 65/3/14
f 66/2/14 67/4/14 68/2/14
f 69/4/21 68/2/21 67/4/21
f 68/2/21 69/4/21 70/2/21
f 72/2/16 69/4/16 71/3/16
f 69/4/16 72/2/16 70/2/16
f 66/2/22 71/3/22 65/3/22
f 71/3/22 66/2/22 72/2/22

