<svg width="256" height="512" xmlns="http://www.w3.org/2000/svg" xmlns:xlink="http://www.w3.org/1999/xlink">
  <defs>
    <linearGradient gradientUnits="userSpaceOnUse" x1="-819.2" x2="819.2" spreadMethod="pad" gradientTransform="matrix(0 -0.3125 0.2978515625 0 128 256)" id="gradient0">
      <stop offset="0" stop-color="#DE3257"/>
      <stop offset="1" stop-color="#F55376"/>
    </linearGradient>
    <linearGradient gradientUnits="userSpaceOnUse" x1="-819.2" x2="819.2" spreadMethod="pad" gradientTransform="matrix(0 0.015869140625 -0.015899658203125 0 141 396.95)" id="gradient1">
      <stop offset="0" stop-color="#FFFFFF"/>
      <stop offset="1" stop-color="#E5E7E9"/>
    </linearGradient>
    <linearGradient gradientUnits="userSpaceOnUse" x1="-819.2" x2="819.2" spreadMethod="pad" gradientTransform="matrix(-0.0112152099609375 -0.0112152099609375 0.011199951171875 -0.011199951171875 118.05 371.85)" id="gradient2">
      <stop offset="0" stop-color="#FFFFFF"/>
      <stop offset="1" stop-color="#E5E7E9"/>
    </linearGradient>
    <linearGradient gradientUnits="userSpaceOnUse" x1="-819.2" x2="819.2" spreadMethod="pad" gradientTransform="matrix(0 -0.0146484375 0.0146484375 0 128 257)" id="gradient3">
      <stop offset="0" stop-color="#B11637"/>
      <stop offset="1" stop-color="#8C122C"/>
    </linearGradient>
    <linearGradient gradientUnits="userSpaceOnUse" x1="-819.2" x2="819.2" spreadMethod="pad" gradientTransform="matrix(0 0.015869140625 -0.015899658203125 0 81 336.95)" id="gradient4">
      <stop offset="0" stop-color="#FFFFFF"/>
      <stop offset="1" stop-color="#E5E7E9"/>
    </linearGradient>
    <linearGradient gradientUnits="userSpaceOnUse" x1="-819.2" x2="819.2" spreadMethod="pad" gradientTransform="matrix(-0.0112152099609375 -0.0112152099609375 0.011199951171875 -0.011199951171875 58.05 311.85)" id="gradient5">
      <stop offset="0" stop-color="#FFFFFF"/>
      <stop offset="1" stop-color="#E5E7E9"/>
    </linearGradient>
    <linearGradient gradientUnits="userSpaceOnUse" x1="-819.2" x2="819.2" spreadMethod="pad" gradientTransform="matrix(0 0.015869140625 -0.015899658203125 0 201 456.95)" id="gradient6">
      <stop offset="0" stop-color="#FFFFFF"/>
      <stop offset="1" stop-color="#E5E7E9"/>
    </linearGradient>
    <linearGradient gradientUnits="userSpaceOnUse" x1="-819.2" x2="819.2" spreadMethod="pad" gradientTransform="matrix(-0.0112152099609375 -0.0112152099609375 0.011199951171875 -0.011199951171875 178.05 431.85)" id="gradient7">
      <stop offset="0" stop-color="#FFFFFF"/>
      <stop offset="1" stop-color="#E5E7E9"/>
    </linearGradient>
  </defs>
  <g>
    <path stroke="none" fill="#4D1521" d="M240 12 L16 12 Q12 12 12 16 L12 496 Q12 500 16 500 L240 500 Q244 500 244 496 L244 16 Q244 12 240 12 M0 496 L0 16 Q0 0.5 15.05 0 L241 0 Q256 0.5 256 16 L256 496 Q256 512 240 512 L16 512 Q0 512 0 496"/>
    <path stroke="none" fill="url(#gradient0)" d="M240 12 Q244 12 244 16 L244 496 Q244 500 240 500 L16 500 Q12 500 12 496 L12 16 Q12 12 16 12 L240 12 M20 20 L20 492 236 492 236 20 20 20"/>
    <path stroke="none" fill="#DE3257" d="M20 20 L236 20 236 492 20 492 20 20"/>
    <path stroke="none" fill="#FFFFFF" d="M128 383.95 L128 358 Q132.5 358 135.7 365.6 137.3 369.4 138.05 373.95 142.6 374.7 146.4 376.3 153.5 379.3 154 383.4 L154 383.55 154 383.95 128 383.95 128 410 Q123.5 410 120.3 402.4 118.7 398.6 117.95 394.05 113.4 393.3 109.6 391.7 102.55 388.75 102.05 384.65 L102 384 102 383.95 128 383.95"/>
    <path stroke="none" fill="url(#gradient1)" d="M128 383.95 L154 383.95 154 384 154 384.35 154 384.4 Q153.65 388.65 146.4 391.7 142.6 393.3 138.05 394.05 137.3 398.6 135.7 402.4 132.5 410 128 410 L128 383.95"/>
    <path stroke="none" fill="url(#gradient2)" d="M128 383.95 L102 383.95 102.05 383.6 102.05 383.55 Q102.4 379.35 109.6 376.3 113.4 374.7 117.95 373.95 118.7 369.4 120.3 365.6 123.5 358 128 358 L128 383.95"/>
    <path stroke="none" fill="#B11637" d="M128 410 Q132.5 410 135.7 402.4 137.3 398.6 138.05 394.05 142.6 393.3 146.4 391.7 153.65 388.65 154 384.4 L154 384.55 154 384.95 154 385 154 385.35 154 385.4 154 385.55 154 385.95 154 386 154 386.35 154 386.4 154 386.55 154 386.95 154 387 154 387.35 154 387.4 154 387.55 154 387.95 154 388 Q154 392.5 146.4 395.7 142.6 397.3 138.05 398.05 137.3 402.6 135.7 406.4 132.5 414 128 414 123.5 414 120.3 406.4 118.7 402.6 117.95 398.05 113.4 397.3 109.6 395.7 102 392.5 102 388 L102 387.95 102.05 387.65 102 387 102 386.95 102.05 386.65 102 386 102 385.95 102.05 385.65 102 385 102 384.95 102.05 384.65 Q102.55 388.75 109.6 391.7 113.4 393.3 117.95 394.05 118.7 398.6 120.3 402.4 123.5 410 128 410"/>
    <path stroke="none" fill="url(#gradient3)" d="M156 257.5 L156 257 Q156 252 159.5 248.5 163 245 168 245 173 245 176.5 248.5 180 252 180 257 L180 257.5 Q179.8 262.2 176.5 265.5 173 269 168 269 163 269 159.5 265.5 156.2 262.2 156 257.5 M116 257.5 L116 257 Q116 252 119.5 248.5 123 245 128 245 133 245 136.5 248.5 140 252 140 257 L140 257.5 Q139.8 262.2 136.5 265.5 133 269 128 269 123 269 119.5 265.5 116.2 262.2 116 257.5 M196 257.5 L196 257 Q196 252 199.5 248.5 203 245 208 245 213 245 216.5 248.5 220 252 220 257 L220 257.5 Q219.8 262.2 216.5 265.5 213 269 208 269 203 269 199.5 265.5 196.2 262.2 196 257.5 M36 257.5 L36 257 Q36 252 39.5 248.5 43 245 48 245 53 245 56.5 248.5 60 252 60 257 L60 257.5 Q59.8 262.2 56.5 265.5 53 269 48 269 43 269 39.5 265.5 36.2 262.2 36 257.5 M76 257.5 L76 257 Q76 252 79.5 248.5 83 245 88 245 93 245 96.5 248.5 100 252 100 257 L100 257.5 Q99.8 262.2 96.5 265.5 93 269 88 269 83 269 79.5 265.5 76.2 262.2 76 257.5"/>
    <path stroke="none" fill="#EF4B6E" d="M76 257.5 Q76.2 262.2 79.5 265.5 83 269 88 269 93 269 96.5 265.5 99.8 262.2 100 257.5 L100 258 100 258.5 100 259 Q100 264 96.5 267.5 93 271 88 271 83 271 79.5 267.5 76 264 76 259 L76 258.5 76 258 76 257.5 M180 257.5 L180 258 180 258.5 180 259 Q180 264 176.5 267.5 173 271 168 271 163 271 159.5 267.5 156 264 156 259 L156 258.5 156 258 156 257.5 Q156.2 262.2 159.5 265.5 163 269 168 269 173 269 176.5 265.5 179.8 262.2 180 257.5 M140 257.5 L140 258 140 258.5 140 259 Q140 264 136.5 267.5 133 271 128 271 123 271 119.5 267.5 116 264 116 259 L116 258.5 116 258 116 257.5 Q116.2 262.2 119.5 265.5 123 269 128 269 133 269 136.5 265.5 139.8 262.2 140 257.5 M220 257.5 L220 258 220 258.5 220 259 Q220 264 216.5 267.5 213 271 208 271 203 271 199.5 267.5 196 264 196 259 L196 258.5 196 258 196 257.5 Q196.2 262.2 199.5 265.5 203 269 208 269 213 269 216.5 265.5 219.8 262.2 220 257.5 M60 257.5 L60 258 60 258.5 60 259 Q60 264 56.5 267.5 53 271 48 271 43 271 39.5 267.5 36 264 36 259 L36 258.5 36 258 36 257.5 Q36.2 262.2 39.5 265.5 43 269 48 269 53 269 56.5 265.5 59.8 262.2 60 257.5"/>
    <path stroke="none" fill="#FFFFFF" d="M68 323.95 L68 298 Q72.5 298 75.7 305.6 77.3 309.4 78.05 313.95 82.6 314.7 86.4 316.3 93.5 319.3 94 323.4 L94 323.55 94 323.95 68 323.95 68 350 Q63.5 350 60.3 342.4 58.7 338.6 57.95 334.05 53.4 333.3 49.6 331.7 42.55 328.75 42.05 324.65 L42 324 42 323.95 68 323.95"/>
    <path stroke="none" fill="url(#gradient4)" d="M68 323.95 L94 323.95 94 324 94 324.35 94 324.4 Q93.65 328.65 86.4 331.7 82.6 333.3 78.05 334.05 77.3 338.6 75.7 342.4 72.5 350 68 350 L68 323.95"/>
    <path stroke="none" fill="url(#gradient5)" d="M68 323.95 L42 323.95 42.05 323.6 42.05 323.55 Q42.4 319.35 49.6 316.3 53.4 314.7 57.95 313.95 58.7 309.4 60.3 305.6 63.5 298 68 298 L68 323.95"/>
    <path stroke="none" fill="#B11637" d="M68 350 Q72.5 350 75.7 342.4 77.3 338.6 78.05 334.05 82.6 333.3 86.4 331.7 93.65 328.65 94 324.4 L94 324.55 94 324.95 94 325 94 325.35 94 325.4 94 325.55 94 325.95 94 326 94 326.35 94 326.4 94 326.55 94 326.95 94 327 94 327.35 94 327.4 94 327.55 94 327.95 94 328 Q94 332.5 86.4 335.7 82.6 337.3 78.05 338.05 77.3 342.6 75.7 346.4 72.5 354 68 354 63.5 354 60.3 346.4 58.7 342.6 57.95 338.05 53.4 337.3 49.6 335.7 42 332.5 42 328 L42 327.95 42.05 327.65 42 327 42 326.95 42.05 326.65 42 326 42 325.95 42.05 325.65 42 325 42 324.95 42.05 324.65 Q42.55 328.75 49.6 331.7 53.4 333.3 57.95 334.05 58.7 338.6 60.3 342.4 63.5 350 68 350"/>
    <path stroke="none" fill="#FFFFFF" d="M188 470 Q183.5 470 180.3 462.4 178.7 458.6 177.95 454.05 173.4 453.3 169.6 451.7 162.55 448.75 162.05 444.65 L162 444 162 443.95 188 443.95 188 470 M188 443.95 L188 418 Q192.5 418 195.7 425.6 197.3 429.4 198.05 433.95 202.6 434.7 206.4 436.3 213.5 439.3 214 443.4 L214 443.55 214 443.95 188 443.95"/>
    <path stroke="none" fill="url(#gradient6)" d="M188 443.95 L214 443.95 214 444 214 444.35 214 444.4 Q213.65 448.65 206.4 451.7 202.6 453.3 198.05 454.05 197.3 458.6 195.7 462.4 192.5 470 188 470 L188 443.95"/>
    <path stroke="none" fill="url(#gradient7)" d="M188 418 L188 443.95 162 443.95 162.05 443.6 162.05 443.55 Q162.4 439.35 169.6 436.3 173.4 434.7 177.95 433.95 178.7 429.4 180.3 425.6 183.5 418 188 418"/>
    <path stroke="none" fill="#B11637" d="M188 470 Q192.5 470 195.7 462.4 197.3 458.6 198.05 454.05 202.6 453.3 206.4 451.7 213.65 448.65 214 444.4 L214 444.55 214 444.95 214 445 214 445.35 214 445.4 214 445.55 214 445.95 214 446 214 446.35 214 446.4 214 446.55 214 446.95 214 447 214 447.35 214 447.4 214 447.55 214 447.95 214 448 Q214 452.5 206.4 455.7 202.6 457.3 198.05 458.05 197.3 462.6 195.7 466.4 192.5 474 188 474 183.5 474 180.3 466.4 178.7 462.6 177.95 458.05 173.4 457.3 169.6 455.7 162 452.5 162 448 L162 447.95 162.05 447.65 162 447 162 446.95 162.05 446.65 162 446 162 445.95 162.05 445.65 162 445 162 444.95 162.05 444.65 Q162.55 448.75 169.6 451.7 173.4 453.3 177.95 454.05 178.7 458.6 180.3 462.4 183.5 470 188 470"/>
  </g>
</svg>